<svg width="21" height="21" viewBox="0 0 21 21" fill="none" xmlns="http://www.w3.org/2000/svg">
<path fill-rule="evenodd" clip-rule="evenodd" d="M10.5 4.58521C10.8675 4.58521 11.165 4.88271 11.165 5.25021V10.5002C11.165 10.8677 10.8675 11.1652 10.5 11.1652H5.24996C4.88246 11.1652 4.58496 10.8677 4.58496 10.5002C4.58496 10.1327 4.88246 9.83521 5.24996 9.83521H9.83496V5.25021C9.83496 4.88271 10.1325 4.58521 10.5 4.58521Z" fill="#0066FF"/>
<path fill-rule="evenodd" clip-rule="evenodd" d="M9.83496 10.5002C9.83496 10.1327 10.1325 9.83521 10.5 9.83521H15.75C16.1175 9.83521 16.415 10.1327 16.415 10.5002C16.415 10.8677 16.1175 11.1652 15.75 11.1652H11.165V15.7502C11.165 16.1177 10.8675 16.4152 10.5 16.4152C10.1325 16.4152 9.83496 16.1177 9.83496 15.7502V10.5002Z" fill="#0066FF"/>
<path fill-rule="evenodd" clip-rule="evenodd" d="M10.5 19.6875C15.575 19.6875 19.6875 15.575 19.6875 10.5C19.6875 5.425 15.575 1.3125 10.5 1.3125C5.425 1.3125 1.3125 5.425 1.3125 10.5C1.3125 15.575 5.425 19.6875 10.5 19.6875ZM10.5 21C16.2925 21 21 16.2925 21 10.5C21 4.7075 16.2925 0 10.5 0C4.7075 0 0 4.7075 0 10.5C0 16.2925 4.7075 21 10.5 21Z" fill="#0066FF"/>
</svg>
