<svg width="72" height="74" viewBox="0 0 72 74" fill="none" xmlns="http://www.w3.org/2000/svg">
<path d="M2.26104 59.6887C2.26104 60.3107 1.75456 60.8155 1.13052 60.8155C0.506472 60.8155 0 60.3122 0 59.6887V16.9847C0 13.2059 3.08405 10.1333 6.87355 10.1333H20.6161V12.387H6.87355C4.33064 12.387 2.26104 14.4485 2.26104 16.9847V24.6144H69.0521V16.9847C69.0521 14.45 66.984 12.387 64.4395 12.387H52.4746L52.4791 10.1333H64.4441C68.2336 10.1333 71.3176 13.2074 71.3176 16.9847V68.2547C71.3176 68.8767 70.8111 69.3816 70.1871 69.3816C69.5631 69.3816 69.0566 68.8767 69.0566 68.2547V26.8681H2.26104V59.6887Z" fill="#497DF9"/>
<path d="M12.799 71.2954H2.94086C2.56552 71.2954 2.26104 70.9919 2.26104 70.6178V64.8241C2.26104 64.2021 1.75456 63.6973 1.13052 63.6973C0.506472 63.6973 0 64.2021 0 64.8241V70.6178C0 72.2344 1.31894 73.5491 2.94086 73.5491H12.799C13.423 73.5491 13.9295 73.0443 13.9295 72.4223C13.9295 71.8002 13.423 71.2954 12.799 71.2954Z" fill="#497DF9"/>
<path d="M68.8937 73.429C69.156 73.429 69.3897 73.4755 69.5947 73.5537C69.7921 73.4139 69.973 73.2397 70.1539 73.0173C70.2398 72.9196 70.2368 72.9211 70.1448 73.0218C70.2021 72.9362 70.2519 72.8475 70.3016 72.7574C70.2639 72.8054 70.38 72.5109 70.4343 72.3532C70.4252 72.3382 70.4312 72.1774 70.4373 72.0316C70.2896 71.8003 70.1464 71.5659 70.0137 71.324H67.0849C66.9643 71.324 66.8528 71.3119 66.7442 71.2954H17.9513C17.3273 71.2954 16.8208 71.8003 16.8208 72.4223C16.8208 73.0443 17.3273 73.5492 17.9513 73.5492H68.2034C68.4054 73.4725 68.6345 73.429 68.8937 73.429Z" fill="#497DF9"/>
<path d="M27.7981 54.0059C27.7093 53.9138 27.6611 53.8496 27.6003 53.8023C26.5825 53.0013 25.962 51.9552 25.7161 50.6919C25.6425 50.3159 25.6104 49.9272 25.6087 49.5436C25.6003 46.554 25.5893 43.5654 25.6096 40.5758C25.6214 38.9061 25.9409 37.2922 26.7034 35.789C27.0779 35.0505 27.5225 34.3551 28.0745 33.7332C28.2757 33.5067 28.4853 33.2887 28.6763 33.0546C28.8741 32.8113 29.2833 32.8654 29.4227 33.0065C29.5648 33.1501 29.5994 33.5363 29.3788 33.756C28.744 34.3914 28.2097 35.1046 27.7727 35.8946C27.2342 36.8723 26.9029 37.9141 26.738 39.0126C26.689 39.3379 26.673 39.6683 26.6518 39.9978C26.6451 40.1043 26.6687 40.2125 26.6831 40.3696C26.8217 40.3375 26.9342 40.308 27.0474 40.286C27.2757 40.2412 27.5039 40.1677 27.7338 40.1635C29.3517 40.1373 30.897 39.7841 32.3957 39.1884C33.4659 38.7633 34.4506 38.1854 35.372 37.5035C35.7837 37.1984 36.1784 37.1815 36.596 37.4384C37.7854 38.1693 39.0339 38.7802 40.3441 39.2568C41.4329 39.6522 42.5512 39.9488 43.6941 40.1449C43.7879 40.1609 43.8868 40.1601 43.9823 40.1559C44.3585 40.1406 44.7245 40.1761 45.0762 40.3223C45.137 40.3477 45.2063 40.3502 45.2866 40.3663C45.4219 40.0756 45.3695 39.7832 45.3399 39.5061C45.2207 38.3898 44.9477 37.3083 44.4506 36.2985C44.1032 35.5938 43.6687 34.944 43.1607 34.3373C42.5791 33.6427 41.9079 33.0606 41.1615 32.562C39.9739 31.7694 38.6653 31.2945 37.2461 31.1154C35.6003 30.9075 34.0052 31.0892 32.4675 31.7187C32.2131 31.8227 31.9688 31.9528 31.7203 32.0711C31.6205 32.1184 31.525 32.1742 31.4227 32.2156C31.137 32.3305 30.8572 32.2266 30.7245 31.9629C30.6231 31.7618 30.7017 31.5252 30.9409 31.3647C31.1007 31.2574 31.2664 31.1551 31.4413 31.0765C32.6932 30.5129 33.9866 30.142 35.3729 30.0533C36.6865 29.9688 37.9553 30.1344 39.1954 30.5248C40.4684 30.9261 41.6104 31.5785 42.6408 32.4344C43.3678 33.0386 43.9849 33.734 44.5301 34.4987C45.2833 35.5541 45.7803 36.7269 46.0888 37.9826C46.3365 38.9915 46.4025 40.0198 46.4041 41.0524C46.4084 43.8898 46.4134 46.7281 46.4016 49.5656C46.3965 50.8254 46.0567 51.9881 45.241 52.9751C45.006 53.2598 44.7211 53.504 44.4574 53.7651C44.3915 53.8302 44.3196 53.8893 44.2072 53.9899C44.3543 54.0549 44.4574 54.1107 44.5673 54.1479C45.2199 54.3693 45.8741 54.5839 46.5267 54.8044C48.0719 55.3275 49.1599 56.3364 49.6831 57.8895C49.8479 58.3779 49.9443 58.9119 49.9511 59.4265C49.9798 61.6851 49.9646 63.9446 49.962 66.2032C49.962 66.3393 49.9519 66.4812 49.9122 66.6097C49.8454 66.8226 49.6467 66.9553 49.4447 66.9561C49.2342 66.9569 49.0491 66.8353 48.9891 66.6063C48.9409 66.4229 48.924 66.2269 48.9232 66.0368C48.9189 63.7773 48.9325 61.5187 48.9147 59.2592C48.9046 57.9824 48.3196 56.9845 47.2833 56.2629C46.6442 55.8184 45.8987 55.6122 45.1083 55.3875C45.1565 56.006 45.252 56.5755 45.23 57.1408C45.208 57.7129 45.0711 58.2798 44.9781 58.8874C45.0998 58.9457 45.2334 59.0099 45.367 59.075C46.4303 59.5896 47.0432 60.4481 47.0533 61.6167C47.066 63.0151 46.1801 64.0798 44.8226 64.4288C43.7516 64.7042 42.432 64.1364 41.8209 63.1621C41.2207 62.2048 41.2376 60.9441 41.9274 60.0121C42.3196 59.4823 42.8234 59.0699 43.4921 58.9322C43.7879 58.8713 43.9375 58.7159 44.017 58.4311C44.3137 57.3647 44.2731 56.3093 43.957 55.2557C43.891 55.0368 43.7583 54.9126 43.5411 54.8416C42.6239 54.5425 41.7093 54.2391 40.7972 53.9248C40.5715 53.8471 40.4025 53.88 40.241 54.0533C40.044 54.2645 39.8344 54.4648 39.6282 54.6676C39.5597 54.7351 39.4929 54.8078 39.4134 54.8602C39.2207 54.987 38.9646 54.9582 38.8048 54.8036C38.6501 54.654 38.6079 54.4369 38.7287 54.2366C38.8124 54.098 38.9367 53.9823 39.0474 53.8606C39.1835 53.711 39.3247 53.5657 39.4895 53.3916C38.9426 52.8922 38.6772 52.294 38.7194 51.5285C37.7583 51.7456 36.8792 51.9661 35.9663 51.956C35.0686 51.9459 34.1996 51.7591 33.2833 51.4879C33.3213 52.2425 33.077 52.839 32.6282 53.3299C32.8141 53.6341 35.678 56.5189 36.0838 56.8138C36.2993 56.6009 36.52 56.3795 36.7448 56.1623C36.8538 56.0575 36.9604 55.9452 37.0863 55.8657C37.3019 55.7288 37.5318 55.7643 37.6882 55.9325C37.8496 56.1057 37.8784 56.3905 37.7059 56.573C37.3179 56.9828 36.9189 57.3833 36.503 57.7644C36.2926 57.9571 36.0145 57.963 35.7659 57.8286C35.5876 57.7323 35.4202 57.603 35.2757 57.4594C34.1506 56.344 33.0254 55.2286 31.9172 54.0955C31.6899 53.8631 31.4997 53.815 31.1954 53.924C30.2224 54.2713 29.2402 54.5932 28.2571 54.9092C27.9806 54.9979 27.8243 55.1483 27.7364 55.4289C27.4177 56.4445 27.4312 57.4585 27.6856 58.4826C27.7516 58.7471 27.9147 58.8654 28.1607 58.9355C28.8919 59.1426 29.4329 59.5913 29.7347 60.2892C29.8522 60.5613 29.9384 60.8672 29.9494 61.1612C29.9798 61.9454 29.968 62.7312 29.9604 63.5162C29.9561 63.986 29.7279 64.3113 29.2748 64.4296C29.0018 64.5006 28.7034 64.5073 28.4194 64.493C28.1514 64.4795 27.9418 64.2353 27.9333 64.008C27.924 63.7688 28.1463 63.5356 28.4312 63.4849C28.4582 63.4799 28.4861 63.4799 28.5132 63.4773C28.9806 63.4283 28.9823 63.4283 28.984 62.9703C28.9857 62.4473 28.9899 61.9234 28.9832 61.4004C28.9722 60.5495 28.4642 59.9639 27.6341 59.8321C26.875 59.7121 26.0221 60.3577 25.9933 61.1122C25.9663 61.8271 25.9899 62.5445 25.9925 63.2602C25.9925 63.2999 26.0119 63.3396 26.0314 63.4165C26.121 63.4342 26.2258 63.4503 26.3272 63.4756C26.4718 63.512 26.6307 63.5289 26.7558 63.6007C27.0593 63.7764 27.055 64.1955 26.7626 64.3899C26.0897 64.836 25.0026 64.3578 24.9561 63.5559C24.9088 62.7464 24.8894 61.9259 24.9629 61.1198C25.0491 60.1642 25.5741 59.4577 26.4608 59.0454C26.7448 58.9136 26.7626 58.8916 26.6924 58.6094C26.4489 57.6301 26.432 56.6499 26.6459 55.6646C26.6544 55.6266 26.6408 55.5844 26.6366 55.5201C26.569 55.5201 26.498 55.5015 26.443 55.5227C25.968 55.7052 25.4701 55.848 25.028 56.0913C23.7972 56.7682 23.1176 57.832 23.0973 59.2406C23.066 61.4992 23.0897 63.7595 23.0863 66.0182C23.0863 66.2091 23.0719 66.4052 23.0254 66.5885C22.9663 66.8243 22.7921 66.946 22.5808 66.9527C22.3644 66.9595 22.1531 66.8133 22.0863 66.5843C22.0525 66.4677 22.0466 66.3401 22.0457 66.2176C22.044 63.9446 22.0052 61.6707 22.0576 59.3994C22.1015 57.4873 23.0136 56.0449 24.6975 55.1162C24.9367 54.9844 25.2038 54.8999 25.4642 54.8104C26.1024 54.5907 26.744 54.3819 27.3839 54.1656C27.5115 54.1251 27.6341 54.0702 27.7981 54.0059ZM43.2063 42.9544C43.2063 42.4086 43.2063 42.0368 43.2063 41.6641C43.2055 41.0169 43.23 41.1039 42.6603 40.9552C42.088 40.8065 41.5098 40.6747 40.9451 40.5015C39.3061 39.9987 37.7516 39.3016 36.2917 38.3991C36.0948 38.2775 35.9519 38.2977 35.771 38.4304C34.1497 39.6218 32.3492 40.4186 30.3839 40.8437C29.9815 40.9307 29.5715 40.9865 29.1649 41.0558C28.8834 41.1031 28.804 41.158 28.809 41.414C28.8285 42.4449 28.7397 43.4775 28.8691 44.5075C29.1142 46.4527 29.9654 48.0632 31.4802 49.3163C33.0669 50.6285 34.9054 51.0941 36.9223 50.8837C38.2232 50.7477 39.3923 50.2508 40.4211 49.4287C41.7127 48.397 42.5808 47.0948 42.9806 45.4868C43.2038 44.5971 43.2309 43.6904 43.2063 42.9544ZM26.6746 44.1661C26.6653 44.3368 26.6501 44.4965 26.6501 44.6571C26.6484 46.3901 26.6332 48.1232 26.6535 49.8562C26.6721 51.4355 27.4211 52.599 28.7685 53.3975C28.9984 53.5336 29.2182 53.5505 29.4743 53.4575C30.0559 53.2463 30.6417 53.0427 31.2351 52.8677C32.0635 52.6235 32.3348 52.3608 32.2976 51.3273C32.29 51.106 32.2055 50.9817 32.0161 50.8736C31.1624 50.386 30.4067 49.7836 29.7761 49.0172C28.9671 48.0336 28.3855 46.9436 28.0821 45.7074C28.0035 45.388 27.9604 45.0601 27.8936 44.7382C27.864 44.5937 27.8581 44.4196 27.673 44.3757C27.3551 44.3022 27.0356 44.2413 26.6746 44.1661ZM45.3281 44.1315C45.1286 44.1957 44.9773 44.2549 44.82 44.292C44.6603 44.3301 44.4921 44.3351 44.3348 44.3808C44.2689 44.4002 44.2013 44.4779 44.1725 44.5455C44.1311 44.6452 44.1184 44.7576 44.1024 44.8666C43.7338 47.4252 42.4202 49.3687 40.2511 50.7443C39.6611 51.1186 39.722 51.0164 39.7161 51.722C39.7161 51.7355 39.7161 51.7498 39.7169 51.7634C39.7431 52.2746 39.9646 52.5838 40.4473 52.7503C41.1632 52.997 41.8851 53.2294 42.6011 53.4761C42.7964 53.5437 42.9722 53.5429 43.1548 53.4406C44.5098 52.6835 45.3061 51.547 45.3475 49.9864C45.3948 48.1832 45.3593 46.3774 45.3577 44.5734C45.3593 44.4399 45.3416 44.3072 45.3281 44.1315ZM46.0254 61.6707C46.1074 60.6018 45.1979 59.8186 44.1903 59.8236C43.2917 59.8278 42.3881 60.5106 42.3864 61.6505C42.3847 62.7777 43.2613 63.4731 44.2089 63.4875C45.0711 63.5001 46.1201 62.7388 46.0254 61.6707ZM27.7905 41.1935C27.0576 41.1918 26.6214 41.6422 26.6501 42.3258C26.6763 42.9434 27.1404 43.3668 27.8057 43.3212C27.8327 42.6139 27.8606 41.9033 27.7905 41.1935ZM44.274 43.3304C44.9249 43.3482 45.356 42.8953 45.3644 42.2311C45.3712 41.6557 44.8116 41.0803 44.2554 41.2011C44.1396 41.5746 44.1531 43.0339 44.274 43.3304Z" fill="#497DF9" stroke="#497DF9" stroke-width="0.75" stroke-miterlimit="10"/>
<path d="M36.4836 59.9682C36.4768 60.2495 36.2545 60.4684 35.9865 60.4574C35.7194 60.4464 35.5123 60.2098 35.525 59.9327C35.5376 59.6758 35.749 59.4916 36.022 59.5C36.2934 59.5068 36.4903 59.7071 36.4836 59.9682Z" fill="#497DF9" stroke="#497DF9" stroke-width="0.75" stroke-miterlimit="10"/>
<path d="M36.4843 63.2316C36.4868 63.491 36.2865 63.687 36.0143 63.6912C35.7412 63.6955 35.5341 63.5087 35.5257 63.2502C35.5164 62.9713 35.7269 62.7406 35.9957 62.7347C36.2645 62.7296 36.4817 62.9502 36.4843 63.2316Z" fill="#497DF9" stroke="#497DF9" stroke-width="0.75" stroke-miterlimit="10"/>
<path d="M36.4842 66.4643C36.4851 66.7077 36.2163 66.9806 35.988 66.9688C35.7691 66.957 35.5273 66.6984 35.524 66.4728C35.5206 66.2125 35.7674 65.9683 36.0202 65.9801C36.2695 65.9911 36.4834 66.2151 36.4842 66.4643Z" fill="#497DF9" stroke="#497DF9" stroke-width="0.75" stroke-miterlimit="10"/>
<path d="M35.9764 48.0699C35.5064 48.0792 35.0829 47.9364 34.6966 47.6744C34.5216 47.5553 34.4346 47.3931 34.4506 47.1835C34.4734 46.8835 34.7811 46.6951 35.0956 46.7948C35.2384 46.8404 35.3728 46.9157 35.5106 46.9773C35.9214 47.1599 36.3171 47.0939 36.7042 46.9021C36.7659 46.8717 36.8217 46.8278 36.8851 46.8041C37.1311 46.7145 37.3779 46.7948 37.5005 47.0002C37.618 47.197 37.569 47.4657 37.3678 47.6305C37.0246 47.911 36.6121 48.015 36.1826 48.0691C36.115 48.0767 36.0457 48.0699 35.9764 48.0699Z" fill="#497DF9" stroke="#497DF9" stroke-width="0.75" stroke-miterlimit="10"/>
<path d="M33.0121 42.8244C33.0121 42.9891 33.0248 43.1548 33.0079 43.317C32.9952 43.4361 32.9622 43.562 32.9031 43.6643C32.8101 43.8274 32.6571 43.9313 32.4618 43.9127C32.2733 43.895 32.1271 43.7893 32.0578 43.6068C32.0197 43.5054 31.9834 43.3964 31.98 43.2899C31.9698 42.9613 31.9758 42.6326 31.9766 42.303C31.9766 42.276 31.98 42.2481 31.9842 42.2211C32.04 41.8797 32.2361 41.6836 32.5091 41.6929C32.7847 41.7031 32.9825 41.9152 33.0079 42.2481C33.0222 42.4391 33.0104 42.6317 33.0104 42.8235C33.0113 42.8244 33.0113 42.8244 33.0121 42.8244Z" fill="#497DF9" stroke="#497DF9" stroke-width="0.75" stroke-miterlimit="10"/>
<path d="M39.0128 42.7897C39.0128 42.5708 38.9832 42.3469 39.0196 42.134C39.083 41.7588 39.476 41.567 39.7626 41.774C39.8818 41.8594 39.9942 42.0334 40.0052 42.1754C40.0382 42.5827 40.0179 42.995 40.0179 43.4057C40.0179 43.4319 40.0061 43.4589 39.9984 43.4851C39.9224 43.7462 39.728 43.9203 39.5149 43.9194C39.2918 43.9177 39.0517 43.7116 39.0179 43.4471C38.99 43.2316 39.012 43.0094 39.012 42.7905C39.012 42.7897 39.0128 42.7897 39.0128 42.7897Z" fill="#497DF9" stroke="#497DF9" stroke-width="0.75" stroke-miterlimit="10"/>
<path fill-rule="evenodd" clip-rule="evenodd" d="M28.9998 2.24001C28.0398 2.24001 27.2398 3.04001 27.2398 4.00001V14C27.2398 14.96 28.0198 15.76 28.9998 15.76H38.9998C39.9598 15.76 40.7598 14.98 40.7598 14V4.00001C40.7598 3.04001 39.9798 2.24001 38.9998 2.24001H28.9998ZM25.7598 4.00001C25.7598 2.20001 27.1998 0.76001 28.9998 0.76001H38.9998C40.7998 0.76001 42.2398 2.20001 42.2398 4.00001V14C42.2398 15.8 40.7998 17.24 38.9998 17.24H28.9998C27.1998 17.24 25.7598 15.8 25.7598 14V4.00001Z" fill="#497DF9" stroke="#497DF9" stroke-width="0.75" stroke-miterlimit="10"/>
<path fill-rule="evenodd" clip-rule="evenodd" d="M41.8801 5.48012L46.0401 3.08012C46.2601 2.94012 46.5601 3.02012 46.7001 3.24012C46.7401 3.32012 46.7601 3.40012 46.7601 3.48012V14.5601C46.7601 14.9001 46.3801 15.1401 46.0401 14.9601L41.8801 12.5601L41.1201 13.8201L45.2801 16.2201C46.5601 16.9601 48.2601 16.0801 48.2601 14.5201V3.46012C48.2601 1.92012 46.5801 1.02012 45.2801 1.76012L41.1401 4.16012L41.8801 5.48012Z" fill="#497DF9" stroke="#497DF9" stroke-width="0.75" stroke-miterlimit="10"/>
</svg>
