<svg width="22" height="24" viewBox="0 0 22 24" fill="none" xmlns="http://www.w3.org/2000/svg">
<path d="M19.1615 1.5075H16.5836V0.522022C16.5836 0.233818 16.3499 0 16.0619 0C15.7738 0 15.5401 0.233818 15.5401 0.522022V1.5075H6.73355V0.522022C6.73355 0.233818 6.49987 0 6.21183 0C5.92379 0 5.6901 0.233818 5.6901 0.522022V1.5075H2.93793C1.3709 1.50936 0.100735 2.77978 0.098877 4.3477V13.0436C0.098877 13.3318 0.332561 13.5651 0.620601 13.5651C0.908641 13.5651 1.14186 13.3313 1.14186 13.0436V9.62324H20.9567V21.1593C20.9553 22.1513 20.152 22.955 19.1606 22.9564H2.93886C1.94744 22.9555 1.14418 22.1513 1.14279 21.1593V18.1448C1.14279 17.8566 0.909105 17.6228 0.62153 17.6228C0.333955 17.6228 0.0998063 17.8566 0.0998063 18.1448V21.1593C0.101665 22.7273 1.37136 23.9981 2.93886 24H19.1615C20.7286 23.9981 21.9987 22.7277 22.0006 21.1593V4.3477C21.9987 2.77978 20.7286 1.50936 19.1615 1.5075ZM1.14279 8.57966V4.3477C1.14418 3.35572 1.94744 2.552 2.93886 2.55061H5.69103V3.96746C4.90589 4.22406 4.42366 5.01336 4.55327 5.82963C4.68289 6.6459 5.38673 7.24648 6.21276 7.24648C7.03878 7.24648 7.74216 6.6459 7.87224 5.82963C8.00186 5.01336 7.51962 4.22359 6.73448 3.96746V2.55061H15.5411V3.96746C14.7559 4.22406 14.2737 5.01336 14.4033 5.82963C14.5329 6.6459 15.2368 7.24648 16.0628 7.24648C16.8888 7.24648 17.5922 6.6459 17.7223 5.82963C17.8519 5.01336 17.3697 4.22359 16.5845 3.96746V2.55061H19.1625C20.1539 2.55154 20.9571 3.35572 20.9585 4.3477V8.57966H1.14279ZM6.21229 4.92783C6.56444 4.92783 6.8497 5.21325 6.8497 5.5656C6.8497 5.91749 6.56444 6.20337 6.21229 6.20337C5.8606 6.20337 5.57489 5.91749 5.57489 5.5656C5.57535 5.21325 5.8606 4.92783 6.21229 4.92783ZM16.0619 4.92783C16.414 4.92783 16.6993 5.21325 16.6993 5.5656C16.6993 5.91749 16.414 6.20337 16.0619 6.20337C15.7102 6.20337 15.4245 5.91749 15.4245 5.5656C15.4249 5.21325 15.7102 4.92783 16.0619 4.92783Z" fill="#888888"/>
</svg>
