<svg width="123" height="127" viewBox="0 0 123 127" fill="none" xmlns="http://www.w3.org/2000/svg">
<path d="M3.88043 102.439C3.88043 103.506 3.01121 104.373 1.94021 104.373C0.869216 104.373 0 103.509 0 102.439V29.1493C0 22.6641 5.2929 17.3909 11.7965 17.3909H35.3816V21.2588H11.7965C7.43231 21.2588 3.88043 24.7966 3.88043 29.1493V42.2435H118.508V29.1493C118.508 24.7992 114.959 21.2588 110.592 21.2588H90.0577L90.0655 17.3909H110.6C117.104 17.3909 122.396 22.6667 122.396 29.1493V117.14C122.396 118.207 121.527 119.074 120.456 119.074C119.385 119.074 118.516 118.207 118.516 117.14V46.1114H3.88043V102.439Z" fill="white"/>
<path d="M21.9658 122.358H5.04714C4.40299 122.358 3.88043 121.837 3.88043 121.195V111.252C3.88043 110.185 3.01121 109.318 1.94021 109.318C0.869216 109.318 0 110.185 0 111.252V121.195C0 123.97 2.26358 126.226 5.04714 126.226H21.9658C23.0368 126.226 23.906 125.36 23.906 124.292C23.906 123.225 23.0368 122.358 21.9658 122.358Z" fill="white"/>
<path d="M118.237 126.02C118.687 126.02 119.088 126.1 119.44 126.234C119.778 125.994 120.089 125.695 120.399 125.313C120.547 125.146 120.542 125.148 120.384 125.321C120.482 125.174 120.567 125.022 120.653 124.867C120.588 124.95 120.787 124.444 120.88 124.174C120.865 124.148 120.875 123.872 120.886 123.622C120.632 123.225 120.386 122.822 120.159 122.407H115.132C114.925 122.407 114.734 122.387 114.548 122.358H30.8084C29.7374 122.358 28.8682 123.225 28.8682 124.292C28.8682 125.36 29.7374 126.226 30.8084 126.226H117.052C117.398 126.095 117.792 126.02 118.237 126.02Z" fill="white"/>
<path d="M47.7074 92.6858C47.555 92.5277 47.4723 92.4175 47.3679 92.3363C45.6212 90.9616 44.5564 89.1662 44.1342 86.9982C44.008 86.3529 43.9529 85.6858 43.95 85.0275C43.9355 79.8968 43.9166 74.7675 43.9514 69.6368C43.9717 66.7713 44.5201 64.0015 45.8287 61.4216C46.4713 60.1542 47.2344 58.9607 48.1817 57.8933C48.527 57.5047 48.8868 57.1305 49.2147 56.7289C49.5541 56.3112 50.2563 56.404 50.4957 56.6462C50.7394 56.8927 50.7989 57.5554 50.4202 57.9325C49.3307 59.023 48.4139 60.247 47.6638 61.6029C46.7397 63.2807 46.171 65.0688 45.8881 66.954C45.804 67.5123 45.7764 68.0793 45.7402 68.6449C45.7286 68.8276 45.7692 69.0132 45.7938 69.283C46.0318 69.2279 46.2247 69.1771 46.4191 69.1394C46.8108 69.0625 47.2025 68.9364 47.5971 68.9291C50.3738 68.8842 53.0257 68.278 55.5979 67.2556C57.4345 66.5262 59.1246 65.5343 60.7059 64.364C61.4124 63.8405 62.0899 63.8115 62.8066 64.2523C64.8478 65.5067 66.9905 66.5552 69.2391 67.3731C71.1077 68.0518 73.027 68.5608 74.9884 68.8972C75.1494 68.9248 75.3191 68.9233 75.4831 68.9161C76.1287 68.89 76.7568 68.9509 77.3603 69.2018C77.4648 69.2453 77.5837 69.2496 77.7216 69.2772C77.9537 68.7783 77.8637 68.2766 77.813 67.8009C77.6084 65.8852 77.1398 64.029 76.2868 62.2961C75.6905 61.0866 74.9449 59.9714 74.073 58.9302C73.0749 57.7382 71.923 56.739 70.642 55.8834C68.6037 54.5231 66.358 53.7081 63.9222 53.4007C61.0976 53.044 58.3601 53.3558 55.7212 54.4361C55.2845 54.6145 54.8653 54.8378 54.4388 55.0409C54.2676 55.1221 54.1036 55.2178 53.9281 55.2888C53.4377 55.4861 52.9576 55.3077 52.7298 54.8552C52.5557 54.5101 52.6906 54.104 53.1012 53.8285C53.3754 53.6443 53.6597 53.4689 53.96 53.334C56.1085 52.3667 58.3282 51.7301 60.7074 51.5779C62.9618 51.4328 65.1394 51.7171 67.2676 52.387C69.4524 53.0759 71.4123 54.1954 73.1808 55.6644C74.4284 56.7013 75.4874 57.8948 76.4231 59.2072C77.7158 61.0185 78.5688 63.0313 79.0983 65.1862C79.5234 66.9177 79.6365 68.6826 79.6394 70.4547C79.6467 75.3244 79.6554 80.1955 79.6351 85.0652C79.6264 87.2274 79.0432 89.2228 77.6432 90.9166C77.2399 91.4053 76.751 91.8244 76.2984 92.2725C76.1852 92.3842 76.0619 92.4857 75.869 92.6582C76.1214 92.7699 76.2984 92.8656 76.487 92.9294C77.6069 93.3094 78.7298 93.6777 79.8498 94.0562C82.5017 94.9539 84.3688 96.6854 85.2668 99.3508C85.5497 100.189 85.7151 101.105 85.7267 101.989C85.776 105.865 85.7499 109.743 85.7456 113.619C85.7456 113.852 85.7281 114.096 85.66 114.317C85.5454 114.682 85.2044 114.91 84.8577 114.911C84.4965 114.913 84.1788 114.704 84.0758 114.311C83.9931 113.996 83.9641 113.66 83.9626 113.333C83.9554 109.456 83.9786 105.579 83.9481 101.702C83.9307 99.5103 82.9268 97.7976 81.1482 96.5592C80.0514 95.7964 78.7719 95.4426 77.4155 95.0568C77.4981 96.1184 77.6621 97.0958 77.6244 98.0659C77.5866 99.0477 77.3516 100.021 77.192 101.063C77.4009 101.163 77.6302 101.274 77.8594 101.385C79.6844 102.269 80.7362 103.742 80.7536 105.747C80.7753 108.148 79.255 109.975 76.9251 110.574C75.087 111.046 72.8224 110.072 71.7736 108.4C70.7435 106.757 70.7725 104.593 71.9563 102.994C72.6295 102.084 73.4941 101.377 74.6417 101.14C75.1494 101.036 75.4062 100.769 75.5426 100.28C76.0518 98.4502 75.9821 96.639 75.4396 94.8306C75.3264 94.455 75.0986 94.2418 74.7258 94.12C73.1517 93.6067 71.5821 93.0861 70.0167 92.5466C69.6294 92.4132 69.3392 92.4697 69.0621 92.767C68.7241 93.1296 68.3643 93.4732 68.0104 93.8213C67.8928 93.9373 67.7782 94.062 67.6419 94.1519C67.3111 94.3694 66.8715 94.3201 66.5973 94.0548C66.3319 93.7981 66.2593 93.4254 66.4668 93.0817C66.6104 92.8439 66.8237 92.6452 67.0137 92.4364C67.2473 92.1797 67.4895 91.9303 67.7724 91.6315C66.8338 90.7745 66.3783 89.7478 66.4508 88.4339C64.8013 88.8066 63.2926 89.1851 61.7258 89.1677C60.1851 89.1503 58.6938 88.8298 57.1212 88.3643C57.1864 89.6593 56.7672 90.6831 55.9968 91.5257C56.316 92.0477 61.2311 96.9986 61.9274 97.5047C62.2974 97.1393 62.676 96.7593 63.0619 96.3866C63.2491 96.2068 63.4318 96.0139 63.648 95.8776C64.0179 95.6427 64.4125 95.7036 64.6809 95.9922C64.958 96.2895 65.0073 96.7782 64.7114 97.0914C64.0455 97.7948 63.3608 98.4821 62.647 99.1362C62.2858 99.4668 61.8085 99.4769 61.382 99.2464C61.0759 99.081 60.7886 98.8592 60.5405 98.6126C58.6096 96.6984 56.6787 94.7842 54.7768 92.8395C54.3865 92.4407 54.0601 92.3581 53.5379 92.5451C51.8681 93.1412 50.1823 93.6937 48.4951 94.236C48.0207 94.3883 47.7523 94.6464 47.6015 95.1279C47.0545 96.871 47.0777 98.6112 47.5144 100.369C47.6276 100.823 47.9076 101.026 48.3297 101.146C49.5846 101.501 50.5131 102.271 51.031 103.469C51.2326 103.936 51.3806 104.461 51.3995 104.966C51.4517 106.312 51.4314 107.66 51.4183 109.007C51.4111 109.814 51.0194 110.372 50.2418 110.575C49.7732 110.697 49.2611 110.709 48.7736 110.684C48.3138 110.661 47.954 110.242 47.9395 109.851C47.9235 109.441 48.3051 109.041 48.794 108.954C48.8404 108.945 48.8883 108.945 48.9347 108.941C49.7369 108.857 49.7398 108.857 49.7427 108.071C49.7456 107.173 49.7529 106.274 49.7413 105.376C49.7224 103.916 48.8505 102.911 47.4259 102.685C46.1232 102.479 44.6594 103.587 44.61 104.882C44.5636 106.109 44.6042 107.34 44.6086 108.568C44.6086 108.636 44.642 108.704 44.6753 108.836C44.8291 108.867 45.009 108.894 45.1831 108.938C45.4312 109 45.7039 109.029 45.9186 109.152C46.4394 109.454 46.4322 110.173 45.9302 110.507C44.7754 111.273 42.9098 110.452 42.83 109.076C42.7488 107.686 42.7154 106.278 42.8416 104.895C42.9896 103.255 43.8905 102.042 45.4123 101.335C45.8997 101.108 45.9302 101.071 45.8098 100.586C45.392 98.9056 45.363 97.2234 45.73 95.5325C45.7445 95.4672 45.7213 95.3947 45.7141 95.2845C45.598 95.2845 45.4761 95.2526 45.3818 95.2889C44.5665 95.6021 43.712 95.8472 42.9533 96.2648C40.841 97.4264 39.6747 99.2522 39.6398 101.67C39.5862 105.546 39.6268 109.425 39.621 113.301C39.621 113.629 39.5963 113.966 39.5165 114.28C39.415 114.685 39.1161 114.894 38.7534 114.905C38.3821 114.917 38.0194 114.666 37.9048 114.273C37.8467 114.073 37.8366 113.854 37.8351 113.644C37.8322 109.743 37.7655 105.84 37.8554 101.942C37.9309 98.6605 39.4962 96.1851 42.3861 94.5913C42.7966 94.3651 43.2551 94.2201 43.7019 94.0664C44.7972 93.6893 45.8983 93.3311 46.9965 92.9599C47.2156 92.8903 47.4259 92.796 47.7074 92.6858ZM74.1513 73.719C74.1513 72.7822 74.1513 72.1442 74.1513 71.5046C74.1499 70.3938 74.1919 70.5432 73.2141 70.2879C72.232 70.0327 71.2397 69.8065 70.2706 69.5092C67.4576 68.6463 64.7897 67.45 62.2843 65.9012C61.9463 65.6923 61.7011 65.7272 61.3907 65.9548C58.6082 67.9996 55.5181 69.3671 52.1451 70.0965C51.4546 70.2459 50.751 70.3416 50.0532 70.4605C49.5701 70.5417 49.4337 70.636 49.4424 71.0754C49.4758 72.8446 49.3235 74.6167 49.5454 76.3844C49.9661 79.7227 51.427 82.4868 54.0267 84.6374C56.7498 86.8895 59.9051 87.6885 63.3666 87.3274C65.5992 87.0939 67.6056 86.2412 69.3711 84.8302C71.5879 83.0596 73.0778 80.8249 73.764 78.0652C74.147 76.5382 74.1934 74.9821 74.1513 73.719ZM45.7793 75.7986C45.7634 76.0915 45.7373 76.3656 45.7373 76.6411C45.7344 79.6154 45.7082 82.5897 45.7431 85.564C45.775 88.2744 47.0603 90.2713 49.3728 91.6417C49.7674 91.8752 50.1446 91.9042 50.5842 91.7446C51.5823 91.3821 52.5876 91.0326 53.606 90.7324C55.0278 90.3133 55.4934 89.8623 55.4296 88.0888C55.4165 87.7088 55.2715 87.4956 54.9465 87.31C53.4813 86.4733 52.1843 85.4393 51.1021 84.124C49.7137 82.436 48.7156 80.5653 48.1948 78.4437C48.0599 77.8955 47.9859 77.3329 47.8713 76.7803C47.8205 76.5324 47.8104 76.2336 47.4927 76.1582C46.9472 76.0321 46.3988 75.9276 45.7793 75.7986ZM77.7926 75.7391C77.4503 75.8493 77.1906 75.9508 76.9207 76.0147C76.6466 76.0799 76.3579 76.0886 76.088 76.1669C75.9749 76.2003 75.8588 76.3337 75.8095 76.4497C75.7384 76.6208 75.7166 76.8137 75.6891 77.0008C75.0566 81.3919 72.8021 84.7273 69.0795 87.0882C68.0669 87.7306 68.1714 87.5551 68.1612 88.766C68.1612 88.7892 68.1612 88.8139 68.1627 88.8371C68.2077 89.7144 68.5877 90.2452 69.4161 90.5308C70.6449 90.9543 71.8838 91.3531 73.1126 91.7765C73.4477 91.8926 73.7495 91.8911 74.0628 91.7156C76.3883 90.4163 77.7549 88.4658 77.826 85.7873C77.9073 82.6927 77.8463 79.5937 77.8434 76.4976C77.8463 76.2684 77.8159 76.0408 77.7926 75.7391ZM78.9895 105.84C79.1302 104.006 77.5692 102.662 75.84 102.67C74.2978 102.677 72.747 103.849 72.7441 105.805C72.7412 107.74 74.2456 108.933 75.8719 108.958C77.3516 108.98 79.152 107.673 78.9895 105.84ZM47.6943 70.6969C46.4365 70.694 45.6879 71.4669 45.7373 72.6401C45.7822 73.7002 46.5787 74.4267 47.7204 74.3484C47.7668 73.1346 47.8147 71.915 47.6943 70.6969ZM75.9836 74.3644C77.1006 74.3948 77.8405 73.6175 77.855 72.4777C77.8666 71.4901 76.9062 70.5026 75.9517 70.7099C75.7529 71.3509 75.7761 73.8554 75.9836 74.3644Z" fill="white" stroke="white" stroke-width="0.75" stroke-miterlimit="10"/>
<path d="M62.6139 102.918C62.6023 103.401 62.2207 103.777 61.7608 103.758C61.3024 103.739 60.947 103.333 60.9687 102.857C60.9905 102.416 61.3532 102.1 61.8218 102.115C62.2874 102.126 62.6255 102.47 62.6139 102.918Z" fill="white" stroke="white" stroke-width="0.75" stroke-miterlimit="10"/>
<path d="M62.6144 108.519C62.6187 108.964 62.2749 109.3 61.8078 109.308C61.3392 109.315 60.9838 108.994 60.9693 108.551C60.9533 108.072 61.3145 107.676 61.7759 107.666C62.2372 107.657 62.61 108.036 62.6144 108.519Z" fill="white" stroke="white" stroke-width="0.75" stroke-miterlimit="10"/>
<path d="M62.6149 114.067C62.6163 114.485 62.155 114.953 61.7633 114.933C61.3876 114.912 60.9727 114.469 60.9669 114.082C60.9611 113.635 61.3847 113.216 61.8184 113.236C62.2464 113.255 62.6134 113.639 62.6149 114.067Z" fill="white" stroke="white" stroke-width="0.75" stroke-miterlimit="10"/>
<path d="M61.7429 82.4982C60.9363 82.5142 60.2095 82.2691 59.5465 81.8195C59.2462 81.6151 59.0968 81.3366 59.1243 80.977C59.1635 80.4622 59.6916 80.1388 60.2312 80.3099C60.4764 80.3882 60.7071 80.5173 60.9435 80.6232C61.6486 80.9364 62.3275 80.8233 62.992 80.4941C63.0979 80.4419 63.1936 80.3665 63.3024 80.3259C63.7246 80.1721 64.1482 80.3099 64.3586 80.6623C64.5602 81.0002 64.4761 81.4614 64.1308 81.7441C63.5418 82.2256 62.8338 82.404 62.0969 82.4968C61.9808 82.5098 61.8619 82.4982 61.7429 82.4982Z" fill="white" stroke="white" stroke-width="0.75" stroke-miterlimit="10"/>
<path d="M56.6554 73.4956C56.6554 73.7784 56.6772 74.0626 56.6482 74.3411C56.6264 74.5455 56.5698 74.7616 56.4683 74.9371C56.3087 75.217 56.0461 75.3953 55.711 75.3634C55.3875 75.333 55.1365 75.1517 55.0176 74.8385C54.9523 74.6645 54.8899 74.4774 54.8841 74.2947C54.8667 73.7305 54.8768 73.1664 54.8783 72.6009C54.8783 72.5545 54.8841 72.5066 54.8913 72.4602C54.9871 71.8743 55.3237 71.5379 55.7922 71.5539C56.2652 71.5713 56.6046 71.9352 56.6482 72.5066C56.6728 72.8343 56.6525 73.165 56.6525 73.4942C56.654 73.4956 56.654 73.4956 56.6554 73.4956Z" fill="white" stroke="white" stroke-width="0.75" stroke-miterlimit="10"/>
<path d="M66.9541 73.4361C66.9541 73.0605 66.9033 72.6762 66.9657 72.3108C67.0745 71.6669 67.7491 71.3377 68.2409 71.693C68.4454 71.8395 68.6384 72.1382 68.6572 72.3818C68.7138 73.0808 68.679 73.7885 68.679 74.4933C68.679 74.5382 68.6587 74.5846 68.6456 74.6296C68.515 75.0777 68.1814 75.3764 67.8158 75.375C67.4328 75.3721 67.0208 75.0182 66.9628 74.5643C66.9149 74.1945 66.9526 73.8131 66.9526 73.4376C66.9526 73.4361 66.9541 73.4361 66.9541 73.4361Z" fill="white" stroke="white" stroke-width="0.75" stroke-miterlimit="10"/>
<path fill-rule="evenodd" clip-rule="evenodd" d="M49.7705 3.84432C48.1229 3.84432 46.75 5.2173 46.75 6.86486V24.027C46.75 25.6746 48.0886 27.0476 49.7705 27.0476H66.9327C68.5802 27.0476 69.9532 25.7089 69.9532 24.027V6.86486C69.9532 5.2173 68.6146 3.84432 66.9327 3.84432H49.7705ZM44.21 6.86486C44.21 3.77567 46.6813 1.30432 49.7705 1.30432H66.9327C70.0219 1.30432 72.4932 3.77567 72.4932 6.86486V24.027C72.4932 27.1162 70.0219 29.5876 66.9327 29.5876H49.7705C46.6813 29.5876 44.21 27.1162 44.21 24.027V6.86486Z" fill="white" stroke="white" stroke-width="0.75" stroke-miterlimit="10"/>
<path fill-rule="evenodd" clip-rule="evenodd" d="M71.8756 9.40501L79.0151 5.28609C79.3926 5.04582 79.9075 5.18311 80.1478 5.56068C80.2164 5.69798 80.2507 5.83528 80.2507 5.97257V24.9883C80.2507 25.5718 79.5986 25.9837 79.0151 25.6747L71.8756 21.5558L70.5713 23.7183L77.7107 27.8372C79.9075 29.1072 82.8251 27.5969 82.8251 24.9196V5.93825C82.8251 3.29527 79.9418 1.75068 77.7107 3.02068L70.6056 7.1396L71.8756 9.40501Z" fill="white" stroke="white" stroke-width="0.75" stroke-miterlimit="10"/>
</svg>
