<svg width="137" height="116" viewBox="0 0 137 116" fill="none" xmlns="http://www.w3.org/2000/svg">
<path d="M1.93601 93.5089C3.00469 93.5089 3.87203 92.6478 3.87203 91.5866V35.5987H118.259V56.7287C118.259 57.7898 119.127 58.651 120.195 58.651C121.264 58.651 122.131 57.7898 122.131 56.7287V18.7387C122.131 12.2951 116.85 7.05104 110.36 7.05104H105.283V4.66994C105.283 2.09404 103.174 0 100.58 0H96.9839C94.3922 0 92.2833 2.09404 92.2833 4.66994V7.05104H79.4436V4.66994C79.4411 2.09404 77.3321 0 74.7404 0H71.142C68.5503 0 66.4414 2.09404 66.4414 4.66994V7.05104H53.5992V4.66994C53.5992 2.09404 51.4902 0 48.8959 0H45.3001C42.7059 0 40.5969 2.09404 40.5969 4.66994V7.05104H27.7573V4.66994C27.7573 2.09404 25.6483 0 23.054 0H19.4582C16.8665 0 14.755 2.09404 14.755 4.66994V7.05104H11.771C5.28144 7.05104 0 12.2925 0 18.7387V91.5866C0 92.6503 0.867334 93.5089 1.93601 93.5089ZM96.1553 4.66994C96.1553 4.21627 96.5296 3.84462 96.9865 3.84462H100.582C101.039 3.84462 101.411 4.21627 101.411 4.66994V14.0098C101.411 14.4635 101.039 14.8351 100.582 14.8351H96.9865C96.5296 14.8351 96.1553 14.466 96.1553 14.0098V4.66994ZM70.3134 4.66994C70.3134 4.21627 70.6851 3.84462 71.142 3.84462H74.7378C75.1947 3.84462 75.569 4.21627 75.569 4.66994V14.0098C75.569 14.4635 75.1947 14.8351 74.7378 14.8351H71.142C70.6851 14.8351 70.3134 14.466 70.3134 14.0098V4.66994ZM44.4689 4.66994C44.4689 4.21627 44.8432 3.84462 45.3001 3.84462H48.8959C49.3528 3.84462 49.7271 4.21627 49.7271 4.66994V14.0098C49.7271 14.4635 49.3528 14.8351 48.8959 14.8351H45.3001C44.8432 14.8351 44.4689 14.466 44.4689 14.0098V4.66994ZM18.627 4.66994C18.627 4.21627 19.0013 3.84462 19.4582 3.84462H23.054C23.5109 3.84462 23.8827 4.21627 23.8827 4.66994V14.0098C23.8827 14.4635 23.5109 14.8351 23.054 14.8351H19.4582C19.0013 14.8351 18.627 14.466 18.627 14.0098V4.66994ZM11.771 10.8957H14.755V14.0098C14.755 16.5857 16.864 18.6797 19.4582 18.6797H23.054C25.6457 18.6797 27.7547 16.5857 27.7547 14.0098V10.8957H40.5969V14.0098C40.5969 16.5857 42.7059 18.6797 45.2975 18.6797H48.8934C51.4876 18.6797 53.5966 16.5857 53.5966 14.0098V10.8957H66.4362V14.0098C66.4362 16.5857 68.5452 18.6797 71.1394 18.6797H74.7352C77.3269 18.6797 79.4359 16.5857 79.4359 14.0098V10.8957H92.2755V14.0098C92.2755 16.5857 94.3845 18.6797 96.9787 18.6797H100.575C103.166 18.6797 105.275 16.5857 105.275 14.0098V10.8957H110.353C114.71 10.8957 118.252 14.4148 118.252 18.7387V31.754H3.87203V18.7387C3.87203 14.4122 7.41622 10.8957 11.771 10.8957Z" fill="white"/>
<path d="M21.9182 111.386H5.03621C4.39346 111.386 3.87203 110.869 3.87203 110.23V100.347C3.87203 99.2861 3.00469 98.4249 1.93601 98.4249C0.867334 98.4249 0 99.2861 0 100.347V110.23C0 112.988 2.25868 115.231 5.03621 115.231H21.9182C22.9869 115.231 23.8543 114.37 23.8543 113.309C23.8543 112.248 22.9869 111.386 21.9182 111.386Z" fill="white"/>
<path d="M21.8541 41.204H15.1245C14.0558 41.204 13.1885 42.0652 13.1885 43.1264C13.1885 44.1875 14.0558 45.0487 15.1245 45.0487H21.8541C22.9228 45.0487 23.7901 44.1875 23.7901 43.1264C23.7901 42.0652 22.9228 41.204 21.8541 41.204Z" fill="white"/>
<path d="M35.8061 45.0487H42.5357C43.6044 45.0487 44.4717 44.1875 44.4717 43.1264C44.4717 42.0652 43.6044 41.204 42.5357 41.204H35.8061C34.7375 41.204 33.8701 42.0652 33.8701 43.1264C33.8701 44.19 34.7375 45.0487 35.8061 45.0487Z" fill="white"/>
<path d="M56.4848 45.0487H63.2144C64.2831 45.0487 65.1504 44.1875 65.1504 43.1264C65.1504 42.0652 64.2831 41.204 63.2144 41.204H56.4848C55.4162 41.204 54.5488 42.0652 54.5488 43.1264C54.5488 44.19 55.4162 45.0487 56.4848 45.0487Z" fill="white"/>
<path d="M77.1675 45.0487H83.897C84.9657 45.0487 85.8331 44.1875 85.8331 43.1264C85.8331 42.0652 84.9657 41.204 83.897 41.204H77.1675C76.0988 41.204 75.2314 42.0652 75.2314 43.1264C75.2314 44.19 76.0988 45.0487 77.1675 45.0487Z" fill="white"/>
<path d="M104.576 41.204H97.8462C96.7775 41.204 95.9102 42.0652 95.9102 43.1264C95.9102 44.1875 96.7775 45.0487 97.8462 45.0487H104.576C105.644 45.0487 106.512 44.1875 106.512 43.1264C106.512 42.0652 105.644 41.204 104.576 41.204Z" fill="white"/>
<path d="M21.8541 50.872H15.1245C14.0558 50.872 13.1885 51.7332 13.1885 52.7944C13.1885 53.8555 14.0558 54.7167 15.1245 54.7167H21.8541C22.9228 54.7167 23.7901 53.8555 23.7901 52.7944C23.7901 51.7332 22.9228 50.872 21.8541 50.872Z" fill="white"/>
<path d="M35.8061 54.7167H42.5357C43.6044 54.7167 44.4717 53.8555 44.4717 52.7944C44.4717 51.7332 43.6044 50.872 42.5357 50.872H35.8061C34.7375 50.872 33.8701 51.7332 33.8701 52.7944C33.8701 53.8555 34.7375 54.7167 35.8061 54.7167Z" fill="white"/>
<path d="M56.4848 54.7167H63.2144C64.2831 54.7167 65.1504 53.8555 65.1504 52.7944C65.1504 51.7332 64.2831 50.872 63.2144 50.872H56.4848C55.4162 50.872 54.5488 51.7332 54.5488 52.7944C54.5488 53.8555 55.4162 54.7167 56.4848 54.7167Z" fill="white"/>
<path d="M77.1675 54.7167H83.897C84.9657 54.7167 85.8331 53.8555 85.8331 52.7944C85.8331 51.7332 84.9657 50.872 83.897 50.872H77.1675C76.0988 50.872 75.2314 51.7332 75.2314 52.7944C75.2314 53.8555 76.0988 54.7167 77.1675 54.7167Z" fill="white"/>
<path d="M104.576 50.872H97.8462C96.7775 50.872 95.9102 51.7332 95.9102 52.7944C95.9102 53.8555 96.7775 54.7167 97.8462 54.7167H104.576C105.644 54.7167 106.512 53.8555 106.512 52.7944C106.512 51.7332 105.644 50.872 104.576 50.872Z" fill="white"/>
<path d="M85.4421 115.026C85.8912 115.026 86.2914 115.105 86.6424 115.239C86.9806 115 87.2903 114.703 87.6001 114.324C87.7472 114.157 87.7421 114.16 87.5846 114.331C87.6827 114.185 87.7679 114.034 87.8531 113.88C87.7885 113.962 87.9873 113.46 88.0802 113.191C88.0647 113.165 88.0751 112.891 88.0854 112.642C87.8324 112.248 87.5872 111.848 87.36 111.435H82.3445C82.138 111.435 81.9469 111.414 81.7611 111.386H30.7407C29.672 111.386 28.8047 112.247 28.8047 113.309C28.8047 114.37 29.672 115.231 30.7407 115.231H84.2598C84.6057 115.1 84.9981 115.026 85.4421 115.026Z" fill="white"/>
<path d="M135.614 88.0957H129.406C131.987 82.2775 131.708 77.5692 130.73 74.3807C129.055 68.7009 123.407 62.5367 115.035 62.5367C112.802 62.5367 110.572 62.9519 108.27 63.7823C104.294 65.2356 101.643 66.8298 100.456 67.6603C99.271 66.8298 96.6896 65.2356 92.6421 63.7823C90.3395 62.9519 88.0369 62.5367 85.8763 62.5367C77.505 62.5367 71.8544 68.7009 70.1817 74.3807C69.206 77.7742 68.8575 82.9004 72.1358 89.3414H64.6034C63.9762 89.3414 63.4883 89.8258 63.4883 90.4487C63.4883 91.0715 63.9762 91.5559 64.6034 91.5559H73.4626C73.8111 92.1787 74.2293 92.8016 74.7172 93.427C81.9708 103.815 97.7376 115.106 100.598 115.798V115.867C100.598 115.867 100.667 115.867 100.737 115.798C100.807 115.798 100.877 115.798 100.946 115.798V115.728C103.388 114.552 118.525 104.853 126.476 93.3578C127.242 92.3197 127.87 91.2791 128.43 90.241H135.753C136.38 90.241 136.868 89.7566 136.868 89.1338C136.871 88.5135 136.244 88.0957 135.614 88.0957ZM124.455 92.1839C117.062 102.921 103.458 111.576 100.528 113.447C97.5285 111.576 83.9971 102.849 76.5318 92.1839C76.3925 91.9763 76.2531 91.7686 76.1137 91.561H86.3668C86.785 91.561 87.2031 91.3534 87.4122 90.9382L92.0871 81.7957L99.4103 100.427C99.5497 100.842 100.038 101.119 100.456 101.119C100.456 101.119 100.456 101.119 100.525 101.119C101.013 101.119 101.432 100.773 101.571 100.288L107.988 78.4714L111.406 89.4849C111.545 89.9002 111.894 90.177 112.312 90.2462C112.73 90.3154 113.148 90.1078 113.427 89.7617L116.148 85.8146L118.45 89.6925C118.659 90.0386 119.008 90.2462 119.426 90.2462H125.704C125.291 90.9356 124.873 91.561 124.455 92.1839ZM126.966 88.0957H120.131L117.271 83.2464C117.062 82.9004 116.713 82.6928 116.295 82.6928C115.877 82.6928 115.528 82.8312 115.319 83.1772L112.947 86.6399L109.111 74.2423C108.972 73.7579 108.484 73.481 107.996 73.4118C107.508 73.4118 107.02 73.7579 106.881 74.2423L100.394 96.4745L93.3493 78.6046C93.2099 78.1894 92.7918 77.9126 92.3736 77.9126C91.8857 77.9126 91.5372 78.1202 91.3281 78.5354L85.817 89.2722H74.7249C71.9345 84.2152 71.1678 79.3685 72.4223 75.0035C73.886 70.085 78.7002 64.823 85.9538 64.823C87.9079 64.823 89.9291 65.2382 91.9528 65.9302C97.0458 67.8013 99.7666 69.9466 99.8363 69.9466C100.254 70.2926 100.812 70.2926 101.23 69.9466C101.23 69.9466 103.951 67.7987 109.114 65.9302C111.137 65.169 113.159 64.823 115.113 64.823C122.297 64.823 127.181 70.0875 128.644 75.0035C129.826 79.0224 129.197 83.4566 126.966 88.0957Z" fill="white" stroke="white" stroke-miterlimit="10"/>
</svg>
