<svg width="80" height="68" viewBox="0 0 80 68" fill="none" xmlns="http://www.w3.org/2000/svg">
<path d="M1.13052 54.8156C1.75456 54.8156 2.26104 54.3108 2.26104 53.6887V20.8682H69.0566V33.2548C69.0566 33.8768 69.5631 34.3816 70.1871 34.3816C70.8111 34.3816 71.3176 33.8768 71.3176 33.2548V10.9848C71.3176 7.20748 68.2336 4.13337 64.4441 4.13337H61.4791V2.73755C61.4791 1.22754 60.2476 0 58.7327 0H56.6329C55.1196 0 53.888 1.22754 53.888 2.73755V4.13337H46.3904V2.73755C46.3889 1.22754 45.1574 0 43.644 0H41.5428C40.0294 0 38.7979 1.22754 38.7979 2.73755V4.13337H31.2988V2.73755C31.2988 1.22754 30.0673 0 28.5524 0H26.4526C24.9377 0 23.7062 1.22754 23.7062 2.73755V4.13337H16.2086V2.73755C16.2086 1.22754 14.9771 0 13.4622 0H11.3625C9.84908 0 8.61606 1.22754 8.61606 2.73755V4.13337H6.87355C3.08405 4.13337 0 7.20598 0 10.9848V53.6887C0 54.3123 0.506472 54.8156 1.13052 54.8156ZM56.1491 2.73755C56.1491 2.47161 56.3676 2.25375 56.6344 2.25375H58.7342C59.001 2.25375 59.2181 2.47161 59.2181 2.73755V8.21265C59.2181 8.47859 59.001 8.69645 58.7342 8.69645H56.6344C56.3676 8.69645 56.1491 8.48009 56.1491 8.21265V2.73755ZM41.0589 2.73755C41.0589 2.47161 41.276 2.25375 41.5428 2.25375H43.6425C43.9093 2.25375 44.1279 2.47161 44.1279 2.73755V8.21265C44.1279 8.47859 43.9093 8.69645 43.6425 8.69645H41.5428C41.276 8.69645 41.0589 8.48009 41.0589 8.21265V2.73755ZM25.9673 2.73755C25.9673 2.47161 26.1858 2.25375 26.4526 2.25375H28.5524C28.8192 2.25375 29.0377 2.47161 29.0377 2.73755V8.21265C29.0377 8.47859 28.8192 8.69645 28.5524 8.69645H26.4526C26.1858 8.69645 25.9673 8.48009 25.9673 8.21265V2.73755ZM10.8771 2.73755C10.8771 2.47161 11.0957 2.25375 11.3625 2.25375H13.4622C13.729 2.25375 13.9461 2.47161 13.9461 2.73755V8.21265C13.9461 8.47859 13.729 8.69645 13.4622 8.69645H11.3625C11.0957 8.69645 10.8771 8.48009 10.8771 8.21265V2.73755ZM6.87355 6.38711H8.61606V8.21265C8.61606 9.72266 9.84757 10.9502 11.3625 10.9502H13.4622C14.9756 10.9502 16.2071 9.72266 16.2071 8.21265V6.38711H23.7062V8.21265C23.7062 9.72266 24.9377 10.9502 26.4511 10.9502H28.5509C30.0658 10.9502 31.2973 9.72266 31.2973 8.21265V6.38711H38.7949V8.21265C38.7949 9.72266 40.0264 10.9502 41.5413 10.9502H43.641C45.1544 10.9502 46.3859 9.72266 46.3859 8.21265V6.38711H53.8835V8.21265C53.8835 9.72266 55.115 10.9502 56.6299 10.9502H58.7297C60.2431 10.9502 61.4746 9.72266 61.4746 8.21265V6.38711H64.4395C66.984 6.38711 69.0521 8.45004 69.0521 10.9848V18.6144H2.26104V10.9848C2.26104 8.44854 4.33064 6.38711 6.87355 6.38711Z" fill="#497DF9"/>
<path d="M12.799 65.2954H2.94086C2.56552 65.2954 2.26104 64.9919 2.26104 64.6178V58.8241C2.26104 58.2021 1.75456 57.6973 1.13052 57.6973C0.506472 57.6973 0 58.2021 0 58.8241V64.6178C0 66.2344 1.31894 67.5491 2.94086 67.5491H12.799C13.423 67.5491 13.9295 67.0443 13.9295 66.4223C13.9295 65.8002 13.423 65.2954 12.799 65.2954Z" fill="#497DF9"/>
<path d="M19.7614 25.1543H15.8317C15.2076 25.1543 14.7012 25.6591 14.7012 26.2812C14.7012 26.9032 15.2076 27.408 15.8317 27.408H19.7614C20.3854 27.408 20.8919 26.9032 20.8919 26.2812C20.8919 25.6591 20.3854 25.1543 19.7614 25.1543Z" fill="#497DF9"/>
<path d="M27.9088 27.408H31.8385C32.4626 27.408 32.969 26.9032 32.969 26.2812C32.969 25.6591 32.4626 25.1543 31.8385 25.1543H27.9088C27.2848 25.1543 26.7783 25.6591 26.7783 26.2812C26.7783 26.9047 27.2848 27.408 27.9088 27.408Z" fill="#497DF9"/>
<path d="M39.984 27.408H43.9137C44.5378 27.408 45.0442 26.9032 45.0442 26.2812C45.0442 25.6591 44.5378 25.1543 43.9137 25.1543H39.984C39.36 25.1543 38.8535 25.6591 38.8535 26.2812C38.8535 26.9047 39.36 27.408 39.984 27.408Z" fill="#497DF9"/>
<path d="M52.0612 27.408H55.9909C56.6149 27.408 57.1214 26.9032 57.1214 26.2812C57.1214 25.6591 56.6149 25.1543 55.9909 25.1543H52.0612C51.4371 25.1543 50.9307 25.6591 50.9307 26.2812C50.9307 26.9047 51.4371 27.408 52.0612 27.408Z" fill="#497DF9"/>
<path d="M19.7614 30.8215H15.8317C15.2076 30.8215 14.7012 31.3264 14.7012 31.9484C14.7012 32.5704 15.2076 33.0753 15.8317 33.0753H19.7614C20.3854 33.0753 20.8919 32.5704 20.8919 31.9484C20.8919 31.3264 20.3854 30.8215 19.7614 30.8215Z" fill="#497DF9"/>
<path d="M27.9088 33.0753H31.8385C32.4626 33.0753 32.969 32.5704 32.969 31.9484C32.969 31.3264 32.4626 30.8215 31.8385 30.8215H27.9088C27.2848 30.8215 26.7783 31.3264 26.7783 31.9484C26.7783 32.5704 27.2848 33.0753 27.9088 33.0753Z" fill="#497DF9"/>
<path d="M39.984 33.0753H43.9137C44.5378 33.0753 45.0442 32.5704 45.0442 31.9484C45.0442 31.3264 44.5378 30.8215 43.9137 30.8215H39.984C39.36 30.8215 38.8535 31.3264 38.8535 31.9484C38.8535 32.5704 39.36 33.0753 39.984 33.0753Z" fill="#497DF9"/>
<path d="M52.0612 33.0753H55.9909C56.6149 33.0753 57.1214 32.5704 57.1214 31.9484C57.1214 31.3264 56.6149 30.8215 55.9909 30.8215H52.0612C51.4371 30.8215 50.9307 31.3264 50.9307 31.9484C50.9307 32.5704 51.4371 33.0753 52.0612 33.0753Z" fill="#497DF9"/>
<path d="M49.8937 67.429C50.156 67.429 50.3897 67.4756 50.5947 67.5537C50.7921 67.4139 50.973 67.2397 51.1539 67.0173C51.2398 66.9196 51.2368 66.9211 51.1448 67.0218C51.2021 66.9362 51.2519 66.8475 51.3016 66.7574C51.2639 66.8054 51.38 66.5109 51.4343 66.3532C51.4252 66.3382 51.4312 66.1774 51.4373 66.0316C51.2896 65.8003 51.1464 65.5659 51.0137 65.324H48.0849C47.9643 65.324 47.8528 65.3119 47.7442 65.2954H17.9513C17.3273 65.2954 16.8208 65.8003 16.8208 66.4223C16.8208 67.0443 17.3273 67.5492 17.9513 67.5492H49.2034C49.4054 67.4725 49.6345 67.429 49.8937 67.429Z" fill="#497DF9"/>
<path d="M79.1903 51.6423H75.5651C77.0725 48.2317 76.9097 45.4716 76.3384 43.6025C75.3601 40.2729 72.062 36.6594 67.1737 36.6594C65.8698 36.6594 64.5674 36.9028 63.2229 37.3896C60.9016 38.2416 59.3535 39.1761 58.6601 39.6629C57.9682 39.1761 56.4609 38.2416 54.0973 37.3896C52.7528 36.9028 51.4082 36.6594 50.1466 36.6594C45.2582 36.6594 41.9586 40.2729 40.9818 43.6025C40.412 45.5918 40.2085 48.5968 42.1229 52.3725H37.7244C37.3581 52.3725 37.0732 52.6565 37.0732 53.0216C37.0732 53.3867 37.3581 53.6707 37.7244 53.6707H42.8977C43.1012 54.0358 43.3454 54.4009 43.6303 54.7675C47.8659 60.8571 57.0729 67.4756 58.743 67.8813V67.9219C58.743 67.9219 58.7837 67.9219 58.8244 67.8813C58.8651 67.8813 58.9058 67.8813 58.9465 67.8813V67.8407C60.3725 67.1511 69.2116 61.4656 73.8543 54.7269C74.302 54.1184 74.6683 53.5084 74.9953 52.8999H79.2717C79.638 52.8999 79.9229 52.6159 79.9229 52.2508C79.9244 51.8872 79.5581 51.6423 79.1903 51.6423ZM72.674 54.0388C68.3569 60.3328 60.4132 65.4067 58.7023 66.5035C56.9508 65.4067 49.0492 60.2907 44.6899 54.0388C44.6085 53.9171 44.5271 53.7954 44.4457 53.6737H50.433C50.6771 53.6737 50.9213 53.552 51.0434 53.3086L53.7733 47.9492L58.0496 58.8708C58.131 59.1142 58.4159 59.2765 58.6601 59.2765C58.6601 59.2765 58.6601 59.2765 58.7008 59.2765C58.9857 59.2765 59.2299 59.0737 59.3113 58.7897L63.0586 46.0004L65.0543 52.4567C65.1357 52.7001 65.3392 52.8624 65.5834 52.9029C65.8276 52.9435 66.0718 52.8218 66.2346 52.6189L67.8233 50.3051L69.1679 52.5784C69.29 52.7812 69.4935 52.9029 69.7377 52.9029H73.4036C73.1624 53.3071 72.9182 53.6737 72.674 54.0388ZM74.1407 51.6423H70.1492L68.479 48.7996C68.3569 48.5968 68.1535 48.4751 67.9093 48.4751C67.6651 48.4751 67.4616 48.5562 67.3395 48.759L65.9542 50.7889L63.7143 43.5213C63.6329 43.2374 63.348 43.0751 63.0631 43.0345C62.7782 43.0345 62.4933 43.2374 62.4119 43.5213L58.6239 56.554L54.5104 46.0786C54.429 45.8352 54.1848 45.6729 53.9406 45.6729C53.6557 45.6729 53.4522 45.7946 53.3301 46.038L50.1119 52.332H43.6348C42.0053 49.3675 41.5576 46.5263 42.2902 43.9676C43.1449 41.0843 45.9561 37.9997 50.1918 37.9997C51.3328 37.9997 52.5131 38.2431 53.6949 38.6487C56.6689 39.7456 58.2577 41.0031 58.2983 41.0031C58.5425 41.206 58.8681 41.206 59.1123 41.0031C59.1123 41.0031 60.7011 39.7441 63.7158 38.6487C64.8976 38.2025 66.0778 37.9997 67.2189 37.9997C71.4139 37.9997 74.2658 41.0858 75.1205 43.9676C75.8108 46.3235 75.443 48.9228 74.1407 51.6423Z" fill="#497DF9" stroke="#497DF9" stroke-miterlimit="10"/>
</svg>
