<svg width="73" height="61" viewBox="0 0 73 61" fill="none" xmlns="http://www.w3.org/2000/svg">
<path d="M0.4427 14.0841C0.665122 14.6195 1.21975 14.9745 1.80575 14.9534C2.39602 14.9336 2.91643 14.5462 3.10891 13.9981C3.30139 13.4514 3.11461 12.8231 2.66407 12.4567C2.19213 12.0721 1.50206 12.034 0.987348 12.3609C0.41561 12.7244 0.181782 13.4627 0.4427 14.0841Z" fill="#497DF9"/>
<path d="M59.1775 24.8819C59.3172 24.5254 59.4456 24.1703 59.5625 23.8181C60.3495 21.4455 60.6703 19.0334 60.5463 16.4437C60.3381 12.1549 58.3292 8.03095 54.8888 4.83266C51.5867 1.76117 47.3906 0 43.377 0C37.3973 0 32.7236 3.29833 30.4708 5.2652C30.3026 5.41173 30.0588 5.41455 29.8905 5.27225C27.5537 3.30255 22.7773 0 17.0314 0C12.2836 0 7.22774 2.53186 3.84008 6.60651C3.33963 7.20813 3.42803 8.09576 4.03684 8.58889C4.64565 9.08343 5.54389 8.99607 6.04291 8.39446C8.90303 4.95524 13.1148 2.81788 17.0314 2.81788C21.8634 2.81788 26.0024 5.69916 28.0399 7.41524C29.2789 8.46068 31.1367 8.44377 32.3586 7.3772C34.3105 5.6752 38.3369 2.81788 43.377 2.81788C49.8215 2.81788 57.3154 8.70301 57.6961 16.579C57.8045 18.8192 57.5279 20.9002 56.8506 22.9403C56.6909 23.4236 56.5099 23.8998 56.3046 24.3817C55.7314 24.3281 55.1511 24.3 54.5651 24.3C44.4021 24.3 36.134 32.531 36.134 42.65C36.134 43.129 36.1526 43.6024 36.1882 44.0716C34.7781 45.2086 33.6318 46.1385 32.6737 46.9402C31.2265 48.1505 29.1277 48.1505 27.682 46.9388C26.3888 45.8553 24.7064 44.5013 22.9256 43.067C16.4982 37.8906 7.69397 30.8022 5.57526 27.2446C4.18227 24.9058 3.34961 22.7868 2.95467 20.5775C2.90905 20.3225 2.86912 20.0619 2.83491 19.8055C2.73368 19.0334 2.01793 18.4895 1.23803 18.5895C0.458128 18.6896 -0.0936496 19.3969 0.00758092 20.1675C0.0475028 20.4662 0.0931278 20.7692 0.147308 21.0665C0.602132 23.618 1.546 26.0358 3.11721 28.6747C5.49541 32.6677 14.1613 39.6461 21.1234 45.2523C22.8928 46.6781 24.5652 48.0237 25.8385 49.0888C27.096 50.1413 28.6373 50.6668 30.1785 50.6668C31.7184 50.6668 33.2597 50.1413 34.5158 49.0902C35.1559 48.5548 35.8859 47.9575 36.7257 47.2755C38.7903 55.1614 46.0047 60.9986 54.5637 60.9986C64.7267 60.9986 72.9948 52.7676 72.9948 42.6486C72.9976 34.116 67.1163 26.9248 59.1775 24.8819ZM54.5665 58.1821C45.9762 58.1821 38.987 51.2149 38.987 42.65C38.987 34.085 45.9762 27.1178 54.5665 27.1178C63.1569 27.1178 70.146 34.085 70.146 42.65C70.146 51.2149 63.1569 58.1821 54.5665 58.1821Z" fill="#497DF9"/>
<path d="M61.3987 37.809H59.4397V35.8435C59.4397 34.1147 58.0224 32.7086 56.2815 32.7086H52.8582C51.1174 32.7086 49.7001 34.1147 49.7001 35.8435V37.809H47.7411C46.0002 37.809 44.583 39.2151 44.583 40.9439V44.3577C44.583 46.0865 46.0002 47.4926 47.7411 47.4926H49.7001V49.4581C49.7001 51.1868 51.1174 52.593 52.8582 52.593H56.2815C58.0224 52.593 59.4397 51.1868 59.4397 49.4581V47.4926H61.3987C63.1396 47.4926 64.5568 46.0865 64.5568 44.3577V40.9439C64.5568 39.2151 63.1396 37.809 61.3987 37.809ZM61.7052 44.3563C61.7052 44.531 61.5683 44.6733 61.3987 44.6733H58.0139C57.2268 44.6733 56.5881 45.3045 56.5881 46.0823V49.4567C56.5881 49.6314 56.4512 49.7737 56.2815 49.7737H52.8582C52.6886 49.7737 52.5517 49.6314 52.5517 49.4567V46.0823C52.5517 45.3045 51.9129 44.6733 51.1259 44.6733H47.7411C47.5714 44.6733 47.4346 44.531 47.4346 44.3563V40.9439C47.4346 40.7692 47.5714 40.6269 47.7411 40.6269H51.1259C51.9129 40.6269 52.5517 39.9956 52.5517 39.2179V35.8435C52.5517 35.6688 52.6886 35.5265 52.8582 35.5265H56.2815C56.4498 35.5265 56.5881 35.6688 56.5881 35.8435V39.2179C56.5881 39.9956 57.2268 40.6269 58.0139 40.6269H61.3987C61.5683 40.6269 61.7052 40.7692 61.7052 40.9439V44.3563Z" fill="#497DF9"/>
</svg>
