<svg width="10" height="12" viewBox="0 0 10 12" fill="none" xmlns="http://www.w3.org/2000/svg">
<path d="M3.00012 4.12012C3.21012 4.12012 3.38012 4.29012 3.38012 4.50012V9.00012C3.38012 9.21012 3.21012 9.38012 3.00012 9.38012C2.79012 9.38012 2.62012 9.21012 2.62012 9.00012V4.50012C2.62012 4.29012 2.79012 4.12012 3.00012 4.12012ZM4.88012 4.12012C5.09012 4.12012 5.26012 4.29012 5.26012 4.50012V9.00012C5.26012 9.21012 5.09012 9.38012 4.88012 9.38012C4.67012 9.38012 4.50012 9.21012 4.50012 9.00012V4.50012C4.50012 4.29012 4.67012 4.12012 4.88012 4.12012ZM7.12012 4.50012C7.12012 4.29012 6.95012 4.12012 6.74012 4.12012C6.53012 4.12012 6.38012 4.29012 6.38012 4.50012V9.00012C6.38012 9.21012 6.55012 9.38012 6.76012 9.38012C6.97012 9.38012 7.12012 9.21012 7.12012 9.00012V4.50012Z" fill="#8E8E8E"/>
<path fill-rule="evenodd" clip-rule="evenodd" d="M9.75 2.25C9.75 2.66 9.41 3 9 3H8.62V9.75C8.62 10.58 7.95 11.25 7.12 11.25H2.62C1.79 11.25 1.12 10.58 1.12 9.75V3H0.75C0.34 3 0 2.66 0 2.25V1.5C0 1.09 0.34 0.75 0.75 0.75H3.37C3.38 0.34 3.71 0 4.12 0H5.62C6.03 0 6.37 0.34 6.37 0.75H9C9.41 0.75 9.75 1.09 9.75 1.5V2.25ZM1.96 3L1.88 3.04V9.75C1.88 10.16 2.22 10.5 2.63 10.5H7.13C7.54 10.5 7.88 10.16 7.88 9.75V3.04L7.79 3H1.96ZM0.75 2.25V1.5H9V2.25H0.75Z" fill="#8E8E8E"/>
</svg>
