<svg width="76" height="101" viewBox="0 0 76 101" fill="none" xmlns="http://www.w3.org/2000/svg">
<path d="M15.7374 65.5297C15.4965 65.2783 15.3658 65.103 15.2006 64.9738C12.4381 62.7872 10.754 59.9316 10.0863 56.4833C9.8867 55.4569 9.79951 54.3959 9.79493 53.3487C9.77198 45.188 9.74215 37.0297 9.79722 28.8691C9.82934 24.3113 10.6966 19.9058 12.7662 15.8024C13.7826 13.7864 14.9895 11.8881 16.4877 10.1905C17.0338 9.57233 17.6028 8.97724 18.1213 8.33832C18.6582 7.67403 19.7687 7.82165 20.1473 8.20685C20.5328 8.59896 20.6268 9.65306 20.028 10.2528C18.3049 11.9873 16.8548 13.9341 15.6686 16.0907C14.2071 18.7594 13.3077 21.6034 12.8603 24.6019C12.7272 25.49 12.6836 26.3918 12.6262 27.2914C12.6079 27.582 12.6721 27.8773 12.7111 28.3063C13.0874 28.2186 13.3926 28.1379 13.7 28.0779C14.3195 27.9557 14.939 27.755 15.5631 27.7435C19.9546 27.672 24.1488 26.7078 28.2167 25.0817C31.1215 23.9215 33.7944 22.3438 36.2954 20.4824C37.4127 19.6497 38.4842 19.6036 39.6177 20.3048C42.8459 22.3 46.2347 23.9676 49.7911 25.2685C52.7463 26.348 55.7818 27.1576 58.8838 27.6927C59.1385 27.7366 59.4069 27.7342 59.6662 27.7227C60.6872 27.6812 61.6807 27.7781 62.6352 28.1771C62.8004 28.2463 62.9885 28.2532 63.2065 28.2971C63.5736 27.5036 63.4313 26.7055 63.351 25.949C63.0275 22.902 62.2864 19.9496 60.9373 17.1932C59.9943 15.2696 58.815 13.4958 57.436 11.8397C55.8575 9.94369 54.0357 8.35447 52.0098 6.99359C48.7861 4.83003 45.2344 3.53374 41.3821 3.04475C36.9148 2.47733 32.5853 2.97324 28.4118 4.69164C27.7211 4.97534 27.0581 5.33055 26.3835 5.65347C26.1128 5.78264 25.8535 5.93488 25.5759 6.0479C24.8004 6.36159 24.0409 6.07788 23.6807 5.35823C23.4054 4.80927 23.6187 4.16343 24.2681 3.72518C24.7017 3.43225 25.1514 3.15315 25.6264 2.93864C29.0244 1.40016 32.5348 0.38758 36.2976 0.14539C39.8632 -0.0852666 43.3071 0.366821 46.673 1.43246C50.1283 2.52807 53.2281 4.30875 56.025 6.6453C57.9982 8.29449 59.6731 10.1928 61.153 12.2802C63.1973 15.1611 64.5464 18.3627 65.3839 21.7902C66.0561 24.5443 66.2351 27.3514 66.2397 30.17C66.2512 37.9154 66.2649 45.6632 66.2328 53.4087C66.219 56.8478 65.2967 60.0216 63.0826 62.7157C62.4447 63.493 61.6715 64.1596 60.9557 64.8723C60.7767 65.0499 60.5817 65.2114 60.2765 65.4858C60.6757 65.6635 60.9557 65.8157 61.2539 65.9172C63.0252 66.5215 64.8011 67.1074 66.5724 67.7094C70.7666 69.1371 73.7195 71.8912 75.1397 76.1307C75.5871 77.4639 75.8487 78.9216 75.867 80.3263C75.945 86.4918 75.9037 92.6595 75.8969 98.825C75.8969 99.1963 75.8693 99.5838 75.7615 99.9344C75.5802 100.516 75.041 100.878 74.4927 100.88C73.9214 100.882 73.4189 100.55 73.256 99.9252C73.1252 99.4247 73.0793 98.8896 73.077 98.3706C73.0656 92.2028 73.1023 86.0374 73.0541 79.8696C73.0265 76.3844 71.4388 73.6603 68.6259 71.6905C66.8913 70.4773 64.8676 69.9145 62.7224 69.3009C62.8531 70.9893 63.1124 72.5439 63.0527 74.087C62.9931 75.6486 62.6214 77.1963 62.369 78.8547C62.6994 79.0139 63.0619 79.1892 63.4244 79.3668C66.3108 80.7715 67.9743 83.1149 68.0018 86.3049C68.0362 90.1223 65.6317 93.0286 61.9468 93.9812C59.0398 94.7331 55.4583 93.1831 53.7994 90.5236C52.1704 87.9103 52.2163 84.4689 54.0885 81.9248C55.1531 80.4785 56.5206 79.3529 58.3354 78.977C59.1385 78.8109 59.5446 78.3865 59.7603 77.6092C60.5656 74.6983 60.4555 71.8174 59.5974 68.9411C59.4184 68.3437 59.0582 68.0046 58.4685 67.8109C55.9791 66.9943 53.4965 66.1663 51.0209 65.3082C50.4083 65.096 49.9494 65.186 49.5111 65.6588C48.9766 66.2355 48.4075 66.7821 47.8477 67.3357C47.6619 67.5202 47.4806 67.7186 47.2649 67.8616C46.7418 68.2076 46.0466 68.1292 45.6129 67.7071C45.1931 67.2988 45.0784 66.706 45.4064 66.1594C45.6336 65.7811 45.9709 65.4651 46.2714 65.1329C46.6408 64.7247 47.024 64.3279 47.4714 63.8528C45.9869 62.4896 45.2665 60.8566 45.3812 58.7668C42.7725 59.3596 40.3863 59.9616 37.9083 59.9339C35.4717 59.9063 33.113 59.3965 30.6259 58.6561C30.7291 60.7159 30.066 62.3443 28.8477 63.6844C29.3525 64.5148 37.1259 72.3894 38.2272 73.1944C38.8123 72.6131 39.4112 72.0088 40.0215 71.416C40.3174 71.13 40.6065 70.8232 40.9484 70.6064C41.5335 70.2328 42.1576 70.3296 42.582 70.7886C43.0203 71.2615 43.0983 72.0388 42.6302 72.537C41.5771 73.6557 40.4941 74.749 39.3653 75.7893C38.794 76.3152 38.0391 76.3313 37.3645 75.9646C36.8804 75.7016 36.4261 75.3487 36.0338 74.9566C32.9799 71.9119 29.9261 68.8673 26.9181 65.7742C26.3009 65.1399 25.7847 65.0084 24.9587 65.3059C22.3178 66.2539 19.6517 67.1327 16.9833 67.9954C16.233 68.2376 15.8086 68.6481 15.57 69.4139C14.705 72.1864 14.7417 74.9543 15.4323 77.7499C15.6113 78.4718 16.0541 78.7947 16.7217 78.9862C18.7064 79.5513 20.1748 80.7761 20.9939 82.6813C21.3129 83.424 21.5469 84.259 21.5767 85.0617C21.6593 87.2022 21.6272 89.3473 21.6065 91.4901C21.5951 92.7725 20.9756 93.6606 19.7458 93.9835C19.0047 94.1772 18.1948 94.1957 17.4238 94.1565C16.6965 94.1196 16.1275 93.453 16.1046 92.8325C16.0793 92.1798 16.6827 91.5431 17.456 91.4047C17.5294 91.3909 17.6051 91.3909 17.6785 91.384C18.9473 91.2502 18.9519 91.2502 18.9565 90.0001C18.9611 88.5723 18.9726 87.1422 18.9542 85.7144C18.9244 83.3917 17.5454 81.7933 15.2923 81.4335C13.232 81.1059 10.9169 82.8681 10.8389 84.9279C10.7655 86.8793 10.8297 88.8375 10.8366 90.7912C10.8366 90.8996 10.8894 91.008 10.9421 91.2179C11.1853 91.2664 11.4698 91.3102 11.7452 91.3794C12.1375 91.4786 12.5689 91.5247 12.9084 91.7207C13.7321 92.2005 13.7207 93.3446 12.9268 93.8751C11.1004 95.0929 8.14983 93.7874 8.02364 91.5985C7.89516 89.3888 7.84238 87.1491 8.042 84.9487C8.27603 82.3399 9.70086 80.4116 12.1077 79.286C12.8786 78.9262 12.9268 78.8662 12.7364 78.0958C12.0756 75.4225 12.0297 72.7469 12.6102 70.0575C12.6331 69.9537 12.5964 69.8383 12.5849 69.663C12.4014 69.663 12.2086 69.6123 12.0595 69.67C10.7701 70.1682 9.41864 70.558 8.21867 71.2223C4.87801 73.0698 3.0333 75.9738 2.97824 79.8189C2.89334 85.9843 2.95759 92.1544 2.94841 98.3198C2.94841 98.8411 2.9094 99.3763 2.78321 99.8768C2.6226 100.52 2.14995 100.852 1.57635 100.871C0.988984 100.889 0.415382 100.49 0.234123 99.8652C0.142347 99.5469 0.126286 99.1986 0.123992 98.8642C0.119403 92.6595 0.01386 86.4525 0.156113 80.2525C0.275423 75.0327 2.75109 71.0954 7.32155 68.5605C7.97087 68.2007 8.6959 67.97 9.40258 67.7255C11.1349 67.1258 12.8763 66.5561 14.6132 65.9656C14.9596 65.8549 15.2923 65.705 15.7374 65.5297ZM57.5599 35.3621C57.5599 33.872 57.5599 32.8571 57.5599 31.8399C57.5576 30.0731 57.6242 30.3107 56.0777 29.9047C54.5244 29.4988 52.9551 29.1389 51.4224 28.6661C46.9735 27.2937 42.7541 25.3908 38.7917 22.9274C38.2571 22.5952 37.8693 22.6506 37.3783 23.0127C32.9776 26.265 28.0905 28.4401 22.756 29.6003C21.6639 29.8378 20.5511 29.9901 19.4475 30.1792C18.6835 30.3084 18.4678 30.4583 18.4816 31.1572C18.5343 33.9712 18.2934 36.7898 18.6445 39.6015C19.3098 44.9113 21.6203 49.3076 25.7319 52.7282C30.0385 56.3103 35.0288 57.5812 40.5033 57.0069C44.0344 56.6355 47.2076 55.2793 49.9999 53.035C53.5057 50.2187 55.8621 46.6643 56.9473 42.2749C57.5531 39.846 57.6265 37.3711 57.5599 35.3621ZM12.6882 38.6697C12.6629 39.1356 12.6216 39.5716 12.6216 40.0098C12.617 44.7406 12.5757 49.4713 12.6308 54.2021C12.6813 58.5131 14.7141 61.6892 18.3714 63.8689C18.9955 64.2403 19.5921 64.2864 20.2873 64.0327C21.8658 63.4561 23.4558 62.9002 25.0665 62.4227C27.315 61.7561 28.0515 61.0388 27.9506 58.2178C27.9299 57.6135 27.7005 57.2745 27.1865 56.9792C24.8692 55.6483 22.818 54.0037 21.1064 51.9117C18.9106 49.2268 17.3321 46.2514 16.5084 42.8769C16.295 42.005 16.178 41.11 15.9967 40.2312C15.9164 39.8368 15.9003 39.3617 15.3979 39.2417C14.5352 39.041 13.6679 38.875 12.6882 38.6697ZM63.3189 38.5751C62.7774 38.7504 62.3667 38.9119 61.94 39.0134C61.5063 39.1172 61.0497 39.131 60.623 39.2556C60.444 39.3086 60.2605 39.5208 60.1824 39.7053C60.07 39.9775 60.0356 40.2843 59.992 40.5818C58.9916 47.5661 55.4261 52.8712 49.5387 56.6263C47.9372 57.6481 48.1024 57.369 48.0863 59.295C48.0863 59.3319 48.0863 59.3711 48.0886 59.408C48.1597 60.8035 48.7609 61.6477 50.071 62.1021C52.0143 62.7756 53.9738 63.4099 55.9171 64.0835C56.4471 64.268 56.9244 64.2657 57.42 63.9866C61.0979 61.9199 63.2593 58.8176 63.3717 54.5573C63.5002 49.6351 63.4038 44.706 63.3992 39.7815C63.4038 39.417 63.3556 39.0549 63.3189 38.5751ZM65.2118 86.4525C65.4343 83.5347 62.9656 81.3966 60.2306 81.4104C57.7917 81.4219 55.3389 83.2856 55.3344 86.3972C55.3298 89.4742 57.7091 91.3725 60.2811 91.4117C62.6214 91.4463 65.4688 89.368 65.2118 86.4525ZM15.7168 30.5552C13.7275 30.5506 12.5436 31.78 12.6216 33.646C12.6928 35.3321 13.9524 36.4877 15.7581 36.3631C15.8315 34.4325 15.9072 32.4927 15.7168 30.5552ZM60.4578 36.3885C62.2245 36.4369 63.3946 35.2006 63.4176 33.3876C63.4359 31.8169 61.917 30.2461 60.4073 30.5759C60.093 31.5954 60.1297 35.5789 60.4578 36.3885Z" fill="#497DF9" stroke="#497DF9" stroke-width="0.75" stroke-miterlimit="10"/>
<path d="M39.3124 81.8048C39.294 82.5729 38.6906 83.1703 37.9632 83.1403C37.2382 83.1103 36.6761 82.4645 36.7105 81.7079C36.7449 81.0067 37.3185 80.5039 38.0596 80.5269C38.7961 80.5454 39.3307 81.0921 39.3124 81.8048Z" fill="#497DF9" stroke="#497DF9" stroke-width="0.75" stroke-miterlimit="10"/>
<path d="M39.3146 90.7128C39.3215 91.421 38.7777 91.9561 38.0389 91.9676C37.2978 91.9792 36.7357 91.4694 36.7127 90.7636C36.6875 90.0024 37.2588 89.3727 37.9884 89.3566C38.718 89.3427 39.3077 89.9447 39.3146 90.7128Z" fill="#497DF9" stroke="#497DF9" stroke-width="0.75" stroke-miterlimit="10"/>
<path d="M39.3155 99.5378C39.3178 100.202 38.5882 100.947 37.9687 100.915C37.3745 100.883 36.7183 100.177 36.7091 99.5608C36.6999 98.8504 37.3699 98.1838 38.0559 98.2161C38.7328 98.2461 39.3132 98.8573 39.3155 99.5378Z" fill="#497DF9" stroke="#497DF9" stroke-width="0.75" stroke-miterlimit="10"/>
<path d="M37.9346 49.326C36.6589 49.3514 35.5094 48.9616 34.4609 48.2466C33.9859 47.9213 33.7496 47.4785 33.7932 46.9064C33.8551 46.0876 34.6903 45.5733 35.5438 45.8454C35.9316 45.97 36.2964 46.1753 36.6704 46.3436C37.7855 46.8419 38.8592 46.662 39.9101 46.1384C40.0776 46.0553 40.229 45.9354 40.4011 45.8708C41.0687 45.6263 41.7387 45.8454 42.0714 46.4059C42.3903 46.9434 42.2572 47.6768 41.7112 48.1266C40.7797 48.8924 39.66 49.1761 38.4944 49.3237C38.3109 49.3445 38.1227 49.326 37.9346 49.326Z" fill="#497DF9" stroke="#497DF9" stroke-width="0.75" stroke-miterlimit="10"/>
<path d="M29.8887 35.0069C29.8887 35.4567 29.9231 35.9087 29.8772 36.3516C29.8428 36.6768 29.7533 37.0205 29.5927 37.2996C29.3403 37.7448 28.925 38.0285 28.395 37.9777C27.8834 37.9293 27.4864 37.641 27.2983 37.1428C27.195 36.866 27.0964 36.5684 27.0872 36.2778C27.0597 35.3805 27.0757 34.4833 27.078 33.5837C27.078 33.5099 27.0872 33.4338 27.0987 33.36C27.2501 32.4282 27.7824 31.893 28.5235 31.9184C29.2715 31.9461 29.8084 32.525 29.8772 33.4338C29.9162 33.9551 29.8841 34.481 29.8841 35.0046C29.8864 35.0069 29.8864 35.0069 29.8887 35.0069Z" fill="#497DF9" stroke="#497DF9" stroke-width="0.75" stroke-miterlimit="10"/>
<path d="M46.1773 34.9122C46.1773 34.3148 46.097 33.7035 46.1957 33.1223C46.3677 32.0982 47.4346 31.5746 48.2124 32.1397C48.536 32.3726 48.8411 32.8478 48.8709 33.2353C48.9604 34.3471 48.9054 35.4727 48.9054 36.5937C48.9054 36.6652 48.8732 36.739 48.8526 36.8105C48.6461 37.5232 48.1184 37.9984 47.5402 37.9961C46.9345 37.9915 46.2828 37.4287 46.1911 36.7067C46.1154 36.1185 46.175 35.5119 46.175 34.9145C46.175 34.9122 46.1773 34.9122 46.1773 34.9122Z" fill="#497DF9" stroke="#497DF9" stroke-width="0.75" stroke-miterlimit="10"/>
</svg>
