<svg width="37" height="26" viewBox="0 0 37 26" fill="none" xmlns="http://www.w3.org/2000/svg">
<path d="M36.286 5.8372L28.4755 3.192C28.1923 3.09639 27.8844 3.2485 27.7883 3.53243C27.6922 3.81636 27.8447 4.12492 28.128 4.22125L35.864 6.84182L32.2225 8.62146C32.0715 8.51933 31.9017 8.44111 31.7174 8.39258L20.7952 5.53154C20.4483 3.74103 18.2485 2.98992 16.8979 4.26399C16.4303 4.70509 16.1622 5.32656 16.1622 5.97047V5.98206C16.1658 6.73969 16.7916 7.35609 17.5569 7.35609H19.4431C19.9301 7.35609 20.4172 7.10113 20.6694 6.62163L30.8553 9.29C27.6365 10.8625 20.4114 14.3935 19.4908 14.8433C18.8404 15.1613 18.1163 15.1403 17.5092 14.8433L1.1353 6.84182L17.7759 1.2052C18.2427 1.0473 18.7573 1.0473 19.2241 1.2052L25.7208 3.40567C26.0048 3.50201 26.3119 3.34918 26.408 3.06525C26.5041 2.78131 26.3517 2.47276 26.0684 2.37642L19.5717 0.175954C18.8808 -0.0580001 18.1206 -0.0580001 17.4297 0.175954L0.713987 5.8372C-0.174158 6.13851 -0.254373 7.3713 0.58969 7.78343L9.16762 11.975C8.69572 14.224 7.97524 16.6447 7.19188 18.7937C6.87102 19.6723 7.1478 20.6502 7.87912 21.2267C10.3549 23.1766 13.2795 24.6831 16.2778 25.6516C17.687 26.1064 19.2573 26.1238 20.7207 25.6516C23.7197 24.6824 26.6451 23.1758 29.1194 21.2267C29.8537 20.648 30.1261 19.6702 29.8067 18.7937C29.0399 16.6925 28.3101 14.2559 27.8309 11.975L31.8663 10.0035V18.1802C31.1768 18.2331 30.6312 18.8111 30.6312 19.5159V21.0992C30.6312 21.3346 30.7331 21.5454 30.8943 21.6932L30.6927 24.744C30.6536 25.3401 31.1263 25.8464 31.7224 25.8464H33.094C33.6902 25.8464 34.1629 25.3401 34.1238 24.744L33.9222 21.6932C34.0834 21.5461 34.1853 21.3346 34.1853 21.0992V19.5159C34.1853 18.8111 33.6396 18.2331 32.9502 18.1802V9.99187C32.9502 9.82455 32.9242 9.66303 32.8773 9.50947L36.4096 7.78343C37.2529 7.37202 37.1756 6.13851 36.286 5.8372ZM19.4431 6.26889H17.5569C17.3893 6.26889 17.2476 6.13489 17.2462 5.97916V5.96975C17.2462 5.6199 17.3864 5.29469 17.6408 5.05494C18.4212 4.31831 19.7003 4.84851 19.7509 5.90746C19.7639 6.16097 19.6006 6.26889 19.4431 6.26889ZM28.1785 17.3973C25.2503 19.6948 21.0943 21.3375 19.6628 21.6113C19.3686 21.6678 19.1757 21.9518 19.2321 22.2465C19.2884 22.5413 19.5731 22.7347 19.8658 22.6782C21.3632 22.3921 25.4657 20.7943 28.5456 18.4837C28.6215 18.7003 28.709 18.9466 28.7892 19.166C28.9482 19.6021 28.8123 20.0866 28.4503 20.3713C25.5314 22.6703 22.4551 23.9487 20.389 24.6165C19.1547 25.0156 17.8142 25.0055 16.611 24.6165C14.5449 23.9494 11.4686 22.671 8.54975 20.3713C8.18842 20.0866 8.05184 19.6021 8.21082 19.166C8.21371 19.1573 8.21733 19.1487 8.22022 19.14C8.29899 18.9234 8.38643 18.6778 8.45436 18.4837C11.4613 20.7385 15.553 22.3762 17.1335 22.6782C17.4276 22.734 17.7116 22.5413 17.7672 22.2465C17.8236 21.9518 17.6306 21.6671 17.3365 21.6113C15.9852 21.3527 11.8147 19.7448 8.82074 17.3973C9.26084 16.0479 9.77104 14.3139 10.1721 12.4661L17.0337 15.819C17.9472 16.2652 19.0167 16.2833 19.9655 15.819L26.8272 12.4661C27.2282 14.3146 27.7384 16.0486 28.1785 17.3973ZM31.7788 24.7599L31.9674 21.9032H32.8505L33.0391 24.7599H31.7788ZM33.102 19.5159V20.8167H31.7159V19.5159C31.7159 19.3783 31.8323 19.2616 31.9696 19.2616H32.8483C32.9856 19.2616 33.102 19.3783 33.102 19.5159Z" fill="#0066FF"/>
</svg>
