<svg width="25" height="22" viewBox="0 0 25 22" fill="none" xmlns="http://www.w3.org/2000/svg">
<path d="M23.2075 0H1.79248C0.804199 0 0 0.797732 0 1.77822V20.5283C0 21.3396 0.664062 22 1.48047 22H23.5195C24.3359 22 25 21.3401 25 20.5283V1.77822C25 0.797732 24.1958 0 23.2075 0ZM0.976562 1.77822C0.976562 1.331 1.34229 0.966948 1.79248 0.966948H23.208C23.6577 0.966948 24.0239 1.331 24.0239 1.77822V4.6515H0.976562V1.77822ZM24.0234 20.5283C24.0234 20.8063 23.7974 21.0331 23.5195 21.0331H1.48047C1.20264 21.0331 0.976562 20.8068 0.976562 20.5283V5.61893H24.0234V20.5283Z" fill="#888888"/>
<path d="M16.063 2.32617H15.4072C15.1377 2.32617 14.9189 2.54277 14.9189 2.80965C14.9189 3.07652 15.1377 3.29312 15.4072 3.29312H16.063C16.3325 3.29312 16.5513 3.07652 16.5513 2.80965C16.5513 2.54228 16.3325 2.32617 16.063 2.32617Z" fill="#888888"/>
<path d="M19.0967 2.32617H18.4409C18.1714 2.32617 17.9526 2.54277 17.9526 2.80965C17.9526 3.07652 18.1714 3.29312 18.4409 3.29312H19.0967C19.3662 3.29312 19.585 3.07652 19.585 2.80965C19.585 2.54228 19.3667 2.32617 19.0967 2.32617Z" fill="#888888"/>
<path d="M22.1309 2.32617H21.4746C21.2051 2.32617 20.9863 2.54277 20.9863 2.80965C20.9863 3.07652 21.2051 3.29312 21.4746 3.29312H22.1304C22.3999 3.29312 22.6187 3.07652 22.6187 2.80965C22.6191 2.54228 22.4004 2.32617 22.1309 2.32617Z" fill="#888888"/>
<path d="M8.21387 2.32617H3.47998C3.21045 2.32617 2.9917 2.54277 2.9917 2.80965C2.9917 3.07652 3.21045 3.29312 3.47998 3.29312H8.21387C8.4834 3.29312 8.70215 3.07652 8.70215 2.80965C8.70215 2.54228 8.4834 2.32617 8.21387 2.32617Z" fill="#888888"/>
<path d="M12.5 20.0608C16.2261 20.0608 19.2573 17.0594 19.2573 13.37C19.2573 9.68061 16.2261 6.67969 12.5 6.67969C8.77393 6.67969 5.74268 9.68109 5.74268 13.3705C5.74268 17.0599 8.77393 20.0608 12.5 20.0608ZM12.5 7.64664C15.6875 7.64664 18.2808 10.2144 18.2808 13.3705C18.2808 16.5266 15.6875 19.0938 12.5 19.0938C9.3125 19.0938 6.71924 16.5261 6.71924 13.37C6.71924 10.2139 9.3125 7.64664 12.5 7.64664Z" fill="#888888"/>
<path d="M9.88281 17.3813H15.1172C15.3867 17.3813 15.6055 17.1647 15.6055 16.8978V15.2409C15.6055 14.4253 15.1401 13.7016 14.4526 13.3312C14.8047 12.9029 15.0156 12.3565 15.0156 11.7623C15.0156 10.3888 13.8872 9.27148 12.5 9.27148C11.1128 9.27148 9.98438 10.3888 9.98438 11.7623C9.98438 12.3565 10.1953 12.9024 10.5469 13.3307C9.85938 13.7006 9.39453 14.4234 9.39453 15.2405V16.8973C9.39453 17.1647 9.61328 17.3813 9.88281 17.3813ZM12.5 10.2384C13.3486 10.2384 14.0391 10.9221 14.0391 11.7623C14.0391 12.6026 13.3486 13.2863 12.5 13.2863C11.6514 13.2863 10.9609 12.6026 10.9609 11.7623C10.9609 10.9221 11.6514 10.2384 12.5 10.2384ZM10.3711 15.2405C10.3711 14.6168 10.8589 14.0927 11.4839 14.0405C11.7949 14.1768 12.1387 14.2527 12.5 14.2527C12.8613 14.2527 13.2051 14.1768 13.5161 14.0405C14.1406 14.0922 14.6289 14.6177 14.6289 15.2405V16.4138H10.3711V15.2405Z" fill="#888888"/>
</svg>
