<svg width="21" height="29" viewBox="0 0 21 29" fill="none" xmlns="http://www.w3.org/2000/svg">
<path d="M4.74643 28.149H1.86295C1.28877 28.149 0.821665 27.6647 0.821665 27.0694V11.4337C0.821665 11.1987 0.637556 11.0078 0.410833 11.0078C0.18411 11.0078 0 11.1981 0 11.4337V27.07C0 28.1348 0.83587 29.0014 1.86295 29.0014H4.74643C4.97315 29.0014 5.15726 28.8105 5.15726 28.5755C5.15726 28.3404 4.9737 28.149 4.74643 28.149Z" fill="#888888"/>
<path d="M20.5891 21.8555C20.3624 21.8555 20.1783 22.0463 20.1783 22.2814V27.0664C20.1783 27.6617 19.7112 28.146 19.137 28.146H6.60932C6.3826 28.146 6.19849 28.3369 6.19849 28.5719C6.19849 28.807 6.3826 28.9979 6.60932 28.9979H19.137C20.1641 28.9979 20.9999 28.1313 20.9999 27.0664V22.2814C20.9999 22.0463 20.8164 21.8555 20.5891 21.8555Z" fill="#888888"/>
<path d="M19.137 2.06455H14.3955C14.2988 1.65957 13.9465 1.35824 13.5269 1.35824H13.1122V1.23193C13.1122 0.552813 12.5796 0 11.924 0H9.07602C8.42098 0 7.88777 0.552813 7.88777 1.23193V1.35824H7.47311C7.05354 1.35824 6.70116 1.65957 6.60446 2.06455H1.86295C0.83587 2.06455 0 2.93115 0 3.996V9.50033C0 9.73539 0.18411 9.92627 0.410833 9.92627C0.637556 9.92627 0.821665 9.73539 0.821665 9.50033V3.996C0.821665 3.4007 1.28877 2.91643 1.86295 2.91643H6.57715V3.91217H3.74776C2.96706 3.91217 2.33224 4.57033 2.33224 5.37973V25.413C2.33224 26.2223 2.96706 26.8805 3.74776 26.8805H17.2528C18.0335 26.8805 18.6683 26.2223 18.6683 25.413V5.38029C18.6683 4.5709 18.0335 3.91273 17.2528 3.91273H14.4229V2.91699H19.137C19.7112 2.91699 20.1783 3.40127 20.1783 3.99656V20.3521C20.1783 20.5872 20.3624 20.778 20.5892 20.778C20.8159 20.778 21 20.5872 21 20.3521V3.996C21 2.93115 20.1647 2.06455 19.137 2.06455ZM7.39936 2.28715C7.39936 2.24467 7.43268 2.21068 7.47311 2.21068H8.13416C8.45157 2.21068 8.70944 1.94334 8.70944 1.61426V1.23193C8.70944 1.02236 8.87388 0.851875 9.07602 0.851875H11.924C12.1261 0.851875 12.2906 1.02236 12.2906 1.23193V1.61426C12.2906 1.94334 12.5484 2.21068 12.8658 2.21068H13.5269C13.5679 2.21068 13.6006 2.24523 13.6006 2.28715V5.03139C13.6006 5.07387 13.5673 5.10785 13.5269 5.10785H7.47311C7.43214 5.10785 7.39936 5.0733 7.39936 5.03139V2.28715ZM17.2528 26.0286H3.74776C3.42051 26.0286 3.15445 25.7528 3.15445 25.4135V13.191H5.47522C5.69648 13.191 5.89862 13.0557 5.99095 12.8438L6.9186 10.6892L8.18497 14.6286C8.26145 14.8653 8.46632 15.0222 8.7067 15.0279C8.71162 15.0279 8.71599 15.0279 8.72091 15.0279C8.95528 15.0279 9.1607 14.8829 9.24592 14.6552L10.3096 11.8254L10.6696 13.2647C10.7292 13.5043 10.9215 13.6753 11.1591 13.7002C11.3973 13.7252 11.618 13.5971 11.7229 13.3746L12.9631 10.7317L13.4477 14.4037C13.4799 14.6495 13.6591 14.8483 13.894 14.8982C14.1289 14.948 14.3688 14.8381 14.4911 14.6257L15.6581 12.6093H17.8461V25.4118C17.8461 25.7528 17.58 26.0286 17.2528 26.0286ZM17.2528 4.76461C17.58 4.76461 17.8461 5.04045 17.8461 5.37973V11.7586H15.5122C15.3134 11.7586 15.1276 11.8685 15.0282 12.0424L14.1628 13.5377L13.6618 9.74559C13.628 9.48844 13.4395 9.28793 13.1925 9.24658C12.9456 9.20523 12.7058 9.33437 12.5954 9.5683L11.2897 12.3516L10.9051 10.8138C10.8434 10.5669 10.6374 10.3913 10.3921 10.376C10.1468 10.3607 9.92172 10.5102 9.83322 10.7476L8.73948 13.6578L7.4895 9.76937C7.41575 9.53828 7.21689 9.38082 6.98252 9.36893C6.74815 9.35703 6.53453 9.4924 6.43838 9.715L5.30859 12.3386H3.15391V5.38029C3.15391 5.04102 3.41996 4.76518 3.74721 4.76518H6.57715V5.03195C6.57715 5.54398 6.97924 5.96086 7.47311 5.96086H13.5269C14.0208 5.96086 14.4229 5.54398 14.4229 5.03195V4.76518L17.2528 4.76461Z" fill="#888888"/>
<path d="M15.4532 17.7148H5.54731C5.32058 17.7148 5.13647 17.9057 5.13647 18.1408C5.13647 18.3758 5.32058 18.5667 5.54731 18.5667H15.4532C15.6799 18.5667 15.864 18.3758 15.864 18.1408C15.864 17.9057 15.6799 17.7148 15.4532 17.7148Z" fill="#888888"/>
<path d="M15.4532 23.1484H5.54731C5.32058 23.1484 5.13647 23.3393 5.13647 23.5744C5.13647 23.8094 5.32058 24.0003 5.54731 24.0003H15.4532C15.6799 24.0003 15.864 23.8094 15.864 23.5744C15.864 23.3393 15.6799 23.1484 15.4532 23.1484Z" fill="#888888"/>
<path d="M15.4532 20.4336H5.54731C5.32058 20.4336 5.13647 20.6245 5.13647 20.8595C5.13647 21.0946 5.32058 21.2855 5.54731 21.2855H15.4532C15.6799 21.2855 15.864 21.0946 15.864 20.8595C15.864 20.6245 15.6799 20.4336 15.4532 20.4336Z" fill="#888888"/>
</svg>
