<svg width="25" height="25" viewBox="0 0 25 25" fill="none" xmlns="http://www.w3.org/2000/svg">
<path fill-rule="evenodd" clip-rule="evenodd" d="M13.3125 1.58333C13.0417 1.5625 12.7708 1.5625 12.5 1.5625V0C12.8125 0 13.125 0.0208333 13.4167 0.0416667L13.3125 1.58333ZM16.4375 2.29167C15.9375 2.10417 15.4167 1.9375 14.8958 1.83333L15.2292 0.3125C15.8333 0.4375 16.4375 0.625 17 0.833333L16.4375 2.29167ZM18.5833 3.39583C18.3542 3.25 18.125 3.125 17.8958 2.97917L18.6667 1.625C19.2083 1.9375 19.7083 2.27083 20.1875 2.64583L19.2292 3.875C19.0208 3.70833 18.8125 3.5625 18.5833 3.39583ZM21.4375 6.20833C21.125 5.77083 20.7917 5.35417 20.4167 4.95833L21.5417 3.875C21.9583 4.3125 22.3542 4.79167 22.7083 5.29167L21.4375 6.20833ZM22.6042 8.3125C22.5 8.0625 22.3958 7.8125 22.2708 7.58333L23.6667 6.875C23.9375 7.41667 24.1875 8 24.375 8.58333L22.8958 9.0625C22.8125 8.8125 22.7083 8.5625 22.6042 8.3125ZM23.4375 12.2292C23.4167 11.6875 23.375 11.1667 23.2917 10.625L24.8333 10.3542C24.9375 10.9583 25 11.5625 25.0208 12.1875L23.4375 12.2292ZM23.2292 14.625C23.2708 14.3542 23.3333 14.1042 23.3542 13.8333L24.8958 14.0208C24.8125 14.625 24.7083 15.2292 24.5417 15.8333L23.0417 15.4167C23.125 15.1667 23.1875 14.8958 23.2292 14.625ZM21.75 18.3542C22.0417 17.8958 22.2917 17.4167 22.5 16.9375L23.9375 17.5625C23.6875 18.125 23.3958 18.6667 23.0625 19.1875L21.75 18.3542ZM20.2292 20.2292C20.4167 20.0417 20.6042 19.8333 20.7708 19.6458L21.9583 20.6667C21.75 20.8958 21.5417 21.125 21.3333 21.3333C21.3542 21.3333 20.2292 20.2292 20.2292 20.2292Z" fill="#888888"/>
<path fill-rule="evenodd" clip-rule="evenodd" d="M12.4997 1.5625C6.45801 1.5625 1.56217 6.45833 1.56217 12.5C1.56217 18.5417 6.45801 23.4375 12.4997 23.4375C15.3955 23.4375 18.1872 22.2917 20.2288 20.2292L21.333 21.3333C16.458 26.2083 8.54134 26.2292 3.64551 21.3333C-1.25033 16.4375 -1.25033 8.54167 3.64551 3.64583C5.99967 1.3125 9.18717 0 12.4997 0V1.5625Z" fill="#888888"/>
<path fill-rule="evenodd" clip-rule="evenodd" d="M11.7292 4.6875C12.1458 4.6875 12.5 5.04167 12.5 5.47917V13.625L17.5833 16.5208C17.9583 16.75 18.0625 17.2292 17.8542 17.5833C17.6458 17.9375 17.1875 18.0625 16.8125 17.875L11.3333 14.75C11.0833 14.6042 10.9375 14.3333 10.9375 14.0625V5.47917C10.9375 5.04167 11.2917 4.6875 11.7292 4.6875Z" fill="#888888"/>
</svg>
