<svg width="22" height="25" viewBox="0 0 22 25" fill="none" xmlns="http://www.w3.org/2000/svg">
<g clip-path="url(#clip0)">
<path d="M3.14286 2.32031H4.71429C4.71429 2.32031 5.2963 2.32031 5.2963 2.8525C5.2963 3.38468 4.71429 3.46615 4.71429 3.46615H3.14286C2.28381 3.46615 1.16402 4.57769 1.16402 5.42679V21.7462C1.16402 22.5953 2.28381 23.7068 3.14286 23.7068H8.96296C8.96296 23.7068 9.37037 23.7068 9.37037 24.2414C9.37037 24.776 8.96296 24.8527 8.96296 24.8527H12.8333C12.8333 24.8527 12.4259 24.776 12.4259 24.2414C12.4259 23.7068 12.8333 23.7068 12.8333 23.7068H13.4444H18.8571C19.7162 23.7068 20.836 22.5953 20.836 21.7462V5.42679C20.836 4.57769 19.7162 3.46615 18.8571 3.46615H17.2857C17.2857 3.46615 16.7037 3.38468 16.7037 2.8525C16.7037 2.32031 17.2857 2.32031 17.2857 2.32031H18.8571C20.5962 2.32031 22 3.70787 22 5.42679V21.7462C22 23.4651 20.5962 24.8527 18.8571 24.8527H12.8333H8.96296H3.14286C1.40381 24.8527 0 23.4651 0 21.7462V5.42679C0 3.72858 1.40381 2.32031 3.14286 2.32031Z" fill="#888888"/>
<path fill-rule="evenodd" clip-rule="evenodd" d="M13.3676 1.14583H8.63231C7.74066 1.14583 7.33326 1.8846 7.33326 2.31951V3.87275C7.33326 4.30766 7.74066 5.08784 8.63231 5.08784H13.3466C14.2592 5.08784 14.5502 4.32836 14.5502 3.89346V2.31951C14.5502 1.42593 13.7866 1.14583 13.3676 1.14583ZM8.63231 0C7.33326 0 6.28564 1.03549 6.28564 2.31951V3.87275C6.28564 5.17747 7.33326 6.21296 8.63231 6.21296H13.3466C14.6666 6.21296 15.7142 5.17747 15.7142 3.89346V2.31951C15.7142 1.03549 14.6666 0 13.3676 0H8.63231Z" fill="#888888"/>
<rect x="5.70361" y="15.4805" width="1.22222" height="4.88889" rx="0.611111" fill="#888888"/>
<rect x="8.96289" y="13.0371" width="1.22222" height="7.33333" rx="0.611111" fill="#888888"/>
<rect x="12.2222" y="10.1855" width="1.22222" height="10.1852" rx="0.611112" fill="#888888"/>
<rect x="15.4814" y="7.74023" width="1.22222" height="12.6296" rx="0.611111" fill="#888888"/>
<ellipse cx="10.7962" cy="24.24" rx="0.611111" ry="0.611112" fill="#888888"/>
</g>
<defs>
<clipPath id="clip0">
<rect width="22" height="24.8519" fill="white"/>
</clipPath>
</defs>
</svg>
