<svg width="17" height="19" viewBox="0 0 17 19" fill="none" xmlns="http://www.w3.org/2000/svg">
<path fill-rule="evenodd" clip-rule="evenodd" d="M3.64286 1.77246H2.42857C1.08476 1.77246 0 2.84913 0 4.14746V16.6241C0 17.9383 1.08476 18.9991 2.42857 18.9991H14.5714C15.9152 18.9991 17 17.9383 17 16.6241V4.14746C17 2.83329 15.9152 1.77246 14.5714 1.77246H13.3571V2.95996H14.5714C15.2352 2.95996 15.7857 3.49829 15.7857 4.14746V16.6241C15.7857 17.2733 15.2352 17.8116 14.5714 17.8116H2.42857C1.76476 17.8116 1.21429 17.2733 1.21429 16.6241V4.14746C1.21429 3.49829 1.76476 2.95996 2.42857 2.95996H3.64286V1.77246Z" fill="#0066FF"/>
<path fill-rule="evenodd" clip-rule="evenodd" d="M10.3293 1.1875H6.67027C6.33027 1.1875 6.05503 1.45667 6.05503 1.78917V2.97667C6.05503 3.30917 6.33027 3.57833 6.67027 3.57833H10.3131C10.6531 3.57833 10.9284 3.30917 10.9284 2.97667V1.77333C10.9284 1.45667 10.6531 1.1875 10.3293 1.1875ZM6.67027 0C5.66646 0 4.85693 0.791667 4.85693 1.77333V2.96083C4.85693 3.95833 5.66646 4.75 6.67027 4.75H10.3131C11.3331 4.75 12.1426 3.95833 12.1426 2.97667V1.77333C12.1426 0.791667 11.3331 0 10.3293 0H6.67027Z" fill="#0066FF"/>
<path fill-rule="evenodd" clip-rule="evenodd" d="M5.3268 12.6349C5.53728 12.4291 5.86109 12.4291 6.07156 12.6349L8.50014 15.0099L10.9287 12.6349C11.123 12.4291 11.463 12.4291 11.6573 12.6191C11.8678 12.8249 11.8839 13.1416 11.6735 13.3474L11.6573 13.3633L8.85633 16.1024C8.64585 16.3083 8.32204 16.3083 8.11156 16.1024L5.3268 13.3633C5.11633 13.1574 5.11633 12.8408 5.3268 12.6349Z" fill="#0066FF"/>
<path fill-rule="evenodd" clip-rule="evenodd" d="M8.50011 5.92188C8.79153 5.92188 9.03439 6.15938 9.03439 6.44438V14.7094C9.03439 14.9944 8.79153 15.2319 8.50011 15.2319C8.20868 15.2319 7.96582 14.9944 7.96582 14.7094V6.44438C7.96582 6.15938 8.20868 5.92188 8.50011 5.92188Z" fill="#0066FF"/>
</svg>
