<svg width="107" height="107" viewBox="0 0 107 107" fill="none" xmlns="http://www.w3.org/2000/svg">
<path d="M0.55957 91.4698L4.06484 91.8356C4.93069 83.5472 6.84747 75.3998 9.7711 67.5961L6.47072 66.3579C3.44354 74.4436 1.45627 82.8818 0.55957 91.4698Z" fill="#497DF9"/>
<path d="M0 102.228V105.753H3.5251V102.228C3.5251 99.9213 3.60662 97.5903 3.76525 95.299L0.24896 95.0544C0.0837211 97.4273 0 99.8398 0 102.228Z" fill="#497DF9"/>
<path d="M21.1504 102.97V105.753H24.6755V102.97C24.6711 96.3277 25.5193 89.7138 27.196 83.2871L23.7854 82.3948C22.0317 89.1123 21.146 96.0259 21.1504 102.97Z" fill="#497DF9"/>
<path d="M104.506 85.8494L106.998 83.3576L102.957 79.3147L105.235 77.0366C105.923 76.3493 105.923 75.2322 105.235 74.5448L94.9904 64.3L92.4986 66.7918L96.211 70.502L74.5448 92.1681L77.0366 94.6599L98.7028 72.9938L101.499 75.7896L75.7896 101.499L24.1602 49.8669C22.8911 48.6177 22.8757 46.5776 24.1249 45.3085C25.3741 44.0395 27.4143 44.0241 28.6833 45.2733C28.6943 45.2843 28.7075 45.2975 28.7185 45.3085L44.5815 61.1715C45.2689 61.8589 46.3859 61.8589 47.0733 61.1715C47.7607 60.4841 47.7607 59.3671 47.0733 58.6797L31.2104 42.8167C29.9413 41.5675 29.9259 39.5274 31.1751 38.2583C32.4243 36.9893 34.4645 36.9739 35.7335 38.2231C35.7445 38.2341 35.7577 38.2473 35.7687 38.2583L51.6317 54.1213C52.3191 54.8087 53.4361 54.8087 54.1235 54.1213C54.7867 53.4229 54.7867 52.3279 54.1235 51.6273L38.2606 35.7643C36.9915 34.5151 36.9761 32.475 38.2253 31.2059C39.4745 29.9369 41.5147 29.9215 42.7837 31.1707C42.7947 31.1817 42.8079 31.1949 42.8189 31.2059L58.6819 47.0689C59.3693 47.7563 60.4863 47.7563 61.1737 47.0689C61.8391 46.3705 61.8391 45.2733 61.1737 44.5749L45.3107 28.7119C44.0417 27.4627 44.0263 25.4226 45.2755 24.1535C46.5247 22.8845 48.5649 22.8691 49.8339 24.1183C49.8449 24.1293 49.8581 24.1425 49.8691 24.1535L71.1035 45.3879C71.8129 46.0686 72.9387 46.0466 73.6195 45.3372C73.8861 45.0618 74.0535 44.7071 74.102 44.3259L75.3314 32.6468C75.5054 30.9966 76.9816 29.8003 78.6318 29.9722C80.1013 30.1264 81.2403 31.3271 81.3174 32.8033L82.549 56.1945C82.571 56.6285 82.7539 57.0405 83.0624 57.349L90.0751 64.3617L92.5669 61.8699L86.0323 55.3353L85.8736 52.3301L91.6526 46.5578C92.763 45.4165 93.3931 43.8941 93.4151 42.3012C93.4195 40.7039 92.785 39.1705 91.6526 38.0446L84.5121 30.9041C83.8621 28.9521 82.3309 27.4209 80.3789 26.7709L56.6153 3.00735C54.6875 1.08176 52.0745 0 49.3514 0C46.6283 0.00881275 44.0197 1.08837 42.0875 3.00735L11.9369 33.1602L14.4287 35.652L44.5815 5.50136C45.8505 4.24114 47.5646 3.53171 49.3514 3.5251C51.1404 3.5251 52.8567 4.23673 54.1213 5.50136L75.6332 27.0111C74.6308 27.4627 73.7583 28.1611 73.0973 29.0402L50.5676 7.5371L48.133 10.0884L71.7842 32.6623L70.9823 40.2897L52.3609 21.6683C49.7281 19.0333 45.4584 19.0311 42.8233 21.6639C41.4794 23.0057 40.7656 24.852 40.8537 26.7489C40.7501 26.7445 40.6466 26.7423 40.5408 26.7423C36.8175 26.7423 33.7969 29.7607 33.7969 33.484C33.7969 33.5898 33.7991 33.6933 33.8035 33.7991C33.7 33.7947 33.5964 33.7925 33.4906 33.7925C29.7673 33.7925 26.7467 36.8109 26.7467 40.5342C26.7467 40.64 26.7489 40.7457 26.7533 40.8493C26.6498 40.8449 26.5462 40.8427 26.4405 40.8427C22.7127 40.8427 19.6921 43.8655 19.6921 47.591C19.6921 49.38 20.4037 51.0963 21.6683 52.3609L51.266 81.9586L47.5888 85.6357L45.3107 83.3576L42.8189 85.8494L45.097 88.1275L44.0637 89.1586C43.0811 90.1104 41.5191 90.1104 40.5364 89.1586L5.50136 54.1213C3.57137 52.1913 2.99633 49.2897 4.04065 46.7693C4.37773 45.9497 4.87565 45.2072 5.50136 44.5815L11.9325 38.1504L9.44066 35.6586L3.00955 42.0897C1.08176 44.0153 0 46.6283 0 49.3514C0.00660956 52.0745 1.08837 54.6831 3.00735 56.6153L38.0446 91.6526C39.1859 92.763 40.7083 93.3931 42.3012 93.4151C43.8985 93.4195 45.4297 92.785 46.5578 91.6526L53.7578 84.4504L74.5426 105.235C75.23 105.923 76.347 105.923 77.0344 105.235L79.3147 102.957L83.3554 106.998L85.8472 104.506L81.8065 100.465L100.465 81.8065L104.506 85.8494ZM85.5299 45.7844L86.5059 46.7186L85.6247 47.5999L85.5299 45.7844ZM89.8526 42.3012C89.8636 42.9577 89.6146 43.5923 89.1586 44.0637L88.9999 44.2224L85.2589 40.651L85.0364 36.4165L89.1586 40.5386C89.6124 41.0123 89.8614 41.6446 89.8526 42.3012Z" fill="#497DF9"/>
<path d="M67.5961 9.77114L66.3579 6.47076C77.4708 2.30674 89.5332 0.129988 102.21 0L102.246 3.5251C89.9805 3.65068 78.3212 5.75032 67.5961 9.77114Z" fill="#497DF9"/>
<path d="M84.9923 27.3393L84.2124 23.9024C89.8614 22.6201 95.7483 21.9636 102.208 21.8931L102.245 25.4182C96.0391 25.4843 90.3945 26.1144 84.9923 27.3393Z" fill="#497DF9"/>
</svg>
