<svg width="29" height="25" viewBox="0 0 29 25" fill="none" xmlns="http://www.w3.org/2000/svg">
<path d="M0.175519 5.77211C0.263879 5.99153 0.484211 6.13705 0.717004 6.12839C0.951496 6.1203 1.15823 5.96151 1.2347 5.73688C1.31116 5.51284 1.23696 5.2553 1.05798 5.10517C0.8705 4.94753 0.596359 4.93194 0.391887 5.06591C0.164758 5.21488 0.071867 5.51746 0.175519 5.77211Z" fill="#888888"/>
<path d="M23.5082 10.1975C23.5637 10.0514 23.6147 9.90588 23.6611 9.76152C23.9738 8.78912 24.1012 7.80055 24.0519 6.73923C23.9692 4.98152 23.1712 3.29137 21.8044 1.9806C20.4926 0.721792 18.8257 0 17.2313 0C14.8558 0 12.9991 1.35177 12.1042 2.15787C12.0373 2.21792 11.9405 2.21908 11.8736 2.16076C10.9453 1.3535 9.04783 0 6.76521 0C4.87908 0 2.8706 1.03765 1.52482 2.70759C1.32601 2.95415 1.36112 3.31793 1.60298 3.52004C1.84484 3.72272 2.20167 3.68692 2.39991 3.44035C3.53613 2.03083 5.20929 1.15487 6.76521 1.15487C8.68476 1.15487 10.329 2.33572 11.1384 3.03903C11.6306 3.46749 12.3687 3.46056 12.8541 3.02344C13.6295 2.3259 15.229 1.15487 17.2313 1.15487C19.7914 1.15487 22.7685 3.56681 22.9197 6.79466C22.9627 7.71278 22.8528 8.56565 22.5838 9.40178C22.5204 9.59984 22.4484 9.79501 22.3669 9.99249C22.1392 9.97055 21.9086 9.959 21.6759 9.959C17.6385 9.959 14.3539 13.3324 14.3539 17.4795C14.3539 17.6758 14.3613 17.8698 14.3754 18.0621C13.8153 18.5281 13.3599 18.9092 12.9793 19.2378C12.4043 19.7338 11.5706 19.7338 10.9963 19.2372C10.4825 18.7932 9.81417 18.2382 9.10673 17.6504C6.55337 15.5289 3.05581 12.6239 2.21413 11.1658C1.66075 10.2073 1.32997 9.33884 1.17308 8.43342C1.15495 8.32891 1.13909 8.22208 1.1255 8.11699C1.08528 7.80055 0.800949 7.57766 0.491125 7.61866C0.1813 7.65966 -0.0378989 7.94953 0.00231596 8.26539C0.0181753 8.3878 0.0363003 8.51195 0.0578238 8.63379C0.238507 9.67952 0.613468 10.6704 1.23765 11.7519C2.18241 13.3884 5.62503 16.2484 8.39079 18.546C9.0937 19.1304 9.7581 19.6818 10.2639 20.1184C10.7635 20.5497 11.3758 20.7651 11.988 20.7651C12.5998 20.7651 13.212 20.5497 13.711 20.119C13.9654 19.8995 14.2554 19.6547 14.589 19.3752C15.4091 22.6071 18.2752 24.9994 21.6753 24.9994C25.7126 24.9994 28.9972 21.6261 28.9972 17.4789C28.9984 13.982 26.6619 11.0348 23.5082 10.1975ZM21.6764 23.8451C18.2638 23.8451 15.4873 20.9897 15.4873 17.4795C15.4873 13.9693 18.2638 11.1139 21.6764 11.1139C25.089 11.1139 27.8655 13.9693 27.8655 17.4795C27.8655 20.9897 25.089 23.8451 21.6764 23.8451Z" fill="#888888"/>
<path d="M24.3911 15.4955H23.6129V14.6899C23.6129 13.9814 23.0499 13.4052 22.3583 13.4052H20.9984C20.3068 13.4052 19.7438 13.9814 19.7438 14.6899V15.4955H18.9655C18.2739 15.4955 17.7109 16.0717 17.7109 16.7803V18.1794C17.7109 18.8879 18.2739 19.4642 18.9655 19.4642H19.7438V20.2697C19.7438 20.9782 20.3068 21.5545 20.9984 21.5545H22.3583C23.0499 21.5545 23.6129 20.9782 23.6129 20.2697V19.4642H24.3911C25.0827 19.4642 25.6457 18.8879 25.6457 18.1794V16.7803C25.6457 16.0717 25.0827 15.4955 24.3911 15.4955ZM24.5129 18.1788C24.5129 18.2504 24.4585 18.3087 24.3911 18.3087H23.0465C22.7338 18.3087 22.4801 18.5674 22.4801 18.8862V20.2691C22.4801 20.3407 22.4257 20.399 22.3583 20.399H20.9984C20.931 20.399 20.8766 20.3407 20.8766 20.2691V18.8862C20.8766 18.5674 20.6228 18.3087 20.3102 18.3087H18.9655C18.8981 18.3087 18.8438 18.2504 18.8438 18.1788V16.7803C18.8438 16.7087 18.8981 16.6503 18.9655 16.6503H20.3102C20.6228 16.6503 20.8766 16.3916 20.8766 16.0729V14.6899C20.8766 14.6183 20.931 14.56 20.9984 14.56H22.3583C22.4251 14.56 22.4801 14.6183 22.4801 14.6899V16.0729C22.4801 16.3916 22.7338 16.6503 23.0465 16.6503H24.3911C24.4585 16.6503 24.5129 16.7087 24.5129 16.7803V18.1788Z" fill="#888888"/>
</svg>
