<svg width="23" height="29" viewBox="0 0 23 29" fill="none" xmlns="http://www.w3.org/2000/svg">
<path d="M20.6873 1.96883H20.0939V1.38543C20.0945 0.621348 19.4631 0 18.6866 0H3.53701C3.42477 0 3.31713 0.0430469 3.23655 0.120078L0.130659 3.08748C0.0471985 3.16734 0 3.27723 0 3.39221V19.6481C0 19.8826 0.193399 20.0729 0.431694 20.0729C0.669989 20.0729 0.863388 19.8826 0.863388 19.6481V3.81814L3.15079 3.82437H3.15309C3.36836 3.82437 3.57097 3.74225 3.7235 3.59272C3.87661 3.44262 3.96122 3.24324 3.9618 3.03027L3.96755 0.849609H14.3196V5.25512C14.3196 5.96369 14.9049 6.53973 15.625 6.53973C16.3451 6.53973 16.9305 5.96369 16.9305 5.25512V3.06652C16.9305 2.83203 16.7371 2.64172 16.4988 2.64172C16.2605 2.64172 16.0671 2.83203 16.0671 3.06652V5.25455C16.0671 5.49471 15.8685 5.69012 15.6244 5.69012C15.3804 5.69012 15.1818 5.49471 15.1818 5.25455V0.849043H18.686C18.9865 0.849043 19.2305 1.0892 19.2305 1.38486V7.67367C19.2305 7.90816 19.4239 8.09848 19.6622 8.09848C19.9005 8.09848 20.0939 7.90816 20.0939 7.67367V2.81787H20.6873C20.9878 2.81787 21.2319 3.05859 21.2319 3.35369V27.6146C21.2319 27.9102 20.9872 28.1504 20.6873 28.1504H3.40865C3.1082 28.1504 2.86414 27.9102 2.86414 27.6146V27.0306H18.6872C19.4636 27.0306 20.0951 26.4093 20.0951 25.6452V9.6374C20.0951 9.40291 19.9017 9.2126 19.6634 9.2126C19.4251 9.2126 19.2317 9.40291 19.2317 9.6374V25.6457C19.2317 25.9414 18.987 26.1816 18.6872 26.1816H1.4079C1.10744 26.1816 0.863388 25.9408 0.863388 25.6457V21.6248C0.863388 21.3903 0.669989 21.2 0.431694 21.2C0.193399 21.2 0 21.3903 0 21.6248V25.6457C0 26.4098 0.631424 27.0312 1.4079 27.0312H2.00133V27.6151C2.00133 28.3787 2.63276 29.0006 3.40923 29.0006H20.6879C21.4644 29.0006 22.0958 28.3792 22.0958 27.6151V3.35426C22.0952 2.59018 21.4638 1.96883 20.6873 1.96883ZM3.09841 2.97477L1.49193 2.9708L2.55966 1.9507L3.10244 1.43187L3.09841 2.97477Z" fill="#888888"/>
<path d="M11.3096 9.66663H9.86452C9.25042 9.66663 8.75053 10.1665 8.75053 10.7806V12.3959C8.75053 12.4168 8.73401 12.4333 8.71318 12.4333H7.09787C6.48378 12.4333 5.98389 12.9332 5.98389 13.5473V14.9923C5.98389 15.6064 6.48378 16.1063 7.09787 16.1063H8.71318C8.73401 16.1063 8.75053 16.1228 8.75053 16.1437V17.759C8.75053 18.3731 9.25042 18.873 9.86452 18.873H11.3096C11.9237 18.873 12.4236 18.3731 12.4236 17.759V16.1437C12.4236 16.1228 12.4401 16.1063 12.4609 16.1063H14.0763C14.6903 16.1063 15.1902 15.6064 15.1902 14.9923V13.5473C15.1902 12.9332 14.6903 12.4333 14.0763 12.4333H12.4609C12.4401 12.4333 12.4236 12.4168 12.4236 12.3959V10.7806C12.4243 10.1665 11.9244 9.66663 11.3096 9.66663ZM12.4609 13.5099H14.0763C14.0971 13.5099 14.1136 13.5264 14.1136 13.5473V14.9923C14.1136 15.0132 14.0971 15.0297 14.0763 15.0297H12.4609C11.8468 15.0297 11.347 15.5296 11.347 16.1437V17.759C11.347 17.7798 11.3304 17.7963 11.3096 17.7963H9.86452C9.84369 17.7963 9.82717 17.7798 9.82717 17.759V16.1437C9.82717 15.5296 9.32728 15.0297 8.71318 15.0297H7.09787C7.07704 15.0297 7.06052 15.0132 7.06052 14.9923V13.5473C7.06052 13.5264 7.07704 13.5099 7.09787 13.5099H8.71318C9.32728 13.5099 9.82717 13.01 9.82717 12.3959V10.7806C9.82717 10.7598 9.84369 10.7433 9.86452 10.7433H11.3096C11.3304 10.7433 11.347 10.7598 11.347 10.7806V12.3959C11.347 13.0107 11.8468 13.5099 12.4609 13.5099Z" fill="#888888"/>
</svg>
