<svg width="67" height="94" viewBox="0 0 67 94" fill="none" xmlns="http://www.w3.org/2000/svg">
<g clip-path="url(#clip0)">
<path fill-rule="evenodd" clip-rule="evenodd" d="M54.8182 45.463H12.1818C8.85212 45.463 6.09091 48.2134 6.09091 51.5301V81.8657C6.09091 85.1824 8.85212 87.9329 12.1818 87.9329H54.8182C58.1479 87.9329 60.9091 85.1824 60.9091 81.8657V51.611C60.9091 48.2134 58.1479 45.463 54.8182 45.463ZM12.1818 39.4768C5.44121 39.4768 0 44.8967 0 51.611V81.9466C0 88.6609 5.44121 94.0809 12.1818 94.0809H54.8182C61.5588 94.0809 67 88.6609 67 81.9466V51.611C67 44.8967 61.5588 39.4768 54.8182 39.4768H12.1818ZM12.1818 21.1945C12.1818 9.54561 21.7648 0 33.4594 0C45.1539 0 54.737 9.54561 54.737 21.1945V39.3959H48.7273V21.1945C48.7273 12.7814 41.9055 5.98623 33.4594 5.98623C25.0133 5.98623 18.2727 12.8623 18.2727 21.1945V39.3959H12.1818V21.1945Z" fill="#0066FF"/>
<path fill-rule="evenodd" clip-rule="evenodd" d="M44.1265 55.7784C45.2403 54.7405 47.063 54.7405 48.1768 55.7784C49.24 56.8163 49.2907 58.4203 48.2274 59.4581L33.0386 77.1492C31.9754 78.2343 30.2034 78.2814 29.0389 77.2907C28.9883 77.2907 28.9883 77.2436 28.9377 77.2436L18.9131 67.8555C17.7486 66.8648 17.6979 65.1665 18.7612 64.1286C19.8244 63.0907 21.647 62.9964 22.8115 63.9871C22.8621 64.0342 22.9128 64.0814 22.9634 64.1286L30.8616 71.5353L44.0252 55.8728C44.0758 55.8256 44.1265 55.8256 44.1265 55.7784Z" fill="#0066FF"/>
</g>
<defs>
<clipPath id="clip0">
<rect width="67" height="94" fill="white"/>
</clipPath>
</defs>
</svg>
