<?xml version="1.0" encoding="utf-8"?>
<!-- Generator: Adobe Illustrator 24.2.0, SVG Export Plug-In . SVG Version: 6.00 Build 0)  -->
<svg version="1.1" id="Layer_1" xmlns="http://www.w3.org/2000/svg" xmlns:xlink="http://www.w3.org/1999/xlink" x="0px" y="0px"
	 viewBox="0 0 958.8 444.3" style="enable-background:new 0 0 958.8 444.3;" xml:space="preserve">
<style type="text/css">
	.st0{fill:#044AAB;}
	.st1{fill-rule:evenodd;clip-rule:evenodd;fill:#0851AF;}
	.st2{fill:#01429E;}
	.st3{fill:#1157B7;}
	.st4{fill:#81B5FF;}
	.st5{fill:#3C82E2;}
	.st6{fill-rule:evenodd;clip-rule:evenodd;fill:#2066C6;}
	.st7{fill:#2066C6;}
	.st8{fill:#023886;}
	.st9{fill:#78AFFC;}
</style>
<g>
	<path class="st0" d="M703,425.3c-2.9-3.6-4.3-9.1-4.3-16.6c0-7.4,1.4-12.9,4.3-16.5c2.9-3.7,6.8-5.5,11.7-5.5c3,0,5.5,0.4,7.6,1.4
		c2.1,0.9,3.8,2.4,5.2,4.4h0.5v-20.6h7v57.9h-5.3l-0.9-5.7h-0.5c-1.4,2.2-3.2,3.8-5.5,5c-2.3,1.1-4.8,1.7-7.6,1.7
		C710,430.7,705.9,428.9,703,425.3z M725.4,420.8c1.7-2.7,2.6-6.6,2.6-11.8v-0.3c0-5.3-0.9-9.4-2.6-12.1c-1.8-2.7-4.5-4.1-8.2-4.1
		c-2.7,0-4.8,0.5-6.4,1.6c-1.6,1-2.8,2.7-3.6,5.1s-1.1,5.5-1.1,9.5v0.3c0,4,0.4,7.1,1.1,9.4c0.7,2.3,1.9,4,3.5,5
		c1.6,1,3.8,1.5,6.5,1.5C720.9,424.8,723.7,423.5,725.4,420.8z"/>
	<path class="st0" d="M745.9,371.8h7v7.8h-7V371.8z M745.9,387.6h7v42.1h-7V387.6z"/>
	<path class="st0" d="M759.5,387.6h7.4l7.4,21.1c0.7,2,1.5,4.4,2.4,7.4c0.9,2.9,1.5,4.9,1.8,5.8h0.4c0.3-0.9,0.8-2.8,1.7-5.6
		s1.7-5.4,2.4-7.6l7.4-21.1h7L782,429.7h-7L759.5,387.6z"/>
	<path class="st0" d="M804.1,371.8h7v7.8h-7V371.8z M804.1,387.6h7v42.1h-7V387.6z"/>
	<path class="st0" d="M826.7,429c-2.6-1.1-4.5-2.7-5.7-4.5c-1.2-1.9-1.8-3.9-1.8-6.1c0-0.6,0-1.1,0-1.3c0-0.2,0-0.4,0-0.4h7v0.8
		c0,2.5,1,4.4,3,5.6c2,1.3,4.5,1.9,7.7,1.9c2.7,0,5-0.5,6.8-1.6c1.8-1.1,2.7-2.6,2.7-4.6c0-1.5-0.5-2.8-1.5-3.8
		c-1-1-2.3-1.8-3.8-2.3c-1.5-0.6-3.5-1.2-6.1-1.8c-3.1-0.8-5.6-1.6-7.6-2.4c-1.9-0.8-3.6-2-5-3.6c-1.4-1.6-2-3.6-2-6.1
		c0-3.7,1.5-6.6,4.5-8.8c3-2.2,7.1-3.2,12.2-3.2c3.2,0,6,0.5,8.3,1.6c2.3,1,4.1,2.4,5.3,4.2c1.2,1.7,1.8,3.7,1.8,5.8l-0.1,1.5h-6.9
		V399c0-1.9-0.7-3.4-2.2-4.6c-1.5-1.2-3.8-1.8-7.1-1.8c-3.2,0-5.4,0.6-6.7,1.7c-1.3,1.2-1.9,2.5-1.9,4c0,1.2,0.5,2.2,1.4,3
		c0.9,0.8,2,1.4,3.4,1.9s3.2,1,5.6,1.6c3.3,0.9,6,1.7,8.1,2.5c2.1,0.8,3.9,2.1,5.3,3.8c1.5,1.7,2.2,3.9,2.2,6.7
		c0,4.3-1.6,7.6-4.7,9.7c-3.1,2.2-7.3,3.2-12.4,3.2C832.5,430.7,829.3,430.1,826.7,429z"/>
	<path class="st0" d="M862.2,371.8h7v7.8h-7V371.8z M862.2,387.6h7v42.1h-7V387.6z"/>
	<path class="st0" d="M882.4,425.3c-3.3-3.6-4.9-9.1-4.9-16.6s1.6-13,4.9-16.6c3.3-3.6,8.1-5.4,14.6-5.4c6.5,0,11.3,1.8,14.6,5.4
		c3.3,3.6,4.9,9.1,4.9,16.6s-1.6,13-4.9,16.6c-3.3,3.6-8.1,5.4-14.6,5.4C890.5,430.7,885.7,428.9,882.4,425.3z M906.3,421.1
		c1.9-2.5,2.9-6.5,2.9-12.1v-0.6c0-5.6-1-9.6-2.9-12.1c-1.9-2.5-5-3.7-9.3-3.7c-4.3,0-7.4,1.2-9.3,3.7c-1.9,2.5-2.9,6.5-2.9,12.1
		v0.6c0,5.6,1,9.6,2.9,12.1c1.9,2.5,5,3.7,9.3,3.7C901.3,424.8,904.4,423.6,906.3,421.1z"/>
	<path class="st0" d="M924.8,387.6h5.4l0.8,5.7h0.6c3.1-4.4,7.8-6.6,14.2-6.6c4.2,0,7.5,1.1,9.7,3.4c2.3,2.3,3.4,5.9,3.4,10.9v28.7
		h-7v-28.3c0-3.4-0.7-5.7-2.2-7c-1.5-1.3-3.7-2-6.5-2c-2,0-3.9,0.5-5.6,1.5c-1.7,1-3.1,2.4-4.1,4.3c-1,1.9-1.5,4.1-1.5,6.6v24.9h-7
		V387.6z"/>
	<g>
		<g>
			<path class="st0" d="M461,380.6l-26.7,26.7C449,407.1,460.8,395.2,461,380.6z"/>
			<path class="st0" d="M434.3,410.1l26.7,26.7C460.8,422.1,449,410.2,434.3,410.1z"/>
			<path class="st0" d="M463.8,436.7l26.7-26.7C475.8,410.2,463.9,422.1,463.8,436.7z"/>
			<path class="st0" d="M490.4,407.3l-26.7-26.7C463.9,395.2,475.8,407.1,490.4,407.3z"/>
		</g>
		<path class="st0" d="M508.7,428.1c-2.8-1.7-4.2-4.8-4.2-9.3c0-5.4,2.4-9.1,7.2-11.1c4.8-2,11.7-3,20.8-3v-4.6
			c0-2.5-0.7-4.3-2.1-5.6c-1.4-1.3-3.9-2-7.5-2c-3.4,0-5.9,0.6-7.3,1.9c-1.5,1.3-2.2,2.9-2.2,4.7v1h-6.8c-0.1-0.3-0.1-0.9-0.1-1.8
			c0-3.7,1.5-6.6,4.6-8.6c3.1-2,7.2-3,12.4-3c5.2,0,9.2,1.1,11.9,3.3c2.7,2.2,4.1,5.3,4.1,9.3V422c0,1,0.3,1.7,0.8,2.1
			c0.5,0.5,1.2,0.7,2,0.7h3.2v4.6c-1.4,0.6-3.2,1-5.4,1c-1.8,0-3.3-0.5-4.6-1.6c-1.2-1.1-2.1-2.5-2.5-4.4h-0.6
			c-1.4,2-3.4,3.5-5.9,4.6c-2.5,1.1-5.2,1.7-8.2,1.7C514.8,430.7,511.5,429.8,508.7,428.1z M526.2,423.6c1.9-0.9,3.4-2.1,4.6-3.8
			c1.2-1.7,1.8-3.7,1.8-6.1v-3c-6.9,0-12,0.5-15.5,1.6c-3.4,1.1-5.2,3.2-5.2,6.2c0,2.3,0.7,3.9,2.1,4.9c1.4,1,3.5,1.5,6.3,1.5
			C522.3,424.8,524.3,424.4,526.2,423.6z"/>
		<path class="st0" d="M553.7,428c-1.3-1.7-2-3.8-2-6.3v-28.3h-5.1v-5.8h5.2l1.5-11.7h5.4v11.7h7.1v5.8h-7.1v27.6
			c0,2.5,1.2,3.8,3.5,3.8h3.6v4.6c-0.7,0.3-1.6,0.6-2.7,0.8c-1.1,0.2-2.2,0.3-3.1,0.3C557.1,430.6,555,429.7,553.7,428z"/>
		<path class="st0" d="M573,387.6h5.4l0.8,6.3h0.5c0.8-2.1,2-3.8,3.6-5.2c1.6-1.4,3.7-2.1,6.3-2.1c0.9,0,1.7,0.1,2.4,0.3
			c0.7,0.2,1.2,0.3,1.3,0.4v6.8h-3c-3,0-5.5,0.9-7.4,2.6c-1.9,1.7-2.9,4.4-2.9,8.1v24.9h-7V387.6z"/>
		<path class="st0" d="M599.7,443.6v-4.6h2.8c5.4,0,9-3.1,10.7-9.4L597,387.6h7.4l7.8,21.1c0.7,2,1.6,4.4,2.6,7.4c1,3,1.6,4.9,2,5.8
			h0.4c0.3-0.9,0.8-2.6,1.5-5.1c0.7-2.5,1.5-5.2,2.4-8.1l6.7-21.1h7l-13.9,40c-1.9,5.3-4,9.5-6.4,12.4c-2.4,2.9-5.5,4.4-9.4,4.4
			C603,444.3,601.1,444.1,599.7,443.6z"/>
		<path class="st0" d="M643.3,429c-2.6-1.1-4.5-2.7-5.7-4.5c-1.2-1.9-1.8-3.9-1.8-6.1c0-0.6,0-1.1,0-1.3c0-0.2,0-0.4,0-0.4h7v0.8
			c0,2.5,1,4.4,3,5.6c2,1.3,4.5,1.9,7.7,1.9c2.7,0,5-0.5,6.8-1.6c1.8-1.1,2.7-2.6,2.7-4.6c0-1.5-0.5-2.8-1.5-3.8
			c-1-1-2.3-1.8-3.8-2.3c-1.5-0.6-3.5-1.2-6.1-1.8c-3.1-0.8-5.6-1.6-7.6-2.4c-1.9-0.8-3.6-2-5-3.6c-1.4-1.6-2-3.6-2-6.1
			c0-3.7,1.5-6.6,4.5-8.8c3-2.2,7.1-3.2,12.2-3.2c3.2,0,6,0.5,8.3,1.6c2.3,1,4.1,2.4,5.3,4.2c1.2,1.7,1.8,3.7,1.8,5.8l-0.1,1.5h-6.9
			V399c0-1.9-0.7-3.4-2.2-4.6c-1.5-1.2-3.8-1.8-7.1-1.8c-3.2,0-5.4,0.6-6.7,1.7c-1.3,1.1-1.9,2.5-1.9,4c0,1.2,0.5,2.2,1.4,3
			c0.9,0.8,2,1.4,3.4,1.9c1.3,0.5,3.2,1,5.6,1.6c3.3,0.9,6,1.7,8.1,2.5c2.1,0.8,3.9,2.1,5.3,3.8c1.5,1.7,2.2,3.9,2.2,6.7
			c0,4.3-1.6,7.6-4.7,9.7c-3.1,2.2-7.3,3.2-12.4,3.2C649.2,430.7,645.9,430.1,643.3,429z"/>
	</g>
</g>
<g>
	<path class="st8" d="M436.3,106.7h36.3v143.7h-36.3V106.7z M475,66.6c0,10.6-8,19.5-20.7,19.5c-12.1,0-20.1-8.8-20.1-19.5
		c0-11.2,8.3-19.8,20.4-19.8C467,46.8,474.7,55.4,475,66.6"/>
	<path class="st8" d="M553.4,69.8v36.9h34.5v27.1h-34.5v63.4c0,17.7,4.7,26.6,18.6,26.6c6.5,0,10-0.3,14.2-1.5l0.6,27.4
		c-5.3,2.1-15,3.8-26.3,3.8c-13.6,0-24.5-4.4-31.3-11.8c-8-8.3-11.5-21.5-11.5-40.4v-67.6h-20.4v-27.1h20.4V79.8L553.4,69.8z"/>
	<path class="st8" d="M615.4,149.5c0-16.5-0.6-30.4-1.2-42.8h31l1.8,21.2h0.9c6.8-11.2,19.8-24.5,44.3-24.5
		c18.9,0,33.6,10.6,39.8,26.6h0.6c5-8,10.9-13.9,17.4-18c8.3-5.6,17.4-8.6,29.5-8.6c23.6,0,47.8,16.2,47.8,62.3v84.7h-35.4V171
		c0-23.9-8.3-38.1-25.7-38.1c-12.4,0-21.5,8.9-25.4,19.2c-1.2,3.2-1.8,8-1.8,12.1v86.1h-35.4v-83.2c0-20.1-8-34.2-24.8-34.2
		c-13.6,0-22.7,10.6-26.3,20.4c-1.2,3.8-1.8,8-1.8,12.1v85h-35.4V149.5z"/>
	<path class="st8" d="M864.1,216.7c8,5,23.6,10.6,36.6,10.6c15.9,0,23-6.8,23-16.2c0-9.7-5.9-14.5-23.6-20.9
		c-28-9.4-39.5-24.8-39.5-41.9c0-25.4,20.9-44.8,54.3-44.8c15.9,0,29.8,3.8,38.4,8.5l-7.4,25.4c-5.9-3.5-17.7-8.3-30.4-8.3
		c-13,0-20.1,6.5-20.1,15.3c0,9.1,6.8,13.3,25.1,20.1c26.3,9.1,38.1,22.4,38.4,43.7c0,26.3-20.4,45.1-58.4,45.1
		c-17.4,0-33-4.1-43.7-10L864.1,216.7z"/>
	<polygon class="st8" points="447.1,290.6 436.3,290.6 436.3,286.6 462.6,286.6 462.6,290.6 451.8,290.6 451.8,322.2 447.1,322.2 	
		"/>
	<path class="st8" d="M480.5,307c0.1-2.9-1.2-7.5-6.4-7.5c-4.8,0-6.8,4.3-7.1,7.5H480.5z M466.9,310.3c0.1,6.3,4.1,8.9,8.8,8.9
		c3.3,0,5.4-0.6,7.1-1.3l0.8,3.3c-1.6,0.7-4.5,1.6-8.5,1.6c-7.9,0-12.6-5.2-12.6-12.9s4.5-13.7,12-13.7c8.4,0,10.6,7.3,10.6,12
		c0,0.9,0,1.6-0.2,2.2H466.9z"/>
	<rect x="492.3" y="284.8" class="st8" width="4.6" height="37.5"/>
	<path class="st8" d="M522.5,307c0.1-2.9-1.2-7.5-6.4-7.5c-4.7,0-6.8,4.3-7.1,7.5H522.5z M508.9,310.3c0.1,6.3,4.1,8.9,8.8,8.9
		c3.3,0,5.4-0.6,7.1-1.3l0.8,3.3c-1.6,0.7-4.5,1.6-8.5,1.6c-7.9,0-12.6-5.2-12.6-12.9s4.5-13.7,12-13.7c8.4,0,10.6,7.3,10.6,12
		c0,0.9-0.1,1.6-0.2,2.2H508.9z"/>
	<path class="st8" d="M534.3,303.6c0-2.7-0.1-4.8-0.2-6.9h4.1l0.2,4.2h0.2c1.4-2.4,3.8-4.7,8.1-4.7c3.4,0,6.1,2.1,7.2,5.1h0.1
		c0.8-1.5,1.8-2.5,2.9-3.3c1.5-1.2,3.2-1.8,5.6-1.8c3.4,0,8.4,2.2,8.4,11.1v15h-4.5v-14.4c0-5-1.8-7.9-5.5-7.9c-2.7,0-4.7,2-5.5,4.2
		c-0.2,0.7-0.4,1.5-0.4,2.3v15.8h-4.5v-15.3c0-4.1-1.8-7-5.3-7c-2.8,0-5,2.3-5.8,4.6c-0.3,0.6-0.4,1.5-0.4,2.3v15.4h-4.5V303.6z"/>
	<path class="st8" d="M596.1,307c0.1-2.9-1.2-7.5-6.4-7.5c-4.7,0-6.8,4.3-7.1,7.5H596.1z M582.5,310.3c0.1,6.3,4.1,8.9,8.8,8.9
		c3.3,0,5.4-0.6,7.1-1.3l0.8,3.3c-1.6,0.7-4.5,1.6-8.5,1.6c-7.9,0-12.6-5.2-12.6-12.9s4.5-13.7,12-13.7c8.4,0,10.6,7.3,10.6,12
		c0,0.9-0.1,1.6-0.2,2.2H582.5z"/>
	<path class="st8" d="M625.3,307.1c0-0.6,0-1.4-0.2-1.9c-0.7-2.9-3.2-5.3-6.7-5.3c-4.8,0-7.6,4.2-7.6,9.8c0,5.2,2.6,9.4,7.5,9.4
		c3.1,0,6-2.1,6.8-5.5c0.2-0.6,0.2-1.3,0.2-2V307.1z M629.9,284.7v30.9c0,2.3,0.1,4.9,0.2,6.6H626l-0.2-4.4h-0.2
		c-1.4,2.9-4.4,5-8.6,5c-6.2,0-11-5.2-11-13c0-8.5,5.3-13.7,11.5-13.7c3.9,0,6.5,1.8,7.7,3.8h0.1v-15.3H629.9z"/>
	<path class="st8" d="M639.3,296.7h4.6v25.6h-4.6V296.7z M644.4,289.5c0,1.6-1.1,2.9-3,2.9c-1.7,0-2.8-1.3-2.8-2.9
		c0-1.6,1.2-2.9,2.9-2.9C643.3,286.6,644.4,287.9,644.4,289.5"/>
	<path class="st8" d="M671.4,321.3c-1.2,0.6-3.9,1.5-7.3,1.5c-7.7,0-12.7-5.2-12.7-13c0-7.9,5.4-13.6,13.7-13.6
		c2.7,0,5.2,0.7,6.4,1.4l-1.1,3.5c-1.1-0.6-2.9-1.2-5.4-1.2c-5.9,0-9,4.4-9,9.7c0,5.9,3.8,9.6,8.9,9.6c2.6,0,4.4-0.6,5.7-1.2
		L671.4,321.3z"/>
	<path class="st8" d="M678.4,296.7h4.6v25.6h-4.6V296.7z M683.6,289.5c0,1.6-1.1,2.9-3,2.9c-1.7,0-2.8-1.3-2.8-2.9
		c0-1.6,1.2-2.9,2.9-2.9C682.4,286.6,683.6,287.9,683.6,289.5"/>
	<path class="st8" d="M692.3,303.6c0-2.7,0-4.8-0.2-6.9h4.1l0.3,4.2h0.1c1.3-2.4,4.2-4.8,8.4-4.8c3.5,0,9,2.1,9,10.9v15.2h-4.7
		v-14.7c0-4.1-1.5-7.6-5.9-7.6c-3,0-5.4,2.2-6.2,4.8c-0.2,0.6-0.3,1.4-0.3,2.2v15.4h-4.6V303.6z"/>
	<path class="st8" d="M739.4,307c0.1-2.9-1.2-7.5-6.4-7.5c-4.8,0-6.8,4.3-7.1,7.5H739.4z M725.8,310.3c0.1,6.3,4.1,8.9,8.8,8.9
		c3.3,0,5.4-0.6,7.1-1.3l0.8,3.3c-1.6,0.7-4.5,1.6-8.5,1.6c-7.9,0-12.6-5.2-12.6-12.9s4.5-13.7,12-13.7c8.4,0,10.6,7.3,10.6,12
		c0,0.9,0,1.6-0.2,2.2H725.8z"/>
	<path class="st8" d="M764.1,322.2v-35.6h5.1l11.3,18c2.6,4.2,4.7,7.9,6.3,11.6l0.2-0.1c-0.4-4.7-0.5-9.1-0.5-14.6v-14.9h4.3v35.6
		h-4.6l-11.3-18.1c-2.5-4-4.9-8-6.6-11.9l-0.2,0c0.3,4.5,0.3,8.8,0.3,14.7v15.2H764.1z"/>
	<path class="st8" d="M816.5,307c0.1-2.9-1.2-7.5-6.4-7.5c-4.7,0-6.8,4.3-7.1,7.5H816.5z M802.9,310.3c0.1,6.3,4.1,8.9,8.8,8.9
		c3.3,0,5.4-0.6,7.1-1.3l0.8,3.3c-1.6,0.7-4.5,1.6-8.5,1.6c-7.9,0-12.6-5.2-12.6-12.9s4.5-13.7,12-13.7c8.4,0,10.6,7.3,10.6,12
		c0,0.9,0,1.6-0.2,2.2H802.9z"/>
	<path class="st8" d="M833.9,290.6v6.1h6.7v3.5h-6.7V314c0,3.2,0.9,5,3.5,5c1.3,0,2-0.1,2.7-0.3l0.2,3.5c-0.9,0.3-2.3,0.6-4.1,0.6
		c-2.2,0-3.9-0.7-5-2c-1.3-1.4-1.8-3.7-1.8-6.7v-13.9h-4v-3.5h4v-4.8L833.9,290.6z"/>
	<path class="st8" d="M849.7,296.7l3.4,13c0.7,2.9,1.4,5.5,1.8,8.1h0.2c0.6-2.6,1.4-5.3,2.3-8.1l4.2-13h3.9l4,12.8
		c0.9,3.1,1.7,5.8,2.3,8.3h0.2c0.4-2.6,1.1-5.3,1.9-8.3l3.6-12.8h4.6l-8.2,25.6h-4.2l-3.9-12.2c-0.9-2.9-1.6-5.4-2.3-8.4h-0.1
		c-0.6,3.1-1.4,5.7-2.3,8.4l-4.1,12.1h-4.2l-7.7-25.6H849.7z"/>
	<path class="st8" d="M890.6,309.5c0,5.6,3.2,9.8,7.7,9.8c4.4,0,7.8-4.2,7.8-9.9c0-4.3-2.2-9.8-7.7-9.8
		C893,299.6,890.6,304.7,890.6,309.5 M910.8,309.2c0,9.4-6.6,13.6-12.7,13.6c-6.9,0-12.3-5.1-12.3-13.1c0-8.5,5.6-13.5,12.7-13.5
		C905.9,296.2,910.8,301.5,910.8,309.2"/>
	<path class="st8" d="M918.2,304.7c0-3,0-5.6-0.2-8h4.1l0.2,5.1h0.2c1.2-3.4,4-5.6,7.1-5.6c0.5,0,0.8,0.1,1.3,0.1v4.4
		c-0.5-0.1-0.9-0.1-1.6-0.1c-3.3,0-5.6,2.4-6.2,5.9c-0.1,0.6-0.2,1.4-0.2,2.2v13.6h-4.6V304.7z"/>
	<path class="st8" d="M941.9,308.4h0.1c0.6-0.9,1.5-2,2.2-2.9l7.6-8.8h5.5l-9.8,10.5l11.2,15H953l-8.8-12.3l-2.4,2.6v9.6h-4.6v-37.5
		h4.6V308.4z"/>
	<path class="st9" d="M155.5,335.8c-5.3,0-9.8,2.3-12.9,6c-45.5-11.1-83.8-40.7-106-82.5c-42.7-80.1-12.2-180,67.9-222.7
		c48.3-25.8,106.2-25.8,154.6-0.1c4.2,2.2,9.5,0.6,11.7-3.6c2.2-4.2,0.6-9.4-3.6-11.7C213.7-7.1,149.8-7.1,96.4,21.4
		C7.8,68.5-25.8,178.9,21.3,267.5C46.1,314,88.9,346.9,139.9,359c2.5,6.2,8.7,10.7,15.6,10.7c9.2,0,16.6-7.7,16.6-16.9
		C172.2,343.2,164.4,335.8,155.5,335.8"/>
	<path class="st9" d="M293.1,229.8c26.4-61.3-2-132.6-63.3-159c-14.7-6.3-30.4-9.6-46.2-9.9c-3-5-8.3-8.3-14.2-8.3
		c-9.5,0-16.9,7.5-16.9,16.9c0,9.2,7.7,16.9,16.9,16.9c6,0,11.3-3.4,14.2-8.2c13.5,0.2,26.9,3.1,39.4,8.5
		c52.5,22.6,76.9,83.7,54.3,136.3c-11,25.5-31.2,45.1-56.9,55.4c-25.7,10.3-53.9,9.9-79.4-1.1c-16.2-7-30.5-18.1-41.2-32
		c-2.9-3.8-8.3-4.5-12.1-1.6c-3.8,2.9-4.5,8.3-1.6,12.1c12.5,16.3,29.1,29.2,48.1,37.3c15.4,6.6,31.6,9.9,47.8,9.9
		c15.1,0,30.3-2.9,44.8-8.6C256.7,282.4,280.3,259.5,293.1,229.8"/>
	<path class="st9" d="M356,129.2c2.5-3,4.1-6.8,4.1-11c0-9.5-7.7-16.9-16.6-16.9c-9.5,0-16.9,7.4-16.9,16.9c0,7.8,5.7,14.6,13,16.4
		c22.3,74.3-11,155.7-80.3,192.6c-4.2,2.2-5.8,7.5-3.6,11.7c1.6,2.9,4.5,4.6,7.6,4.6c1.4,0,2.8-0.3,4.1-1
		C344.1,301.7,381,211.4,356,129.2"/>
	<path class="st9" d="M202.3,184.8c0-11.5-9.4-20.6-20.3-20.6c-11.5,0-20.6,9.1-20.6,20.6c0,11.2,9.4,20.6,20.6,20.6
		C193.2,205.4,202.3,196,202.3,184.8"/>
</g>
</svg>
