<?xml version="1.0" encoding="utf-8"?>
<!-- Generator: Adobe Illustrator 16.0.0, SVG Export Plug-In . SVG Version: 6.00 Build 0)  -->
<!DOCTYPE svg PUBLIC "-//W3C//DTD SVG 1.1//EN" "http://www.w3.org/Graphics/SVG/1.1/DTD/svg11.dtd">
<svg version="1.1" id="Layer_1" xmlns="http://www.w3.org/2000/svg" xmlns:xlink="http://www.w3.org/1999/xlink" x="0px" y="0px"
	 width="612px" height="792px" viewBox="0 0 612 792" enable-background="new 0 0 612 792" xml:space="preserve">
<g>
	<path fill="#FFFFFF" d="M448.723,525.67c-1.851-2.298-2.744-5.809-2.744-10.596c0-4.724,0.894-8.233,2.744-10.531
		c1.852-2.362,4.341-3.511,7.469-3.511c1.914,0,3.51,0.255,4.851,0.894c1.341,0.574,2.426,1.531,3.319,2.809h0.319v-13.149h4.468
		v36.958h-3.383l-0.574-3.639h-0.319c-0.894,1.404-2.043,2.426-3.511,3.191c-1.468,0.702-3.064,1.085-4.852,1.085
		C453.192,529.117,450.574,527.968,448.723,525.67z M463.021,522.798c1.085-1.724,1.66-4.213,1.66-7.532v-0.191
		c0-3.383-0.575-6-1.66-7.724c-1.148-1.723-2.872-2.616-5.233-2.616c-1.724,0-3.064,0.319-4.086,1.021
		c-1.021,0.639-1.787,1.724-2.298,3.256c-0.51,1.532-0.702,3.511-0.702,6.063v0.191c0,2.554,0.256,4.532,0.702,6
		c0.447,1.469,1.213,2.554,2.234,3.191c1.021,0.639,2.426,0.958,4.149,0.958C460.149,525.351,461.936,524.521,463.021,522.798z"/>
	<path fill="#FFFFFF" d="M476.106,491.521h4.469v4.979h-4.469V491.521z M476.106,501.606h4.469v26.872h-4.469V501.606z"/>
	<path fill="#FFFFFF" d="M484.787,501.606h4.723l4.724,13.468c0.447,1.276,0.958,2.809,1.532,4.724
		c0.574,1.852,0.957,3.128,1.148,3.702h0.256c0.191-0.574,0.511-1.787,1.085-3.574s1.085-3.447,1.532-4.852l4.723-13.468h4.469
		l-9.83,26.872h-4.468L484.787,501.606z"/>
	<path fill="#FFFFFF" d="M513.255,491.521h4.468v4.979h-4.468V491.521z M513.255,501.606h4.468v26.872h-4.468V501.606z"/>
	<path fill="#FFFFFF" d="M527.681,528.032c-1.66-0.702-2.873-1.724-3.639-2.873c-0.766-1.212-1.148-2.489-1.148-3.894
		c0-0.383,0-0.702,0-0.829c0-0.128,0-0.256,0-0.256h4.468v0.511c0,1.596,0.639,2.809,1.915,3.574
		c1.276,0.83,2.872,1.213,4.915,1.213c1.723,0,3.191-0.319,4.34-1.021c1.149-0.702,1.724-1.659,1.724-2.936
		c0-0.958-0.319-1.787-0.958-2.426c-0.638-0.639-1.468-1.148-2.425-1.468c-0.958-0.383-2.234-0.767-3.894-1.149
		c-1.979-0.511-3.574-1.021-4.852-1.531c-1.213-0.511-2.298-1.277-3.191-2.298c-0.894-1.021-1.276-2.298-1.276-3.895
		c0-2.361,0.957-4.212,2.872-5.616s4.532-2.043,7.787-2.043c2.043,0,3.83,0.319,5.298,1.021c1.469,0.638,2.617,1.532,3.384,2.681
		c0.766,1.085,1.148,2.361,1.148,3.702l-0.063,0.957h-4.404v-0.574c0-1.213-0.447-2.17-1.404-2.936
		c-0.958-0.767-2.426-1.149-4.532-1.149c-2.043,0-3.446,0.383-4.276,1.085c-0.83,0.767-1.213,1.596-1.213,2.554
		c0,0.766,0.319,1.404,0.894,1.915c0.574,0.51,1.276,0.894,2.17,1.212c0.894,0.319,2.043,0.639,3.575,1.021
		c2.106,0.574,3.829,1.085,5.17,1.596c1.34,0.511,2.489,1.341,3.383,2.426c0.957,1.085,1.404,2.489,1.404,4.276
		c0,2.745-1.021,4.852-3,6.191c-1.979,1.404-4.659,2.043-7.915,2.043C531.383,529.117,529.34,528.734,527.681,528.032z"/>
	<path fill="#FFFFFF" d="M550.34,491.521h4.468v4.979h-4.468V491.521z M550.34,501.606h4.468v26.872h-4.468V501.606z"/>
	<path fill="#FFFFFF" d="M563.234,525.67c-2.106-2.298-3.128-5.809-3.128-10.596s1.021-8.298,3.128-10.596s5.17-3.446,9.319-3.446
		c4.148,0,7.213,1.148,9.319,3.446S585,510.287,585,515.074s-1.021,8.298-3.128,10.596s-5.171,3.447-9.319,3.447
		C568.404,529.117,565.34,527.968,563.234,525.67z M578.49,522.989c1.212-1.596,1.851-4.148,1.851-7.724v-0.383
		c0-3.574-0.639-6.128-1.851-7.724c-1.213-1.596-3.192-2.361-5.937-2.361c-2.745,0-4.724,0.766-5.937,2.361
		s-1.851,4.149-1.851,7.724v0.383c0,3.575,0.638,6.128,1.851,7.724s3.191,2.361,5.937,2.361
		C575.297,525.351,577.277,524.585,578.49,522.989z"/>
	<path fill="#FFFFFF" d="M590.297,501.606h3.447l0.511,3.639h0.383c1.979-2.809,4.979-4.213,9.063-4.213
		c2.682,0,4.788,0.702,6.192,2.17c1.468,1.468,2.17,3.766,2.17,6.957v18.319h-4.468v-18.063c0-2.17-0.447-3.639-1.404-4.468
		c-0.958-0.83-2.362-1.277-4.149-1.277c-1.276,0-2.489,0.319-3.574,0.958c-1.085,0.638-1.979,1.531-2.617,2.744
		s-0.957,2.617-0.957,4.213v15.894h-4.469v-26.872H590.297z"/>
	<g>
		<g>
			<path fill="#FFFFFF" d="M294.255,497.139l-17.042,17.042C286.596,514.054,294.127,506.457,294.255,497.139z"/>
			<path fill="#FFFFFF" d="M277.213,515.968l17.042,17.043C294.127,523.628,286.596,516.032,277.213,515.968z"/>
			<path fill="#FFFFFF" d="M296.042,532.947l17.043-17.043C303.701,516.032,296.107,523.628,296.042,532.947z"/>
			<path fill="#FFFFFF" d="M313.021,514.181l-17.042-17.042C296.107,506.457,303.701,514.054,313.021,514.181z"/>
		</g>
		<path fill="#FFFFFF" d="M324.701,527.457c-1.787-1.085-2.681-3.063-2.681-5.936c0-3.447,1.532-5.809,4.596-7.085
			c3.064-1.277,7.469-1.915,13.277-1.915v-2.937c0-1.596-0.447-2.744-1.341-3.574s-2.489-1.276-4.787-1.276
			c-2.17,0-3.766,0.383-4.66,1.213c-0.957,0.829-1.404,1.851-1.404,3v0.638h-4.34c-0.063-0.191-0.063-0.574-0.063-1.148
			c0-2.362,0.957-4.213,2.936-5.489c1.979-1.277,4.596-1.915,7.915-1.915s5.872,0.702,7.596,2.106s2.617,3.383,2.617,5.936v14.489
			c0,0.639,0.191,1.086,0.511,1.341c0.319,0.319,0.766,0.446,1.276,0.446h2.043v2.937c-0.894,0.383-2.043,0.639-3.447,0.639
			c-1.148,0-2.106-0.319-2.937-1.021c-0.766-0.702-1.34-1.596-1.596-2.809h-0.383c-0.894,1.276-2.17,2.234-3.766,2.937
			s-3.319,1.085-5.234,1.085C328.596,529.117,326.49,528.543,324.701,527.457z M335.872,524.585c1.213-0.574,2.17-1.34,2.936-2.426
			c0.767-1.085,1.149-2.361,1.149-3.894v-1.915c-4.404,0-7.66,0.319-9.894,1.021c-2.17,0.702-3.319,2.043-3.319,3.958
			c0,1.468,0.447,2.489,1.341,3.127c0.894,0.639,2.233,0.958,4.021,0.958C333.383,525.351,334.659,525.096,335.872,524.585z"/>
		<path fill="#FFFFFF" d="M353.425,527.394c-0.829-1.085-1.276-2.426-1.276-4.021v-18.063h-3.255v-3.702h3.318l0.958-7.468h3.446
			v7.468h4.532v3.702h-4.532v17.617c0,1.596,0.767,2.425,2.234,2.425h2.298v2.937c-0.447,0.191-1.021,0.383-1.724,0.511
			s-1.404,0.191-1.979,0.191C355.596,529.054,354.255,528.479,353.425,527.394z"/>
		<path fill="#FFFFFF" d="M365.744,501.606h3.447l0.51,4.021h0.319c0.511-1.341,1.277-2.426,2.298-3.319
			c1.021-0.894,2.362-1.341,4.021-1.341c0.574,0,1.085,0.064,1.532,0.191c0.446,0.128,0.766,0.191,0.829,0.256v4.34h-1.914
			c-1.915,0-3.511,0.575-4.724,1.66s-1.852,2.809-1.852,5.17v15.894h-4.468V501.606L365.744,501.606z"/>
		<path fill="#FFFFFF" d="M382.787,537.351v-2.936h1.787c3.446,0,5.744-1.979,6.829-6l-10.34-26.809h4.724l4.979,13.468
			c0.446,1.276,1.021,2.809,1.659,4.724c0.639,1.915,1.021,3.128,1.276,3.702h0.256c0.191-0.574,0.511-1.659,0.957-3.255
			c0.447-1.596,0.958-3.319,1.532-5.171l4.276-13.468h4.469l-8.873,25.532c-1.213,3.383-2.553,6.063-4.085,7.914
			c-1.532,1.852-3.511,2.809-6,2.809C384.894,537.798,383.681,537.67,382.787,537.351z"/>
		<path fill="#FFFFFF" d="M410.616,528.032c-1.659-0.702-2.872-1.724-3.638-2.873c-0.767-1.212-1.149-2.489-1.149-3.894
			c0-0.383,0-0.702,0-0.829c0-0.128,0-0.256,0-0.256h4.468v0.511c0,1.596,0.639,2.809,1.915,3.574
			c1.277,0.83,2.873,1.213,4.915,1.213c1.724,0,3.191-0.319,4.341-1.021c1.148-0.702,1.724-1.659,1.724-2.936
			c0-0.958-0.319-1.787-0.958-2.426c-0.638-0.639-1.468-1.148-2.426-1.468c-0.957-0.383-2.233-0.767-3.894-1.149
			c-1.979-0.511-3.574-1.021-4.851-1.531c-1.213-0.511-2.298-1.277-3.191-2.298c-0.894-1.021-1.276-2.298-1.276-3.895
			c0-2.361,0.957-4.212,2.872-5.616s4.532-2.043,7.787-2.043c2.043,0,3.83,0.319,5.298,1.021c1.468,0.638,2.617,1.532,3.383,2.681
			c0.766,1.085,1.149,2.361,1.149,3.702l-0.064,0.957h-4.404v-0.574c0-1.213-0.446-2.17-1.404-2.936
			c-0.957-0.767-2.425-1.149-4.531-1.149c-2.043,0-3.447,0.383-4.277,1.085c-0.829,0.702-1.212,1.596-1.212,2.554
			c0,0.766,0.318,1.404,0.894,1.915c0.574,0.51,1.276,0.894,2.17,1.212c0.83,0.319,2.043,0.639,3.574,1.021
			c2.106,0.574,3.83,1.085,5.171,1.596c1.34,0.511,2.489,1.341,3.383,2.426c0.957,1.085,1.404,2.489,1.404,4.276
			c0,2.745-1.021,4.852-3,6.191c-1.979,1.404-4.66,2.043-7.915,2.043C414.383,529.117,412.277,528.734,410.616,528.032z"/>
	</g>
</g>
<g>
	<path fill="#FFFFFF" d="M278.49,322.309h23.17v91.723h-23.17V322.309z M303.192,296.713c0,6.766-5.106,12.447-13.213,12.447
		c-7.724,0-12.83-5.617-12.83-12.447c0-7.149,5.298-12.639,13.021-12.639C298.085,284.074,303,289.564,303.192,296.713"/>
	<path fill="#FFFFFF" d="M353.234,298.755v23.553h22.021v17.298h-22.021v40.468c0,11.298,3,16.978,11.872,16.978
		c4.149,0,6.384-0.191,9.064-0.957l0.383,17.489c-3.383,1.341-9.574,2.426-16.787,2.426c-8.681,0-15.639-2.809-19.979-7.532
		c-5.106-5.298-7.341-13.723-7.341-25.787v-43.149h-13.021v-17.298h13.021v-17.106L353.234,298.755z"/>
	<path fill="#FFFFFF" d="M392.808,349.628c0-10.532-0.383-19.404-0.766-27.319h19.787l1.149,13.532h0.574
		c4.341-7.149,12.639-15.638,28.276-15.638c12.064,0,21.447,6.766,25.404,16.979h0.383c3.191-5.106,6.958-8.872,11.106-11.489
		c5.298-3.574,11.106-5.489,18.83-5.489c15.063,0,30.511,10.34,30.511,39.766v54.063h-22.596v-50.68
		c0-15.255-5.298-24.319-16.404-24.319c-7.915,0-13.724,5.681-16.213,12.255c-0.766,2.042-1.149,5.106-1.149,7.724v54.958h-22.596
		v-53.107c0-12.83-5.106-21.83-15.829-21.83c-8.681,0-14.489,6.766-16.787,13.021c-0.767,2.425-1.149,5.106-1.149,7.723v54.255
		h-22.596v-64.403H392.808z"/>
	<path fill="#FFFFFF" d="M551.553,392.521c5.106,3.191,15.063,6.766,23.361,6.766c10.149,0,14.682-4.34,14.682-10.34
		c0-6.191-3.767-9.255-15.064-13.34c-17.872-6-25.213-15.83-25.213-26.745c0-16.213,13.341-28.596,34.66-28.596
		c10.148,0,19.021,2.425,24.511,5.425l-4.724,16.213c-3.767-2.234-11.298-5.298-19.404-5.298c-8.298,0-12.83,4.149-12.83,9.766
		c0,5.808,4.341,8.489,16.021,12.83c16.787,5.809,24.319,14.298,24.511,27.894c0,16.787-13.021,28.787-37.276,28.787
		c-11.106,0-21.064-2.617-27.895-6.383L551.553,392.521z"/>
	<polygon fill="#FFFFFF" points="285.383,439.691 278.49,439.691 278.49,437.139 295.277,437.139 295.277,439.691 288.383,439.691 
		288.383,459.861 285.383,459.861 	"/>
	<path fill="#FFFFFF" d="M306.701,450.159c0.064-1.851-0.766-4.787-4.085-4.787c-3.063,0-4.34,2.745-4.531,4.787H306.701z
		 M298.021,452.266c0.064,4.021,2.617,5.682,5.617,5.682c2.106,0,3.447-0.384,4.532-0.83l0.511,2.106
		c-1.021,0.446-2.873,1.021-5.426,1.021c-5.043,0-8.042-3.319-8.042-8.234s2.872-8.745,7.659-8.745c5.361,0,6.766,4.66,6.766,7.66
		c0,0.574,0,1.021-0.128,1.404h-11.489V452.266z"/>
	<rect x="314.234" y="435.989" fill="#FFFFFF" width="2.937" height="23.937"/>
	<path fill="#FFFFFF" d="M333.51,450.159c0.064-1.851-0.766-4.787-4.085-4.787c-3,0-4.34,2.745-4.531,4.787H333.51z
		 M324.829,452.266c0.064,4.021,2.617,5.682,5.617,5.682c2.106,0,3.447-0.384,4.532-0.83l0.511,2.106
		c-1.021,0.446-2.873,1.021-5.426,1.021c-5.043,0-8.043-3.319-8.043-8.234s2.873-8.745,7.66-8.745c5.361,0,6.766,4.66,6.766,7.66
		c0,0.574-0.063,1.021-0.128,1.404h-11.489V452.266z"/>
	<path fill="#FFFFFF" d="M341.042,447.989c0-1.724-0.063-3.063-0.128-4.404h2.617l0.128,2.681h0.128c0.894-1.531,2.425-3,5.17-3
		c2.17,0,3.894,1.341,4.596,3.256h0.063c0.511-0.958,1.149-1.596,1.852-2.106c0.957-0.766,2.042-1.149,3.574-1.149
		c2.17,0,5.361,1.404,5.361,7.086v9.574h-2.872v-9.191c0-3.191-1.148-5.043-3.511-5.043c-1.724,0-3,1.276-3.511,2.681
		c-0.127,0.447-0.255,0.958-0.255,1.469v10.085h-2.872v-9.767c0-2.616-1.149-4.468-3.384-4.468c-1.787,0-3.191,1.468-3.702,2.937
		c-0.191,0.383-0.255,0.957-0.255,1.468v9.83h-2.872v-11.937H341.042z"/>
	<path fill="#FFFFFF" d="M380.49,450.159c0.063-1.851-0.767-4.787-4.086-4.787c-3,0-4.34,2.745-4.531,4.787H380.49z
		 M371.808,452.266c0.064,4.021,2.617,5.682,5.617,5.682c2.106,0,3.447-0.384,4.532-0.83l0.511,2.106
		c-1.021,0.446-2.872,1.021-5.426,1.021c-5.043,0-8.043-3.319-8.043-8.234s2.873-8.745,7.66-8.745c5.361,0,6.766,4.66,6.766,7.66
		c0,0.574-0.063,1.021-0.128,1.404h-11.489V452.266z"/>
	<path fill="#FFFFFF" d="M399.127,450.224c0-0.383,0-0.894-0.128-1.213c-0.446-1.852-2.042-3.383-4.276-3.383
		c-3.063,0-4.851,2.681-4.851,6.255c0,3.319,1.659,6,4.787,6c1.979,0,3.83-1.34,4.34-3.511c0.128-0.383,0.128-0.829,0.128-1.276
		V450.224z M402.064,435.926v19.724c0,1.468,0.063,3.127,0.128,4.212h-2.617l-0.128-2.808h-0.128
		c-0.894,1.851-2.809,3.191-5.489,3.191c-3.957,0-7.021-3.319-7.021-8.298c0-5.426,3.384-8.745,7.341-8.745
		c2.489,0,4.148,1.148,4.915,2.426h0.063v-9.767h2.937V435.926z"/>
	<path fill="#FFFFFF" d="M408.064,443.585h2.936v16.341h-2.936V443.585z M411.319,438.989c0,1.021-0.702,1.852-1.915,1.852
		c-1.085,0-1.787-0.83-1.787-1.852s0.767-1.851,1.852-1.851C410.616,437.139,411.319,437.968,411.319,438.989"/>
	<path fill="#FFFFFF" d="M428.553,459.287c-0.766,0.383-2.489,0.958-4.659,0.958c-4.915,0-8.106-3.319-8.106-8.298
		c0-5.043,3.446-8.682,8.744-8.682c1.724,0,3.319,0.447,4.085,0.894l-0.702,2.234c-0.702-0.383-1.851-0.766-3.446-0.766
		c-3.767,0-5.745,2.809-5.745,6.191c0,3.766,2.426,6.128,5.682,6.128c1.659,0,2.808-0.384,3.638-0.767L428.553,459.287z"/>
	<path fill="#FFFFFF" d="M433.021,443.585h2.937v16.341h-2.937V443.585z M436.34,438.989c0,1.021-0.702,1.852-1.915,1.852
		c-1.085,0-1.787-0.83-1.787-1.852s0.766-1.851,1.852-1.851C435.574,437.139,436.34,437.968,436.34,438.989"/>
	<path fill="#FFFFFF" d="M441.894,447.989c0-1.724,0-3.063-0.128-4.404h2.617l0.191,2.681h0.063c0.83-1.531,2.681-3.063,5.361-3.063
		c2.234,0,5.745,1.341,5.745,6.957v9.702h-3v-9.383c0-2.617-0.957-4.851-3.766-4.851c-1.915,0-3.447,1.404-3.958,3.063
		c-0.128,0.383-0.191,0.894-0.191,1.404v9.83h-2.937L441.894,447.989L441.894,447.989z"/>
	<path fill="#FFFFFF" d="M471.957,450.159c0.063-1.851-0.766-4.787-4.085-4.787c-3.064,0-4.341,2.745-4.532,4.787H471.957z
		 M463.277,452.266c0.063,4.021,2.617,5.682,5.617,5.682c2.105,0,3.446-0.384,4.531-0.83l0.511,2.106
		c-1.021,0.446-2.872,1.021-5.426,1.021c-5.042,0-8.042-3.319-8.042-8.234s2.872-8.745,7.659-8.745c5.362,0,6.766,4.66,6.766,7.66
		c0,0.574,0,1.021-0.127,1.404h-11.489V452.266z"/>
	<path fill="#FFFFFF" d="M487.723,459.861v-22.723h3.256l7.213,11.489c1.659,2.681,3,5.042,4.021,7.404l0.128-0.064
		c-0.255-3-0.319-5.809-0.319-9.318v-9.511h2.745v22.723h-2.937l-7.213-11.553c-1.596-2.554-3.127-5.106-4.213-7.596h-0.127
		c0.191,2.872,0.191,5.617,0.191,9.383v9.702h-2.745V459.861z"/>
	<path fill="#FFFFFF" d="M521.17,450.159c0.063-1.851-0.767-4.787-4.085-4.787c-3,0-4.341,2.745-4.532,4.787H521.17z
		 M512.49,452.266c0.063,4.021,2.616,5.682,5.616,5.682c2.106,0,3.447-0.384,4.532-0.83l0.511,2.106
		c-1.021,0.446-2.872,1.021-5.426,1.021c-5.042,0-8.042-3.319-8.042-8.234s2.872-8.745,7.659-8.745c5.361,0,6.766,4.66,6.766,7.66
		c0,0.574,0,1.021-0.127,1.404H512.49V452.266z"/>
	<path fill="#FFFFFF" d="M532.277,439.691v3.894h4.276v2.234h-4.276v8.809c0,2.042,0.574,3.191,2.233,3.191
		c0.83,0,1.277-0.064,1.724-0.191l0.128,2.233c-0.574,0.192-1.468,0.384-2.617,0.384c-1.404,0-2.489-0.447-3.191-1.277
		c-0.83-0.894-1.148-2.361-1.148-4.276v-8.872h-2.554v-2.234h2.554v-3.063L532.277,439.691z"/>
	<path fill="#FFFFFF" d="M542.362,443.585l2.17,8.298c0.447,1.852,0.894,3.511,1.149,5.171h0.127
		c0.384-1.66,0.894-3.384,1.469-5.171l2.681-8.298h2.489l2.554,8.17c0.574,1.979,1.085,3.702,1.468,5.298h0.128
		c0.255-1.659,0.701-3.383,1.212-5.298l2.298-8.17h2.937l-5.234,16.341h-2.681l-2.489-7.787c-0.574-1.852-1.021-3.447-1.468-5.362
		h-0.064c-0.383,1.979-0.894,3.639-1.468,5.362l-2.617,7.723h-2.681l-4.915-16.34h2.937V443.585z"/>
	<path fill="#FFFFFF" d="M568.468,451.755c0,3.575,2.042,6.256,4.915,6.256c2.809,0,4.979-2.681,4.979-6.319
		c0-2.744-1.404-6.255-4.915-6.255C570,445.437,568.468,448.691,568.468,451.755 M581.362,451.563c0,6-4.213,8.682-8.106,8.682
		c-4.404,0-7.852-3.256-7.852-8.362c0-5.426,3.575-8.617,8.106-8.617C578.234,443.266,581.362,446.649,581.362,451.563"/>
	<path fill="#FFFFFF" d="M586.085,448.691c0-1.915,0-3.574-0.128-5.106h2.617l0.127,3.256h0.128
		c0.767-2.171,2.554-3.575,4.532-3.575c0.319,0,0.511,0.064,0.83,0.064v2.809c-0.319-0.064-0.575-0.064-1.021-0.064
		c-2.106,0-3.574,1.532-3.958,3.767c-0.063,0.383-0.127,0.894-0.127,1.404v8.681h-2.937v-11.234H586.085z"/>
	<path fill="#FFFFFF" d="M601.212,451.054h0.064c0.383-0.575,0.957-1.277,1.404-1.852l4.851-5.617h3.511l-6.255,6.702l7.148,9.574
		h-3.639l-5.616-7.851l-1.532,1.659v6.128h-2.937v-23.937h2.937v15.192H601.212z"/>
	<path fill="#FFFFFF" d="M99.255,468.543c-3.383,0-6.255,1.468-8.233,3.829c-29.043-7.085-53.49-25.979-67.66-52.659
		c-27.255-51.128-7.787-114.894,43.341-142.149c30.829-16.468,67.787-16.468,98.681-0.064c2.681,1.404,6.063,0.383,7.468-2.298
		s0.383-6-2.298-7.468c-34.148-18.063-74.936-18.063-109.021,0.128c-56.553,30.064-78,100.532-47.936,157.085
		c15.829,29.681,43.148,50.681,75.702,58.403c1.596,3.958,5.553,6.83,9.957,6.83c5.872,0,10.596-4.915,10.596-10.787
		C109.915,473.266,104.936,468.543,99.255,468.543"/>
	<path fill="#FFFFFF" d="M187.085,400.883c16.851-39.127-1.276-84.638-40.404-101.489c-9.383-4.021-19.404-6.127-29.489-6.319
		c-1.915-3.191-5.298-5.298-9.064-5.298c-6.063,0-10.787,4.788-10.787,10.788c0,5.872,4.915,10.787,10.787,10.787
		c3.83,0,7.213-2.17,9.064-5.234c8.617,0.127,17.17,1.979,25.148,5.425c33.511,14.426,49.085,53.426,34.66,87
		c-7.021,16.276-19.915,28.787-36.319,35.361s-34.404,6.319-50.681-0.702c-10.341-4.468-19.469-11.554-26.298-20.426
		c-1.852-2.425-5.298-2.872-7.724-1.021c-2.426,1.851-2.872,5.297-1.021,7.723c7.979,10.404,18.574,18.639,30.702,23.809
		c9.83,4.213,20.17,6.319,30.511,6.319c9.639,0,19.341-1.852,28.596-5.489C163.851,434.457,178.915,419.84,187.085,400.883"/>
	<path fill="#FFFFFF" d="M227.234,336.67c1.596-1.915,2.617-4.341,2.617-7.021c0-6.064-4.915-10.787-10.596-10.787
		c-6.063,0-10.787,4.723-10.787,10.787c0,4.979,3.639,9.319,8.298,10.468c14.234,47.425-7.021,99.383-51.255,122.937
		c-2.682,1.403-3.702,4.787-2.298,7.468c1.021,1.851,2.872,2.936,4.851,2.936c0.894,0,1.787-0.191,2.617-0.638
		C219.638,446.776,243.192,389.138,227.234,336.67"/>
	<path fill="#FFFFFF" d="M129.127,372.16c0-7.34-6-13.149-12.957-13.149c-7.341,0-13.148,5.809-13.148,13.149
		c0,7.149,6,13.149,13.148,13.149C123.32,385.309,129.127,379.309,129.127,372.16"/>
</g>
</svg>
