<svg width="21" height="21" viewBox="0 0 21 21" fill="none" xmlns="http://www.w3.org/2000/svg">
<path fill-rule="evenodd" clip-rule="evenodd" d="M10.5009 4.58508C10.8684 4.58508 11.1659 4.88258 11.1659 5.25008V10.5001C11.1659 10.8676 10.8684 11.1651 10.5009 11.1651H5.25094C4.88344 11.1651 4.58594 10.8676 4.58594 10.5001C4.58594 10.1326 4.88344 9.83508 5.25094 9.83508H9.83594V5.25008C9.83594 4.88258 10.1334 4.58508 10.5009 4.58508Z" fill="#0066FF"/>
<path fill-rule="evenodd" clip-rule="evenodd" d="M9.83594 10.5001C9.83594 10.1326 10.1334 9.83508 10.5009 9.83508H15.7509C16.1184 9.83508 16.4159 10.1326 16.4159 10.5001C16.4159 10.8676 16.1184 11.1651 15.7509 11.1651H11.1659V15.7501C11.1659 16.1176 10.8684 16.4151 10.5009 16.4151C10.1334 16.4151 9.83594 16.1176 9.83594 15.7501V10.5001Z" fill="#0066FF"/>
<path fill-rule="evenodd" clip-rule="evenodd" d="M10.5 19.6875C15.575 19.6875 19.6875 15.575 19.6875 10.5C19.6875 5.425 15.575 1.3125 10.5 1.3125C5.425 1.3125 1.3125 5.425 1.3125 10.5C1.3125 15.575 5.425 19.6875 10.5 19.6875ZM10.5 21C16.2925 21 21 16.2925 21 10.5C21 4.7075 16.2925 0 10.5 0C4.7075 0 0 4.7075 0 10.5C0 16.2925 4.7075 21 10.5 21Z" fill="#0066FF"/>
</svg>
