<svg width="100" height="104" viewBox="0 0 100 104" fill="none" xmlns="http://www.w3.org/2000/svg">
<path d="M18.0786 100.705H4.15396C3.6238 100.705 3.19371 100.276 3.19371 99.7476V91.5641C3.19371 90.6855 2.47832 89.9724 1.59686 89.9724C0.715392 89.9724 0 90.6855 0 91.5641V99.7476C0 102.031 1.863 103.888 4.15396 103.888H18.0786C18.96 103.888 19.6754 103.175 19.6754 102.296C19.6754 101.418 18.96 100.705 18.0786 100.705Z" fill="white"/>
<path d="M97.3118 103.718C97.6823 103.718 98.0123 103.784 98.3019 103.894C98.5808 103.697 98.8363 103.451 99.0918 103.137C99.2131 102.999 99.2089 103.001 99.079 103.143C99.1599 103.022 99.2302 102.897 99.3004 102.77C99.2472 102.837 99.4111 102.422 99.4878 102.199C99.475 102.177 99.4835 101.95 99.4921 101.745C99.2834 101.418 99.0811 101.087 98.8938 100.745H94.7568C94.5865 100.745 94.4289 100.728 94.2757 100.705H25.3556C24.4742 100.705 23.7588 101.418 23.7588 102.296C23.7588 103.175 24.4742 103.888 25.3556 103.888H96.3367C96.622 103.78 96.9456 103.718 97.3118 103.718Z" fill="white"/>
<path d="M39.2642 76.2825C39.1388 76.1524 39.0708 76.0617 38.9848 75.9948C37.5472 74.8634 36.6708 73.3858 36.3234 71.6014C36.2195 71.0703 36.1741 70.5213 36.1717 69.9794C36.1598 65.7567 36.1443 61.5352 36.1729 57.3124C36.1896 54.954 36.641 52.6744 37.718 50.5511C38.2469 49.5079 38.8749 48.5256 39.6546 47.6472C39.9388 47.3273 40.2349 47.0194 40.5047 46.6888C40.7841 46.3451 41.362 46.4214 41.559 46.6208C41.7596 46.8237 41.8086 47.3691 41.497 47.6794C40.6003 48.577 39.8457 49.5843 39.2284 50.7003C38.4678 52.0812 37.9997 53.5528 37.7669 55.1044C37.6977 55.5639 37.675 56.0306 37.6451 56.4961C37.6356 56.6465 37.669 56.7992 37.6893 57.0212C37.8851 56.9759 38.0439 56.9341 38.2039 56.9031C38.5263 56.8398 38.8487 56.736 39.1734 56.73C41.4587 56.693 43.6414 56.1941 45.7583 55.3527C47.2699 54.7523 48.6609 53.9359 49.9624 52.9728C50.5439 52.5419 51.1015 52.518 51.6913 52.8809C53.3713 53.9133 55.1348 54.7762 56.9855 55.4493C58.5234 56.0079 60.103 56.4268 61.7173 56.7037C61.8498 56.7264 61.9895 56.7252 62.1245 56.7193C62.6558 56.6978 63.1728 56.7479 63.6695 56.9544C63.7555 56.9902 63.8534 56.9938 63.9668 57.0165C64.1578 56.6059 64.0838 56.1929 64.042 55.8014C63.8737 54.2248 63.488 52.6971 62.7859 51.2708C62.2952 50.2754 61.6815 49.3575 60.9639 48.5006C60.1424 47.5195 59.1944 46.6972 58.1401 45.993C56.4625 44.8734 54.6142 44.2027 52.6095 43.9496C50.2848 43.656 48.0317 43.9126 45.8598 44.8018C45.5004 44.9486 45.1554 45.1324 44.8043 45.2995C44.6634 45.3664 44.5285 45.4451 44.384 45.5036C43.9805 45.6659 43.5853 45.5191 43.3978 45.1467C43.2545 44.8627 43.3656 44.5285 43.7035 44.3017C43.9291 44.1501 44.1632 44.0057 44.4103 43.8947C46.1786 43.0986 48.0054 42.5747 49.9636 42.4494C51.8191 42.33 53.6113 42.5639 55.3629 43.1154C57.161 43.6823 58.7741 44.6037 60.2296 45.8127C61.2564 46.6661 62.128 47.6484 62.8982 48.7285C63.962 50.2193 64.6641 51.8759 65.0999 53.6495C65.4497 55.0746 65.5429 56.5271 65.5453 57.9856C65.5512 61.9935 65.5584 66.0026 65.5417 70.0105C65.5345 71.79 65.0545 73.4323 63.9023 74.8264C63.5704 75.2286 63.168 75.5735 62.7955 75.9423C62.7024 76.0342 62.6009 76.1178 62.4421 76.2598C62.6498 76.3517 62.7955 76.4305 62.9507 76.483C63.8725 76.7957 64.7966 77.0989 65.7184 77.4104C67.901 78.1492 69.4377 79.5743 70.1768 81.768C70.4096 82.4578 70.5457 83.2122 70.5553 83.939C70.5959 87.1293 70.5744 90.3208 70.5708 93.5112C70.5708 93.7033 70.5565 93.9038 70.5004 94.0853C70.406 94.386 70.1254 94.5734 69.8401 94.5746C69.5428 94.5758 69.2813 94.4039 69.1965 94.0805C69.1285 93.8215 69.1046 93.5446 69.1034 93.276C69.0974 90.0845 69.1165 86.8942 69.0914 83.7027C69.0771 81.8993 68.2509 80.4897 66.787 79.4704C65.8844 78.8426 64.8313 78.5514 63.7149 78.2339C63.7829 79.1076 63.9178 79.912 63.8868 80.7105C63.8558 81.5185 63.6623 82.3194 63.531 83.1775C63.7029 83.2599 63.8916 83.3506 64.0802 83.4425C65.5823 84.1694 66.4479 85.382 66.4623 87.0327C66.4802 89.008 65.2289 90.5118 63.3113 91.0047C61.7985 91.3938 59.9347 90.5918 59.0714 89.2156C58.2237 87.8634 58.2476 86.0826 59.2219 84.7661C59.7759 84.0178 60.4875 83.4353 61.4319 83.2408C61.8498 83.1549 62.0612 82.9353 62.1734 82.533C62.5925 81.0268 62.5352 79.5361 62.0886 78.0477C61.9955 77.7386 61.8081 77.5632 61.5012 77.4629C60.2057 77.0404 58.9138 76.6119 57.6255 76.1679C57.3067 76.0581 57.0679 76.1047 56.8398 76.3493C56.5616 76.6477 56.2655 76.9306 55.9742 77.217C55.8775 77.3125 55.7831 77.4152 55.6709 77.4892C55.3987 77.6682 55.0369 77.6276 54.8112 77.4092C54.5927 77.1979 54.533 76.8912 54.7038 76.6083C54.822 76.4126 54.9975 76.2491 55.1539 76.0772C55.3461 75.8659 55.5455 75.6607 55.7784 75.4148C55.0058 74.7094 54.6309 73.8644 54.6906 72.783C53.3331 73.0898 52.0913 73.4013 50.8018 73.387C49.5338 73.3727 48.3063 73.1089 47.012 72.7258C47.0658 73.7916 46.7207 74.6342 46.0867 75.3277C46.3494 75.7573 50.3946 79.8321 50.9677 80.2486C51.2722 79.9478 51.5838 79.6351 51.9015 79.3284C52.0555 79.1804 52.2059 79.0216 52.3838 78.9095C52.6883 78.7161 53.0131 78.7662 53.234 79.0037C53.462 79.2484 53.5026 79.6506 53.259 79.9084C52.711 80.4873 52.1474 81.053 51.56 81.5913C51.2627 81.8635 50.8698 81.8718 50.5188 81.682C50.2669 81.546 50.0305 81.3634 49.8263 81.1605C48.2371 79.585 46.6479 78.0095 45.0825 76.409C44.7613 76.0808 44.4927 76.0128 44.0629 76.1667C42.6886 76.6573 41.3011 77.112 39.9125 77.5584C39.5221 77.6837 39.3012 77.8961 39.177 78.2924C38.7269 79.727 38.746 81.1593 39.1054 82.6058C39.1985 82.9794 39.429 83.1465 39.7764 83.2456C40.8092 83.538 41.5734 84.1718 41.9996 85.1576C42.1656 85.5419 42.2874 85.974 42.3029 86.3893C42.3459 87.4969 42.3292 88.6069 42.3184 89.7157C42.3125 90.3793 41.9901 90.8388 41.3501 91.0059C40.9644 91.1062 40.543 91.1157 40.1418 91.0954C39.7633 91.0764 39.4672 90.7314 39.4552 90.4104C39.4421 90.0726 39.7561 89.7432 40.1585 89.6716C40.1967 89.6644 40.2361 89.6644 40.2743 89.6608C40.9346 89.5916 40.937 89.5916 40.9394 88.9447C40.9417 88.2059 40.9477 87.4659 40.9382 86.7271C40.9226 85.5252 40.205 84.6981 39.0325 84.5119C37.9603 84.3424 36.7556 85.2543 36.715 86.3201C36.6768 87.3298 36.7102 88.3432 36.7138 89.3541C36.7138 89.4102 36.7413 89.4663 36.7687 89.5749C36.8953 89.5999 37.0433 89.6226 37.1866 89.6584C37.3908 89.7098 37.6153 89.7336 37.792 89.8351C38.2206 90.0833 38.2147 90.6753 37.8015 90.9498C36.8511 91.58 35.3156 90.9045 35.25 89.7718C35.1831 88.6284 35.1556 87.4695 35.2595 86.3309C35.3813 84.981 36.1228 83.9832 37.3753 83.4007C37.7765 83.2145 37.8015 83.1835 37.7024 82.7849C37.3586 81.4016 37.3347 80.0171 37.6368 78.6254C37.6487 78.5717 37.6296 78.512 37.6236 78.4213C37.5281 78.4213 37.4278 78.395 37.3502 78.4249C36.6792 78.6827 35.9759 78.8844 35.3514 79.2281C33.613 80.1842 32.653 81.6868 32.6244 83.6764C32.5802 86.8668 32.6136 90.0595 32.6088 93.2498C32.6088 93.5195 32.5885 93.7964 32.5229 94.0554C32.4393 94.3884 32.1933 94.5603 31.8948 94.5698C31.5892 94.5794 31.2907 94.3729 31.1963 94.0494C31.1486 93.8847 31.1402 93.7045 31.139 93.5315C31.1366 90.3208 31.0817 87.109 31.1557 83.9008C31.2178 81.1999 32.5062 79.1625 34.8846 77.8508C35.2225 77.6646 35.5998 77.5452 35.9676 77.4187C36.869 77.1084 37.7753 76.8136 38.6791 76.5081C38.8594 76.4508 39.0325 76.3732 39.2642 76.2825ZM61.0284 60.6722C61.0284 59.9012 61.0284 59.3761 61.0284 58.8497C61.0272 57.9355 61.0618 58.0584 60.257 57.8483C59.4487 57.6383 58.632 57.4521 57.8344 57.2074C55.5193 56.4973 53.3235 55.5126 51.2615 54.2379C50.9833 54.066 50.7815 54.0947 50.526 54.2821C48.2359 55.9649 45.6927 57.0905 42.9166 57.6908C42.3483 57.8137 41.7692 57.8925 41.1949 57.9904C40.7973 58.0572 40.685 58.1348 40.6922 58.4964C40.7197 59.9525 40.5943 61.411 40.777 62.866C41.1232 65.6135 42.3256 67.8884 44.4652 69.6584C46.7064 71.5119 49.3033 72.1696 52.1522 71.8724C53.9898 71.6802 55.6411 70.9784 57.0941 69.8171C58.9186 68.3598 60.1448 66.5206 60.7096 64.2493C61.0248 62.9925 61.063 61.7118 61.0284 60.6722ZM37.6774 62.3838C37.6642 62.6249 37.6427 62.8505 37.6427 63.0772C37.6403 65.5252 37.6188 67.9731 37.6475 70.421C37.6738 72.6518 38.7317 74.2953 40.6349 75.4231C40.9597 75.6153 41.2701 75.6392 41.6319 75.5079C42.4533 75.2095 43.2808 74.9219 44.119 74.6748C45.2891 74.3299 45.6724 73.9587 45.6198 72.499C45.6091 72.1863 45.4897 72.0108 45.2222 71.8581C44.0163 71.1694 42.9489 70.3184 42.0581 69.2359C40.9155 67.8466 40.094 66.3069 39.6654 64.5608C39.5543 64.1096 39.4934 63.6465 39.3991 63.1918C39.3573 62.9877 39.349 62.7418 39.0875 62.6798C38.6385 62.5759 38.1872 62.49 37.6774 62.3838ZM64.0253 62.3348C63.7435 62.4256 63.5298 62.5091 63.3077 62.5616C63.082 62.6153 62.8444 62.6225 62.6224 62.6869C62.5292 62.7144 62.4337 62.8242 62.3931 62.9197C62.3346 63.0605 62.3167 63.2193 62.294 63.3732C61.7734 66.9872 59.918 69.7324 56.8542 71.6754C56.0207 72.2042 56.1067 72.0598 56.0984 73.0564C56.0984 73.0755 56.0984 73.0958 56.0995 73.1148C56.1366 73.8369 56.4494 74.2738 57.1312 74.5089C58.1425 74.8574 59.1622 75.1856 60.1735 75.5341C60.4493 75.6296 60.6976 75.6284 60.9555 75.484C62.8695 74.4146 63.9943 72.8093 64.0528 70.6048C64.1196 68.0578 64.0695 65.5073 64.0671 62.9591C64.0695 62.7705 64.0444 62.5831 64.0253 62.3348ZM65.0104 87.109C65.1262 85.5992 63.8414 84.4928 62.4182 84.5C61.149 84.5059 59.8726 85.4703 59.8702 87.0804C59.8678 88.6726 61.106 89.6549 62.4445 89.6751C63.6623 89.693 65.1441 88.6177 65.0104 87.109ZM39.2534 58.1849C38.2182 58.1825 37.6021 58.8187 37.6427 59.7843C37.6797 60.6567 38.3352 61.2547 39.2749 61.1902C39.3131 60.1913 39.3525 59.1875 39.2534 58.1849ZM62.5364 61.2034C63.4558 61.2284 64.0647 60.5887 64.0766 59.6506C64.0862 58.8378 63.2958 58.025 62.5101 58.1957C62.3465 58.7232 62.3657 60.7844 62.5364 61.2034Z" fill="white" stroke="white" stroke-width="0.75" stroke-miterlimit="10"/>
<path d="M51.5335 84.7047C51.5239 85.1022 51.2099 85.4113 50.8314 85.3958C50.4541 85.3802 50.1616 85.0461 50.1795 84.6546C50.1974 84.2917 50.4959 84.0315 50.8816 84.0435C51.2648 84.053 51.543 84.3359 51.5335 84.7047Z" fill="white" stroke="white" stroke-width="0.75" stroke-miterlimit="10"/>
<path d="M51.5341 89.3144C51.5377 89.6808 51.2547 89.9577 50.8702 89.9636C50.4846 89.9696 50.192 89.7058 50.1801 89.3406C50.167 88.9467 50.4643 88.6209 50.844 88.6125C51.2237 88.6054 51.5305 88.9169 51.5341 89.3144Z" fill="white" stroke="white" stroke-width="0.75" stroke-miterlimit="10"/>
<path d="M51.5342 93.8807C51.5354 94.2244 51.1557 94.6099 50.8333 94.5932C50.524 94.5765 50.1826 94.2113 50.1778 93.8926C50.173 93.525 50.5217 93.18 50.8787 93.1968C51.2309 93.2123 51.533 93.5286 51.5342 93.8807Z" fill="white" stroke="white" stroke-width="0.75" stroke-miterlimit="10"/>
<path d="M50.816 67.8986C50.1522 67.9118 49.554 67.7101 49.0083 67.3401C48.7612 67.1718 48.6382 66.9426 48.6609 66.6466C48.6931 66.2229 49.1277 65.9567 49.5719 66.0976C49.7737 66.162 49.9635 66.2683 50.1581 66.3554C50.7384 66.6132 51.2972 66.5201 51.8441 66.2492C51.9312 66.2062 52.01 66.1441 52.0996 66.1107C52.447 65.9842 52.7957 66.0976 52.9688 66.3876C53.1348 66.6657 53.0655 67.0453 52.7813 67.278C52.2966 67.6742 51.7139 67.8211 51.1074 67.8974C51.0118 67.9082 50.9139 67.8986 50.816 67.8986Z" fill="white" stroke="white" stroke-width="0.75" stroke-miterlimit="10"/>
<path d="M46.6292 60.4892C46.6292 60.7219 46.6471 60.9559 46.6233 61.185C46.6054 61.3533 46.5588 61.5312 46.4752 61.6756C46.3439 61.9059 46.1278 62.0527 45.8519 62.0265C45.5857 62.0014 45.3791 61.8522 45.2812 61.5944C45.2275 61.4512 45.1761 61.2972 45.1714 61.1468C45.157 60.6826 45.1654 60.2183 45.1666 59.7528C45.1666 59.7146 45.1714 59.6752 45.1773 59.637C45.2561 59.1548 45.5331 58.8779 45.9188 58.8911C46.3081 58.9054 46.5874 59.205 46.6233 59.6752C46.6436 59.945 46.6268 60.2171 46.6268 60.488C46.628 60.4892 46.628 60.4892 46.6292 60.4892Z" fill="white" stroke="white" stroke-width="0.75" stroke-miterlimit="10"/>
<path d="M55.1049 60.4402C55.1049 60.1311 55.0631 59.8148 55.1145 59.514C55.204 58.9841 55.7592 58.7131 56.164 59.0056C56.3323 59.1261 56.4911 59.372 56.5067 59.5725C56.5532 60.1478 56.5246 60.7302 56.5246 61.3103C56.5246 61.3473 56.5079 61.3855 56.4971 61.4225C56.3896 61.7913 56.115 62.0371 55.8141 62.0359C55.4989 62.0336 55.1598 61.7423 55.1121 61.3688C55.0727 61.0644 55.1037 60.7505 55.1037 60.4414C55.1037 60.4402 55.1049 60.4402 55.1049 60.4402Z" fill="white" stroke="white" stroke-width="0.75" stroke-miterlimit="10"/>
<path fill-rule="evenodd" clip-rule="evenodd" d="M40.9622 3.16399C39.6062 3.16399 38.4762 4.29399 38.4762 5.64999V19.775C38.4762 21.131 39.578 22.261 40.9622 22.261H55.0872C56.4432 22.261 57.5732 21.1592 57.5732 19.775V5.64999C57.5732 4.29399 56.4715 3.16399 55.0872 3.16399H40.9622ZM36.3857 5.64999C36.3857 3.10749 38.4197 1.07349 40.9622 1.07349H55.0872C57.6297 1.07349 59.6637 3.10749 59.6637 5.64999V19.775C59.6637 22.3175 57.6297 24.3515 55.0872 24.3515H40.9622C38.4197 24.3515 36.3857 22.3175 36.3857 19.775V5.64999Z" fill="white" stroke="white" stroke-width="0.75" stroke-miterlimit="10"/>
<path fill-rule="evenodd" clip-rule="evenodd" d="M59.1555 7.74066L65.0315 4.35066C65.3423 4.15291 65.766 4.26591 65.9638 4.57666C66.0203 4.68966 66.0485 4.80266 66.0485 4.91566V20.5662C66.0485 21.0464 65.5118 21.3854 65.0315 21.1312L59.1555 17.7412L58.082 19.5209L63.958 22.9109C65.766 23.9562 68.1673 22.7132 68.1673 20.5097V4.88741C68.1673 2.71216 65.7943 1.4409 63.958 2.48616L58.1103 5.87616L59.1555 7.74066Z" fill="white" stroke="white" stroke-width="0.75" stroke-miterlimit="10"/>
</svg>
