<svg width="16" height="14" viewBox="0 0 16 14" fill="none" xmlns="http://www.w3.org/2000/svg">
<g clip-path="url(#clip0)">
<path d="M3.02958 6.82178C1.38964 5.37777 1.25538 2.90527 2.72958 1.29892C4.08158 -0.174274 6.34463 -0.424508 7.99796 0.716466C9.80029 -0.529455 12.2924 -0.108354 13.5643 1.65706C14.7315 3.27685 14.477 5.49583 12.9724 6.82178C14.842 7.78729 16.0092 9.69077 16.0008 11.7612V13.4403C16.0008 13.7496 15.745 14.0002 15.4293 14.0002H0.572346C0.256611 14.0002 0.000808716 13.7496 0.000808716 13.4403V11.7612C-0.00756073 9.69077 1.15962 7.78729 3.02958 6.82178ZM5.71517 1.12674C4.13951 1.1251 2.8605 2.37496 2.85882 3.91834C2.85748 5.01898 3.51608 6.01795 4.54096 6.46987C4.58482 6.48955 4.62901 6.50726 4.67354 6.52596C4.8145 6.58171 4.96015 6.62598 5.10847 6.65845C5.13693 6.66468 5.16573 6.66796 5.19486 6.67354C5.36059 6.70469 5.52901 6.72142 5.69776 6.72339C5.77376 6.72339 5.85043 6.71781 5.92644 6.71093C5.9549 6.71093 5.98369 6.71093 6.01215 6.70535C6.33693 6.66796 6.653 6.57679 6.9463 6.43544C6.95701 6.43052 6.96973 6.43085 6.98045 6.42658C7.0377 6.39969 7.09462 6.37608 7.14551 6.34591C7.14083 6.34033 7.13815 6.3341 7.13346 6.32852C6.8713 5.9986 6.66471 5.62997 6.52141 5.23642L6.50367 5.18952C6.43838 5.0016 6.38782 4.80908 6.35233 4.61362C6.3473 4.58509 6.34329 4.55754 6.3386 4.52671C6.30545 4.32764 6.28804 4.1266 6.2867 3.9249C6.28838 3.72386 6.30579 3.52282 6.3386 3.32441C6.34329 3.29522 6.3473 3.26833 6.35233 3.23783C6.38782 3.04236 6.43871 2.84985 6.50367 2.66193L6.52141 2.61503C6.66471 2.22148 6.8713 1.85285 7.13346 1.52292C7.13815 1.51735 7.14083 1.51111 7.14551 1.50554C6.71125 1.2576 6.21773 1.12674 5.71517 1.12674ZM13.1438 3.92523C13.1478 2.38349 11.8752 1.13068 10.3015 1.12674C9.56391 1.12478 8.8541 1.40322 8.32173 1.90368C8.28859 1.93517 8.25611 1.96632 8.22397 1.99879C8.12586 2.09947 8.03546 2.20705 7.9531 2.32052C7.92799 2.35528 7.90522 2.39202 7.88178 2.42809C7.80209 2.54845 7.73178 2.67472 7.67218 2.8059C7.65779 2.83771 7.64707 2.87018 7.63435 2.90199C7.57408 3.04695 7.52687 3.19683 7.49272 3.34966C7.4887 3.36639 7.4877 3.38311 7.48402 3.40049C7.4117 3.74813 7.4117 4.10626 7.48402 4.4539C7.48736 4.47128 7.4887 4.48801 7.49272 4.50474C7.52687 4.65757 7.57408 4.80744 7.63435 4.9524C7.64707 4.98421 7.65779 5.01668 7.67218 5.04849C7.73212 5.17935 7.80209 5.30561 7.88178 5.42565C7.90522 5.4614 7.92799 5.49846 7.9531 5.53322C8.03546 5.64669 8.12586 5.75427 8.22397 5.85495C8.25611 5.88742 8.28859 5.9189 8.32173 5.95006C8.55309 6.16618 8.81994 6.3423 9.1109 6.47184C9.15711 6.4925 9.20398 6.51153 9.25153 6.52792C9.38914 6.58138 9.5311 6.62467 9.67541 6.65681C9.71123 6.66468 9.7484 6.66927 9.78523 6.67518C9.94025 6.70338 10.0976 6.71912 10.2556 6.72175H10.3186C10.4763 6.71912 10.6337 6.70371 10.789 6.67518C10.8255 6.66895 10.8627 6.66468 10.8988 6.65681C11.0435 6.62467 11.1851 6.58171 11.3227 6.52792C11.3703 6.50956 11.4171 6.49054 11.4633 6.47184C12.4849 6.02024 13.1425 5.0239 13.1438 3.92523ZM5.71517 12.8808H14.8581V11.7615C14.8664 9.86459 13.6464 8.17133 11.8193 7.54329C10.8382 7.9434 9.735 7.9434 8.75398 7.54329C8.56314 7.6115 8.37731 7.69218 8.19752 7.78467C8.07865 7.84468 7.96883 7.9129 7.85466 7.98177C7.78033 8.02703 7.705 8.0713 7.63368 8.12115C7.52352 8.1979 7.4194 8.2812 7.31728 8.3668C7.25165 8.42288 7.18636 8.47863 7.12475 8.53471C7.03034 8.62195 6.94194 8.71443 6.8569 8.80889C6.79563 8.8771 6.73636 8.94663 6.67978 9.01813C6.60478 9.11225 6.53346 9.20834 6.46717 9.30739C6.40992 9.39135 6.35902 9.47858 6.3088 9.56615C6.25155 9.66224 6.19898 9.75866 6.1511 9.85902C6.10322 9.95904 6.0607 10.0689 6.01985 10.1758C5.98369 10.2686 5.94552 10.3611 5.91572 10.4556C5.87555 10.5854 5.84776 10.7196 5.81963 10.854C5.80256 10.9334 5.78012 11.0115 5.76773 11.0918C5.73392 11.3135 5.71651 11.5372 5.71584 11.7612L5.71517 12.8808ZM1.14388 12.8808H4.57243V11.7615C4.57243 11.5864 4.58281 11.4129 4.59888 11.241C4.60357 11.1905 4.6116 11.141 4.6173 11.0905C4.6327 10.9669 4.65044 10.8442 4.67455 10.7229C4.68493 10.671 4.69564 10.6189 4.70703 10.5668C4.73448 10.4421 4.76629 10.3185 4.80245 10.1962C4.8145 10.1558 4.82522 10.1148 4.83794 10.0751C4.99798 9.57402 5.22968 9.09782 5.52666 8.66065L5.5491 8.62884C5.6472 8.48585 5.75233 8.34778 5.86383 8.21397L5.86784 8.20905C5.98202 8.07032 6.10624 7.9352 6.23648 7.80762C6.22911 7.80762 6.22108 7.80762 6.21304 7.80762C6.05166 7.82829 5.88927 7.83976 5.72688 7.84108H5.69541C5.54474 7.83976 5.39474 7.83025 5.24508 7.81254C5.19821 7.80697 5.152 7.79844 5.10513 7.79123C4.98359 7.77286 4.86372 7.74925 4.7452 7.72006C4.71138 7.71153 4.67723 7.70399 4.64308 7.69415C4.48772 7.65283 4.33504 7.60199 4.18605 7.54198C2.3576 8.16936 1.13651 9.86361 1.14489 11.7612L1.14388 12.8808Z" fill="#0066FF"/>
</g>
<defs>
<clipPath id="clip0">
<rect width="16" height="14" fill="white" transform="matrix(-1 0 0 1 16 0)"/>
</clipPath>
</defs>
</svg>
