<svg width="21" height="11" viewBox="0 0 21 11" fill="none" xmlns="http://www.w3.org/2000/svg">
<path fill-rule="evenodd" clip-rule="evenodd" d="M11.8691 0.405039C12.3751 -0.0898489 13.2032 -0.0898489 13.7092 0.405039C14.1922 0.899926 14.2152 1.66475 13.7322 2.15964L6.83186 10.5952C6.34884 11.0901 5.5438 11.1351 5.01478 10.6402C4.99178 10.6402 4.99178 10.6177 4.96878 10.6177L0.41456 6.16373C-0.114465 5.69134 -0.137467 4.88152 0.345556 4.38663C0.828579 3.89175 1.65662 3.82426 2.18564 4.29665C2.20864 4.31915 2.23165 4.34164 2.25465 4.36414L5.86582 7.89584L11.8461 0.427534L11.8691 0.405039ZM10.282 9.06557L11.8691 10.6177C12.3751 11.1126 13.2032 11.1126 13.7092 10.6177L13.7322 10.5952L20.6095 2.18213C21.1155 1.68725 21.1155 0.899926 20.6325 0.382544C20.1265 -0.112344 19.3215 -0.134839 18.8154 0.360049C18.7924 0.382544 18.7694 0.405039 18.7464 0.427534L12.7661 7.89584L11.9151 7.08602L10.282 9.06557Z" fill="#3BC4CA"/>
</svg>
