<svg width="19" height="19" viewBox="0 0 19 19" fill="none" xmlns="http://www.w3.org/2000/svg">
<path fill-rule="evenodd" clip-rule="evenodd" d="M12.3971 12.3971C12.8563 11.9379 13.6163 11.9379 14.0754 12.3971L18.6513 16.9729C19.1104 17.4321 19.1104 18.1921 18.6513 18.6513C18.1921 19.1104 17.4321 19.1104 16.9729 18.6513L12.3971 14.0754C11.9379 13.6163 11.9379 12.8721 12.3971 12.3971Z" fill="#7A7A7A"/>
<path fill-rule="evenodd" clip-rule="evenodd" d="M7.72667 14.25C11.3208 14.25 14.25 11.3208 14.25 7.72667C14.25 4.1325 11.3208 1.1875 7.72667 1.1875C4.11667 1.1875 1.20333 4.11667 1.20333 7.71083C1.20333 11.305 4.11667 14.25 7.72667 14.25ZM15.4375 7.72667C15.4375 11.9858 11.9858 15.4533 7.71083 15.4533C3.43583 15.4533 0 11.9858 0 7.72667C0 3.4675 3.45167 0 7.72667 0C12.0017 0 15.4375 3.45167 15.4375 7.72667Z" fill="#7A7A7A"/>
</svg>
