<svg width="26" height="26" viewBox="0 0 26 26" fill="none" xmlns="http://www.w3.org/2000/svg">
<g clip-path="url(#clip0)">
<path d="M13.0001 0C11.3248 0 9.9668 1.35796 9.9668 3.03333C9.96896 4.70763 11.3258 6.0645 13.0001 6.06667C14.6755 6.06667 16.0335 4.70871 16.0335 3.03333C16.0335 1.35796 14.6755 0 13.0001 0ZM13.0001 5.2C11.8036 5.2 10.8335 4.22988 10.8335 3.03333C10.8351 1.83733 11.8041 0.868292 13.0001 0.866667C14.1967 0.866667 15.1668 1.83679 15.1668 3.03333C15.1668 4.22988 14.1967 5.2 13.0001 5.2Z" fill="#888888"/>
<path d="M14.2998 6.5H11.6998C9.54668 6.50217 7.80197 8.24688 7.7998 10.4V17.7667H9.53314V26H10.3998V16.0333H9.53314V16.9H8.66647V10.4C8.66864 8.72571 10.0255 7.36883 11.6998 7.36667H14.2998C15.9741 7.36883 17.331 8.72571 17.3331 10.4V16.9H16.4665V16.0333H15.5998V26H16.4665V17.7667H18.1998V10.4C18.1976 8.24688 16.4529 6.50217 14.2998 6.5Z" fill="#888888"/>
<path d="M13.4331 17.7676H12.5664V26.0009H13.4331V17.7676Z" fill="#888888"/>
<path d="M21.6664 4.33398C20.2304 4.33398 19.0664 5.49803 19.0664 6.93398C19.068 8.3694 20.231 9.53236 21.6664 9.53398C23.1024 9.53398 24.2664 8.36994 24.2664 6.93398C24.2664 5.49803 23.1024 4.33398 21.6664 4.33398ZM21.6664 8.66732C20.7093 8.66732 19.9331 7.89111 19.9331 6.93398C19.9331 5.97686 20.7093 5.20065 21.6664 5.20065C22.6235 5.20065 23.3997 5.97686 23.3997 6.93398C23.3997 7.89111 22.6235 8.66732 21.6664 8.66732Z" fill="#888888"/>
<path d="M22.9664 9.9668H19.0664V10.8335H22.9664C24.1624 10.8351 25.1314 11.8041 25.1331 13.0001V18.6335H24.2664V17.7668H23.3997V26.0001H24.2664V19.5001H25.9997V13.0001C25.9976 11.3258 24.6407 9.96896 22.9664 9.9668Z" fill="#888888"/>
<path d="M19.0668 17.7676V18.6342H17.3335V19.5009H19.0668V26.0009H19.9335V17.7676H19.0668Z" fill="#888888"/>
<path d="M22.1001 19.5H21.2334V26H22.1001V19.5Z" fill="#888888"/>
<path d="M4.3334 4.33398C2.89744 4.33398 1.7334 5.49803 1.7334 6.93398C1.73502 8.3694 2.89798 9.53236 4.3334 9.53398C5.76936 9.53398 6.9334 8.36994 6.9334 6.93398C6.9334 5.49803 5.76936 4.33398 4.3334 4.33398ZM4.3334 8.66732C3.37627 8.66732 2.60007 7.89111 2.60007 6.93398C2.60007 5.97686 3.37627 5.20065 4.3334 5.20065C5.29052 5.20065 6.06673 5.97686 6.06673 6.93398C6.06673 7.89111 5.29052 8.66732 4.3334 8.66732Z" fill="#888888"/>
<path d="M3.03333 9.9668C1.35904 9.96896 0.001625 11.3258 0 13.0001V19.5001H1.73333V26.0001H2.6V17.7668H1.73333V18.6335H0.866667V13.0001C0.868292 11.8041 1.83733 10.8351 3.03333 10.8335H6.93333V9.9668H3.03333Z" fill="#888888"/>
<path d="M6.93307 18.6342V17.7676H6.06641V26.0009H6.93307V19.5009H8.66641V18.6342H6.93307Z" fill="#888888"/>
<path d="M4.76657 19.5H3.8999V26H4.76657V19.5Z" fill="#888888"/>
</g>
<defs>
<clipPath id="clip0">
<rect width="26" height="26" fill="white"/>
</clipPath>
</defs>
</svg>
