<svg width="29" height="22" viewBox="0 0 29 22" fill="none" xmlns="http://www.w3.org/2000/svg">
<path d="M27.7035 16.1534L25.9488 15.6354C25.8729 15.6131 25.8202 15.5405 25.8202 15.4592V14.854C25.9629 14.7515 26.0989 14.6374 26.2263 14.5098C26.8431 13.8911 27.183 13.0618 27.183 12.1733V11.338L27.3523 10.9874C27.5387 10.6029 27.6367 10.1715 27.6367 9.7413V7.47908C27.6367 7.23676 27.4463 7.0401 27.2119 7.0401H23.1241C21.6379 7.0401 20.428 8.28973 20.428 9.82617V9.85251C20.428 10.2101 20.5101 10.5683 20.6648 10.8885L20.8823 11.338V12.055C20.8823 13.1911 21.4243 14.2107 22.245 14.8247V15.4592C22.245 15.5569 22.245 15.5973 21.8944 15.7009L21.0386 15.9538L18.5623 15.0231C18.5713 14.9026 18.5317 14.7796 18.4467 14.6872L17.6554 13.8279V12.3851C17.7393 12.3137 17.8214 12.2406 17.9013 12.1633C18.8993 11.1964 19.4719 9.83144 19.4719 8.41791V7.26603C19.7732 6.58824 19.9262 5.87065 19.9262 5.13199V0.438982C19.9262 0.196664 19.7359 0 19.5014 0H13.1429C10.905 0 9.08459 1.88118 9.08459 4.19374V5.13258C9.08459 5.87123 9.23752 6.58882 9.53885 7.26661V8.25754C9.53885 9.89875 10.2452 11.3767 11.3559 12.3518V13.8279L10.5646 14.6872C10.4791 14.7796 10.44 14.9026 10.4491 15.0231L7.8351 16.0053C7.64592 16.0767 7.46977 16.1727 7.31004 16.2897L6.89939 16.0779C8.12113 15.5282 8.50799 14.7556 8.52668 14.717C8.58672 14.5935 8.58672 14.4478 8.52668 14.3243C8.22025 13.6915 8.18344 12.5309 8.15342 11.5991C8.14322 11.2889 8.13416 10.9956 8.11603 10.7346C7.97104 8.62921 6.42248 7.04127 4.51256 7.04127C2.60264 7.04127 1.05408 8.62921 0.909082 10.7346C0.890957 10.9956 0.881895 11.2889 0.871699 11.5991C0.84168 12.5309 0.804863 13.691 0.498438 14.3243C0.438398 14.4478 0.438398 14.5935 0.498438 14.717C0.517129 14.7556 0.903418 15.5265 2.12742 16.0767L0.987246 16.6655C0.378359 16.9804 0 17.6137 0 18.3172V21.5604C0 21.8028 0.190313 21.9994 0.424805 21.9994C0.659297 21.9994 0.849609 21.8028 0.849609 21.5604V18.3172C0.849609 17.9479 1.04842 17.6155 1.36787 17.4504L2.78729 16.717L3.28119 17.2016C3.6267 17.5405 4.06963 17.7103 4.51256 17.7103C4.95549 17.7103 5.39898 17.5405 5.74393 17.2016L6.23783 16.717L6.70059 16.9564C6.48252 17.317 6.35904 17.7395 6.35904 18.182V21.561C6.35904 21.8033 6.54936 22 6.78385 22C7.01834 22 7.20865 21.8033 7.20865 21.561V18.182C7.20865 17.5792 7.57682 17.036 8.1251 16.83L10.8807 15.7946L12.0276 17.5727C12.1743 17.7998 12.4094 17.9462 12.6722 17.9731C12.7017 17.976 12.7305 17.9778 12.76 17.9778C12.9922 17.9778 13.2143 17.8835 13.3808 17.7115L14.0809 16.988V21.5604C14.0809 21.8028 14.2712 21.9994 14.5057 21.9994C14.7402 21.9994 14.9305 21.8028 14.9305 21.5604V16.988L15.6305 17.7115C15.7965 17.8829 16.0191 17.9778 16.2513 17.9778C16.2802 17.9778 16.3097 17.9766 16.3391 17.9731C16.6025 17.9462 16.8376 17.8004 16.9837 17.5733L18.1307 15.7951L20.8862 16.8306C21.4345 17.0366 21.8027 17.5798 21.8027 18.1826V21.5616C21.8027 21.8039 21.993 22.0006 22.2275 22.0006C22.462 22.0006 22.6523 21.8039 22.6523 21.5616V18.1826C22.6523 17.5721 22.4178 16.9997 22.0241 16.5765L22.1289 16.5455C22.2348 16.5145 22.3793 16.4712 22.5243 16.398L23.6089 17.5189V21.5616C23.6089 21.8039 23.7993 22.0006 24.0338 22.0006C24.2682 22.0006 24.4586 21.8039 24.4586 21.5616V17.5183L25.5359 16.405C25.5931 16.4349 25.6531 16.4606 25.7165 16.4794L27.4713 16.9974C27.8717 17.1156 28.1515 17.499 28.1515 17.9292V21.5604C28.1515 21.8028 28.3418 21.9994 28.5763 21.9994C28.8108 21.9994 29.0011 21.8028 29.0011 21.5604V17.9292C29 17.1092 28.467 16.3787 27.7035 16.1534ZM2.72555 15.3778C1.93088 15.0822 1.53213 14.6883 1.36221 14.4735C1.47832 14.1604 1.55365 13.801 1.60406 13.4223C1.83855 14.0029 2.23051 14.4981 2.72555 14.8516V15.3778ZM5.15883 16.566C4.79633 16.9219 4.22879 16.9219 3.86686 16.566L3.47207 16.1779C3.53891 16.0492 3.57516 15.9028 3.57516 15.7495V15.2818C3.87139 15.3778 4.18631 15.4293 4.51312 15.4293C4.83938 15.4293 5.1543 15.3772 5.45109 15.2824V15.7501C5.45109 15.9034 5.48791 16.0498 5.55418 16.1791L5.15883 16.566ZM4.51312 14.5508C3.24437 14.5508 2.21238 13.4843 2.21238 12.1738C2.21238 11.9315 2.02207 11.7349 1.78758 11.7349C1.76379 11.7349 1.74057 11.7372 1.71791 11.7413C1.71904 11.7038 1.72018 11.6658 1.72187 11.6283C1.7315 11.3263 1.74057 11.0413 1.75699 10.7966C1.81137 10.0076 2.11609 9.28125 2.61566 8.74978C3.11977 8.21364 3.79322 7.91865 4.51256 7.91865C5.23189 7.91865 5.90535 8.21364 6.40945 8.74978C6.90902 9.28066 7.21432 10.0076 7.26813 10.7966C7.28512 11.0413 7.29418 11.3263 7.30381 11.6277C7.30437 11.6535 7.30551 11.6798 7.30607 11.7062C6.84389 10.9704 6.13021 10.4279 5.20811 10.1217C4.35623 9.83904 3.6233 9.8566 3.59215 9.85719C3.48113 9.86012 3.37521 9.9087 3.29818 9.99122L2.53184 10.8124C2.36871 10.9868 2.37381 11.2649 2.5426 11.4334C2.71139 11.602 2.98043 11.5967 3.14299 11.4223L3.78076 10.7387C4.33018 10.7662 6.0968 10.9786 6.78441 12.5426C6.61223 13.6945 5.65387 14.5508 4.51312 14.5508ZM6.30014 15.379V14.8551C6.79404 14.5034 7.18713 14.0088 7.42162 13.4241C7.4726 13.8022 7.54793 14.1604 7.66348 14.4729C7.49412 14.6866 7.09367 15.084 6.30014 15.379ZM10.3879 8.25754V7.16828C10.3879 7.10214 10.3732 7.03717 10.3454 6.97747C10.0718 6.39275 9.93363 5.77173 9.93363 5.13258V4.19374C9.93363 2.36523 11.3734 0.877963 13.1423 0.877963H19.0766V5.13258C19.0766 5.77173 18.9378 6.39216 18.6648 6.97747C18.637 7.03717 18.6223 7.10214 18.6223 7.16828V8.41791C18.6223 9.60668 18.1596 10.7094 17.3201 11.523C17.2154 11.6242 17.1066 11.7196 16.9939 11.8086C16.9916 11.8104 16.9888 11.8121 16.9865 11.8139C16.1998 12.4314 15.2363 12.7311 14.2298 12.6637C12.0758 12.5198 10.3879 10.5841 10.3879 8.25754ZM12.7798 17.0904C12.777 17.0934 12.7702 17.1004 12.756 17.0992C12.7424 17.098 12.7368 17.0893 12.7345 17.0858L11.4137 15.0378L11.839 14.5759L13.843 15.9918L12.7798 17.0904ZM14.5057 15.3966L12.2049 13.7717V12.9523C12.8002 13.2848 13.4669 13.4925 14.1754 13.54C14.2876 13.5476 14.3986 13.5511 14.5096 13.5511C15.3219 13.5511 16.1035 13.3503 16.8058 12.9699V13.7717L14.5057 15.3966ZM16.2762 17.0858C16.274 17.0893 16.2683 17.0975 16.2547 17.0992C16.2411 17.101 16.2343 17.0934 16.2309 17.0904L15.1678 15.9918L17.1723 14.5759L17.5977 15.0378L16.2762 17.0858ZM24.0332 16.7153L23.0692 15.7191C23.0862 15.64 23.0952 15.5534 23.0952 15.4586V15.2731C23.3626 15.3638 23.6446 15.4176 23.9363 15.4264C23.9692 15.4276 24.0015 15.4282 24.0343 15.4282C24.3566 15.4282 24.6715 15.3778 24.9712 15.2818V15.4586C24.9712 15.5464 24.9819 15.6318 25.0017 15.7144L24.0332 16.7153ZM25.635 13.8794C25.1847 14.3307 24.59 14.5695 23.9618 14.5496C22.7327 14.5116 21.7324 13.3925 21.7324 12.0556V11.235C21.7324 11.1665 21.7171 11.0998 21.6877 11.0389L21.4254 10.4963C21.3292 10.2973 21.2787 10.0749 21.2787 9.85309V9.82675C21.2787 8.77495 22.1068 7.91865 23.1252 7.91865H26.7882V9.74188C26.7882 10.0363 26.7208 10.3313 26.5933 10.5953L26.3787 11.0383C26.3492 11.0992 26.3339 11.1665 26.3339 11.2344V12.1733C26.3334 12.8218 26.0853 13.4276 25.635 13.8794Z" fill="#888888"/>
</svg>
