<svg width="24" height="16" viewBox="0 0 24 16" fill="none" xmlns="http://www.w3.org/2000/svg">
<g clip-path="url(#clip0)">
<path d="M22.7691 0H1.23094C0.553594 0 0 0.554068 0 1.23095V14.7695C0 15.4464 0.553594 16.0005 1.23094 16.0005H22.7695C23.4464 16.0005 24.0005 15.4464 24.0005 14.7695V1.23095C24 0.554068 23.4459 0 22.7691 0ZM22.3073 0.922978L12.7078 8.12305C12.5353 8.2543 12.2705 8.33633 12 8.33539C11.7295 8.3368 11.4647 8.2543 11.2922 8.12305L1.69266 0.922978H22.3073ZM17.1797 8.59836L22.4105 15.0601C22.4156 15.0667 22.4222 15.0714 22.4278 15.0775H1.57219C1.57781 15.0714 1.58438 15.0667 1.58953 15.0601L6.82031 8.59836C6.98063 8.40008 6.95016 8.10992 6.75187 7.94914C6.55359 7.78883 6.26344 7.81929 6.10312 8.01758L0.923438 14.4161V1.50001L10.7386 8.86181C11.1075 9.1365 11.5566 9.25743 12 9.25884C12.443 9.2579 12.8925 9.13696 13.2614 8.86181L23.0766 1.50001V14.4156L17.8969 8.01711C17.7366 7.81883 17.4459 7.78836 17.2481 7.94867C17.0498 8.10945 17.0194 8.40008 17.1797 8.59836Z" fill="#0066FF"/>
</g>
<defs>
<clipPath id="clip0">
<rect width="24" height="16" fill="white"/>
</clipPath>
</defs>
</svg>
