<svg width="49" height="49" viewBox="0 0 49 49" fill="none" xmlns="http://www.w3.org/2000/svg">
<path d="M7.75689 37.8933C9.92106 34.3817 14.6986 30.625 24.4986 30.625C34.2986 30.625 39.0761 34.3817 41.2402 37.8933C37.1569 42.9975 31.0319 45.9375 24.4986 45.9375C17.9652 45.9375 11.7994 42.9975 7.75689 37.8933Z" fill="#0066FF"/>
<path fill-rule="evenodd" clip-rule="evenodd" d="M24.5 27.5625C19.4367 27.5625 15.3125 23.4383 15.3125 18.375C15.3125 13.3117 19.4367 9.1875 24.5 9.1875C29.5633 9.1875 33.6875 13.3117 33.6875 18.375C33.6875 23.4383 29.5633 27.5625 24.5 27.5625Z" fill="#0066FF"/>
<path fill-rule="evenodd" clip-rule="evenodd" d="M24.5 3.0625C36.3417 3.0625 45.9375 12.6583 45.9375 24.5C45.9375 36.3417 36.3417 45.9375 24.5 45.9375C12.6583 45.9375 3.0625 36.3417 3.0625 24.5C3.0625 12.6583 12.6583 3.0625 24.5 3.0625ZM49 24.5C49 10.9842 38.0158 0 24.5 0C10.9842 0 0 10.9842 0 24.5C0 38.0158 10.9842 49 24.5 49C38.0158 49 49 38.0158 49 24.5Z" fill="#0066FF"/>
</svg>
