<svg width="33" height="34" viewBox="0 0 33 34" fill="none" xmlns="http://www.w3.org/2000/svg">
<path d="M20.1233 7.8834C18.9655 7.41638 17.7374 7.17969 16.4733 7.17969C11.5447 7.17969 7.37172 10.8631 6.76663 15.7472C6.7171 16.1471 6.69189 16.5559 6.69189 16.962C6.69189 22.3556 11.0796 26.7438 16.4733 26.7438C21.8674 26.7438 26.256 22.3558 26.256 16.962C26.256 12.945 23.8486 9.38133 20.1233 7.8834ZM16.4733 25.648C11.6838 25.648 7.78768 21.7516 7.78768 16.962C7.78768 16.601 7.81003 16.2374 7.8543 15.882C8.39123 11.5455 12.0965 8.27547 16.4733 8.27547C17.5965 8.27547 18.6868 8.48542 19.7142 8.89985C23.0226 10.2301 25.1602 13.3947 25.1602 16.962C25.1602 21.7514 21.2634 25.648 16.4733 25.648ZM21.0475 16.4138H11.9004C11.5977 16.4138 11.3525 16.6591 11.3525 16.9617C11.3525 17.2644 11.5977 17.5096 11.9004 17.5096H21.0475C21.3502 17.5096 21.5954 17.2644 21.5954 16.9617C21.5954 16.6591 21.3502 16.4138 21.0475 16.4138Z" fill="white"/>
<path d="M7.39561 13.3127C6.92858 14.4705 6.69189 15.6987 6.69189 16.9627C6.69189 21.8914 10.3753 26.0643 15.2594 26.6694C15.6593 26.7189 16.0681 26.7441 16.4742 26.7441C21.8678 26.7441 26.256 22.3564 26.256 16.9627C26.256 11.5686 21.868 7.18004 16.4742 7.18004C12.4572 7.18004 8.89354 9.58747 7.39561 13.3127ZM25.1602 16.9627C25.1602 21.7522 21.2638 25.6484 16.4742 25.6484C16.1132 25.6484 15.7496 25.626 15.3942 25.5817C11.0577 25.0448 7.78768 21.3395 7.78768 16.9627C7.78768 15.8396 7.99763 14.7493 8.41205 13.7219C9.74233 10.4135 12.907 8.27582 16.4742 8.27582C21.2636 8.27582 25.1602 12.1726 25.1602 16.9627ZM15.9261 12.3885V21.5357C15.9261 21.8383 16.1713 22.0836 16.4739 22.0836C16.7766 22.0836 17.0218 21.8383 17.0218 21.5357V12.3885C17.0218 12.0859 16.7766 11.8406 16.4739 11.8406C16.1713 11.8406 15.9261 12.0859 15.9261 12.3885Z" fill="white"/>
</svg>
