<svg width="29" height="29" viewBox="0 0 29 29" fill="none" xmlns="http://www.w3.org/2000/svg">
<path d="M11.4679 6.76667H10.3017C9.13972 6.76667 8.04723 7.21919 7.22544 8.04085L1.59013 13.6747C1.49949 13.7653 1.44873 13.8886 1.44873 14.0167C1.44873 14.1447 1.49949 14.268 1.59013 14.3586L4.00716 16.7753C4.19569 16.9638 4.50205 16.9638 4.69057 16.7753L9.18263 12.2839V17.319L5.34257 28.3578C5.29121 28.5058 5.31417 28.6689 5.40481 28.797C5.49605 28.9245 5.64288 29 5.79878 29H10.1494C10.3555 29 10.5386 28.8695 10.6057 28.6756L14.0433 18.7944L17.9166 28.6925C17.9891 28.878 18.1679 29 18.3667 29H22.7174C22.8769 29 23.0268 28.9215 23.1168 28.7891C23.2068 28.6568 23.2256 28.4895 23.1676 28.3402L18.8501 17.3088V12.2833L23.3422 16.7747C23.5307 16.9632 23.8371 16.9632 24.0256 16.7747L26.4426 14.358C26.5333 14.2674 26.584 14.1441 26.584 14.0161C26.584 13.888 26.5333 13.7647 26.4426 13.6741L20.8073 8.04025C19.9874 7.21919 18.8955 6.76667 17.7329 6.76667H16.5667C17.3727 6.05737 17.8845 5.02183 17.8845 3.86667C17.8845 1.73456 16.1497 0 14.0173 0C11.8849 0 10.15 1.73456 10.15 3.86667C10.15 5.02183 10.6618 6.05737 11.4679 6.76667ZM17.7329 7.73333C18.6368 7.73333 19.4864 8.08496 20.1251 8.72417L25.4184 14.0167L23.6848 15.75L18.7094 10.7753C18.571 10.637 18.3631 10.5965 18.1824 10.6708C18.0018 10.7457 17.8839 10.9221 17.8839 11.1173V17.4006C17.8839 17.461 17.8954 17.5202 17.9172 17.5764L22.0104 28.0333H18.6979L14.4675 17.2242C14.395 17.0387 14.2161 16.9167 14.0173 16.9167C14.0143 16.9167 14.0113 16.9167 14.0076 16.9167C13.8058 16.9209 13.6269 17.0502 13.5605 17.2411L9.80622 28.0333H6.47918L10.1229 17.5589C10.141 17.5075 10.15 17.4544 10.15 17.4V11.1167C10.15 10.9215 10.0322 10.7451 9.85154 10.6702C9.67087 10.5959 9.463 10.637 9.32463 10.7747L4.34917 15.7494L2.61555 14.0167L7.90885 8.72417C8.54816 8.08496 9.39714 7.73333 10.3011 7.73333H17.7329ZM14.0173 0.966667C15.6168 0.966667 16.9177 2.26744 16.9177 3.86667C16.9177 5.4659 15.6168 6.76667 14.0173 6.76667C12.4178 6.76667 11.1169 5.4659 11.1169 3.86667C11.1169 2.26744 12.4178 0.966667 14.0173 0.966667Z" fill="#0066FF"/>
<path d="M13.6842 14.851C13.7778 14.9392 13.8969 14.9839 14.0171 14.9839C14.1374 14.9839 14.2564 14.9398 14.3501 14.851L16.4227 12.8839C16.7417 12.5818 16.9176 12.1776 16.9176 11.7462C16.9176 11.3148 16.7417 10.9113 16.4233 10.6086C15.7828 10.0014 14.7398 10.0008 14.0993 10.6086C14.0987 10.6086 14.0987 10.6086 14.0987 10.6086L14.0171 10.6859L13.935 10.608C13.295 10.0008 12.2521 10.0002 11.6116 10.608C11.2925 10.91 11.1167 11.3142 11.1167 11.7456C11.1167 12.177 11.2925 12.5806 11.611 12.8833L13.6842 14.851ZM12.2763 11.3106C12.4134 11.1807 12.5929 11.1155 12.773 11.1155C12.953 11.1155 13.1325 11.1801 13.2697 11.31L13.6842 11.7033C13.8709 11.8803 14.1628 11.8803 14.3501 11.7033L14.7646 11.31C15.0383 11.0502 15.4837 11.0508 15.7586 11.31C15.8825 11.4278 15.9514 11.5831 15.9514 11.7462C15.9514 11.9093 15.8831 12.0646 15.758 12.1824L14.0177 13.8342L12.2769 12.1824C12.153 12.0646 12.0841 11.9093 12.0841 11.7462C12.0841 11.5831 12.1518 11.4284 12.2763 11.3106Z" fill="#0066FF"/>
<path d="M24.0377 4.70186C23.8014 4.46019 23.5549 4.22578 23.3059 4.00586L22.666 4.73086C22.8974 4.93507 23.1265 5.15317 23.3476 5.37853L24.0377 4.70186Z" fill="#0066FF"/>
<path d="M20.84 2.25725C20.5463 2.09352 20.2436 1.93825 19.9408 1.79688L19.5317 2.67292C19.8133 2.80463 20.0955 2.94842 20.3686 3.10127L20.84 2.25725Z" fill="#0066FF"/>
<path d="M25.5589 8.4045L26.4133 7.95198C26.2556 7.65473 26.0864 7.3605 25.9087 7.07715L25.0894 7.59009C25.2549 7.8535 25.4126 8.1278 25.5589 8.4045Z" fill="#0066FF"/>
<path d="M27.0502 13.7979L28.0158 13.7465C27.9977 13.4094 27.9674 13.0711 27.9264 12.7412L26.9668 12.8614C27.0055 13.169 27.0333 13.4843 27.0502 13.7979Z" fill="#0066FF"/>
<path d="M26.3162 10.1233L27.2274 9.79825C27.1144 9.48227 26.9887 9.1669 26.8534 8.85938L25.9688 9.24967C26.0944 9.53604 26.2117 9.82967 26.3162 10.1233Z" fill="#0066FF"/>
<path d="M26.6396 20.6014L25.7701 20.1797C25.6347 20.4588 25.4861 20.7379 25.3296 21.0104L26.1671 21.4931C26.3357 21.2013 26.4946 20.9011 26.6396 20.6014Z" fill="#0066FF"/>
<path d="M27.3854 18.7277L26.4639 18.4365C26.369 18.7356 26.2632 19.0334 26.1484 19.3204L27.0464 19.6787C27.1696 19.3694 27.2838 19.0498 27.3854 18.7277Z" fill="#0066FF"/>
<path d="M25.6312 22.3486L24.8306 21.8066C24.6566 22.0634 24.4705 22.3184 24.2759 22.5649L25.0348 23.1636C25.2439 22.8984 25.4445 22.6241 25.6312 22.3486Z" fill="#0066FF"/>
<path d="M23.0103 23.9547L23.6767 24.6549C23.9191 24.4247 24.1565 24.1818 24.3831 23.9335L23.6683 23.2822C23.4574 23.5136 23.2362 23.7402 23.0103 23.9547Z" fill="#0066FF"/>
<path d="M26.817 11.9332L27.7651 11.7447C27.6992 11.4136 27.6207 11.0831 27.5319 10.7617L26.6001 11.0197C26.6823 11.3182 26.7554 11.6251 26.817 11.9332Z" fill="#0066FF"/>
<path d="M27.8528 16.7646L26.8981 16.6094C26.8479 16.9175 26.7863 17.2274 26.7144 17.5307L27.6546 17.7543C27.7325 17.428 27.799 17.0951 27.8528 16.7646Z" fill="#0066FF"/>
<path d="M28.0336 14.7556L27.0668 14.7393C27.0613 15.051 27.0444 15.367 27.0166 15.6769L27.9798 15.7633C28.0094 15.4298 28.0281 15.0909 28.0336 14.7556Z" fill="#0066FF"/>
<path d="M22.5264 3.36548C22.2617 3.16308 21.985 2.96612 21.7034 2.78125L21.1729 3.58902C21.4351 3.76121 21.6931 3.94427 21.9397 4.13277L22.5264 3.36548Z" fill="#0066FF"/>
<path d="M1.01576 15.6602C0.988566 15.3515 0.971647 15.0355 0.966813 14.7207L0 14.737C0.00604258 15.0747 0.0235661 15.4137 0.0531747 15.7448L1.01576 15.6602Z" fill="#0066FF"/>
<path d="M1.06924 12.8457L0.109682 12.7236C0.0679879 13.0535 0.0371707 13.3918 0.019043 13.729L0.984043 13.7821C1.00157 13.4674 1.02997 13.1526 1.06924 12.8457Z" fill="#0066FF"/>
<path d="M1.43868 11.0031L0.506913 10.7451C0.418087 11.0653 0.339534 11.3958 0.272461 11.7269L1.22054 11.9178C1.28278 11.6091 1.35589 11.3016 1.43868 11.0031Z" fill="#0066FF"/>
<path d="M8.51757 2.66668L8.1097 1.79004C7.80455 1.93141 7.50242 2.08608 7.20996 2.2486L7.68007 3.09322C7.95199 2.94218 8.23357 2.799 8.51757 2.66668Z" fill="#0066FF"/>
<path d="M2.95295 7.57604L2.13358 7.0625C1.95532 7.34706 1.78492 7.64069 1.62842 7.93613L2.48163 8.38985C2.62846 8.11496 2.78678 7.84127 2.95295 7.57604Z" fill="#0066FF"/>
<path d="M2.07117 9.23502L1.18654 8.84473C1.04937 9.15527 0.923683 9.47125 0.8125 9.7824L1.72251 10.1074C1.82644 9.81804 1.94307 9.52442 2.07117 9.23502Z" fill="#0066FF"/>
<path d="M5.38008 4.71951L4.74017 3.99512C4.48699 4.21866 4.24106 4.45247 4.00781 4.68991L4.69787 5.36657C4.9148 5.14545 5.14442 4.92795 5.38008 4.71951Z" fill="#0066FF"/>
<path d="M5.01692 23.9465C4.7873 23.7278 4.56675 23.5012 4.35948 23.2734L3.64404 23.9235C3.86641 24.1682 4.10328 24.4111 4.34921 24.6455L5.01692 23.9465Z" fill="#0066FF"/>
<path d="M4.06329 6.06109L3.3267 5.43457C3.10916 5.69013 2.89828 5.95657 2.70068 6.22724L3.48078 6.79818C3.66508 6.54684 3.86086 6.29913 4.06329 6.06109Z" fill="#0066FF"/>
<path d="M1.88059 19.3086C1.76517 19.018 1.65943 18.7201 1.56577 18.4229L0.643066 18.7135C0.743977 19.0331 0.857578 19.3533 0.98145 19.665L1.88059 19.3086Z" fill="#0066FF"/>
<path d="M6.87416 3.57949L6.34423 2.77051C6.06566 2.95297 5.78831 3.14932 5.52002 3.35353L6.10615 4.12263C6.35631 3.93172 6.61493 3.74926 6.87416 3.57949Z" fill="#0066FF"/>
<path d="M0.177734 16.7472C0.230909 17.0771 0.297377 17.4106 0.375327 17.7386L1.31555 17.5157C1.24304 17.2106 1.18141 16.9001 1.13246 16.5938L0.177734 16.7472Z" fill="#0066FF"/>
<path d="M2.69821 21.0003C2.54352 20.7314 2.39548 20.4517 2.25892 20.1689L1.38818 20.5907C1.53562 20.8939 1.69394 21.1942 1.86071 21.483L2.69821 21.0003Z" fill="#0066FF"/>
<path d="M3.75025 22.5557C3.5587 22.3122 3.37199 22.0573 3.19615 21.7969L2.39551 22.3382C2.58404 22.6179 2.78525 22.8922 2.99131 23.1538L3.75025 22.5557Z" fill="#0066FF"/>
<path d="M14.5209 28.508C14.8575 28.4959 15.1964 28.4711 15.5288 28.4349L15.423 27.4736C15.1143 27.5075 14.7988 27.5304 14.4858 27.5413L14.5209 28.508Z" fill="#0066FF"/>
<path d="M13.5101 28.508L13.5458 27.5419C13.2346 27.5304 12.9185 27.5075 12.608 27.4736L12.5034 28.4349C12.8376 28.4711 13.176 28.4959 13.5101 28.508Z" fill="#0066FF"/>
</svg>
