<?xml version="1.0" encoding="utf-8"?>
<!-- Generator: Adobe Illustrator 16.0.0, SVG Export Plug-In . SVG Version: 6.00 Build 0)  -->
<!DOCTYPE svg PUBLIC "-//W3C//DTD SVG 1.1//EN" "http://www.w3.org/Graphics/SVG/1.1/DTD/svg11.dtd">
<svg version="1.1" id="Layer_1" xmlns="http://www.w3.org/2000/svg" xmlns:xlink="http://www.w3.org/1999/xlink" x="0px" y="0px"
	 width="390px" height="173.25px" viewBox="0 0 390 173.25" enable-background="new 0 0 390 173.25" xml:space="preserve">
<polygon fill-rule="evenodd" clip-rule="evenodd" fill="#CB2A1E" points="121.976,25.61 121.976,54.677 85.632,54.677 
	85.632,73.722 121.976,73.722 121.976,104.009 142.655,104.009 142.655,73.722 176.996,73.722 176.996,54.85 142.655,54.85 
	142.655,25.61 "/>
<path fill-rule="evenodd" clip-rule="evenodd" fill="#FFFFFF" d="M226.883,88.55c13.517-2.03,15.315-13.951,15.315-25.988
	c0-10.731-3.51-20.708-15.315-22.159c-0.957-0.115-1.972-0.174-3.016-0.174h-12.299v48.64h10.993
	C224.128,88.868,225.549,88.753,226.883,88.55 M226.883,25.813c19.694,0.029,35.792,16.185,35.792,35.879v5.54
	c0,19.692-16.098,35.819-35.792,35.877c-0.029,0-0.058,0-0.087,0h-35.907V25.813h35.907
	C226.826,25.813,226.854,25.813,226.883,25.813z M146.224,25.813v14.966h31.672V25.784L146.224,25.813z M146.571,88.694v14.966
	h31.672V88.694H146.571z M86.01,76.391v27.078c6.454-0.019,12.951,0.004,19.404-0.011V76.391
	C98.956,76.391,92.467,76.391,86.01,76.391z M363.192,86.964c-3.393,1.356-9.16,2.488-14.361,2.488
	c-15.379,0-24.426-9.612-24.426-24.878c0-16.962,10.63-25.217,24.313-25.217c6.106,0,10.969,1.357,14.475,2.827l3.505-13.683
	c-3.053-1.583-9.838-3.279-18.771-3.279c-23.068,0-41.613,14.361-41.613,40.369c0,21.711,13.569,38.221,39.917,38.221
	c9.272,0,16.396-1.81,19.563-3.393L363.192,86.964z M277.59,26.354v76.215h17.301V26.354H277.59z M23.303,24.915h23.493
	L64.589,55.82l17.854-30.905c7.656,0,15.314,0,22.971,0v26.89c-6.468,0-12.937,0-19.404,0v0.345L66.78,85.331h-4.292L42.707,53.048
	v50.41H23.303V24.915z"/>
<path fill="#FFFFFF" d="M352.681,130.695l-3.729,7.876h7.429L352.681,130.695z M352.957,126.155l10.076,21.637h-2.325l-3.373-7.111
	h-9.377l-3.367,7.111h-2.41l10.234-21.637H352.957z M309.812,147.792l0.02-21.637h0.467l14.374,16.549l0.016-16.549h2.169
	l-0.02,21.637h-0.491l-14.289-16.403l-0.016,16.403H309.812z M290.683,126.155h2.169l-0.019,21.637h-2.17L290.683,126.155z
	 M274.634,130.148l-1.71,1.311c-0.938-1.225-2.066-2.154-3.387-2.787c-1.315-0.633-2.762-0.949-4.344-0.949
	c-1.723,0-3.32,0.417-4.793,1.245c-1.472,0.829-2.608,1.943-3.418,3.34s-1.217,2.974-1.219,4.716
	c-0.002,2.643,0.899,4.848,2.706,6.609c1.806,1.769,4.086,2.652,6.843,2.652c3.029,0,5.562-1.186,7.603-3.556l1.707,1.296
	c-1.082,1.371-2.429,2.436-4.041,3.185c-1.613,0.748-3.416,1.125-5.405,1.125c-3.786,0-6.774-1.261-8.957-3.782
	c-1.831-2.125-2.748-4.696-2.745-7.704c0.003-3.164,1.114-5.832,3.337-7.99c2.227-2.165,5.009-3.245,8.354-3.245
	c2.019,0,3.843,0.396,5.468,1.19C272.26,127.602,273.595,128.717,274.634,130.148z M235.359,126.155h2.17l-0.02,21.637h-2.169
	L235.359,126.155z M203.291,145.742h2.496c2.983,0,5.048-0.186,6.203-0.557c1.623-0.532,2.904-1.481,3.835-2.857
	c0.93-1.382,1.393-3.064,1.396-5.053c0.001-2.085-0.499-3.873-1.508-5.349c-1.003-1.481-2.408-2.497-4.206-3.044
	c-1.351-0.412-3.575-0.618-6.674-0.618h-1.527L203.291,145.742z M201.208,147.792l0.02-21.637h4.49c3.234,0,5.584,0.261,7.046,0.779
	c2.099,0.737,3.739,2.008,4.918,3.827c1.179,1.813,1.77,3.972,1.768,6.483c-0.002,2.17-0.471,4.073-1.411,5.721
	c-0.936,1.647-2.157,2.867-3.649,3.65c-1.497,0.784-3.597,1.176-6.295,1.176H201.208z M173.094,126.155h12.385l-0.002,2.109h-10.215
	l-0.006,6.781h10.125l-0.001,2.108h-10.125l-0.007,8.528h10.125l-0.002,2.109h-12.295L173.094,126.155z M132.41,147.792
	l3.018-21.637h0.447l8.789,17.749l8.764-17.749h0.327l3.095,21.637h-2.094l-2.156-15.489l-7.678,15.489h-0.567l-7.726-15.61
	l-2.089,15.61H132.41z M105.23,126.155h12.385l-0.002,2.109h-10.215l-0.006,6.781h10.125l-0.001,2.108h-10.125l-0.007,8.528h10.125
	l-0.002,2.109H105.21L105.23,126.155z M79.276,126.155h2.17l-0.017,19.527h8.347l-0.002,2.109H79.257L79.276,126.155z
	 M51.142,126.155h12.385l-0.002,2.109H53.31l-0.006,6.781h10.125l-0.001,2.108H53.303l-0.007,8.528H63.42l-0.002,2.109H51.123
	L51.142,126.155z M24.131,128.265l0.002-2.109h11.842l-0.002,2.109h-4.821l-0.017,19.527h-2.201l0.017-19.527H24.131z"/>
</svg>
