<svg xmlns="http://www.w3.org/2000/svg" xmlns:xlink="http://www.w3.org/1999/xlink" width="512" height="512" viewBox="0 0 512 512">
  <defs>
    <clipPath id="clip-path">
      <path id="Trazado_399" data-name="Trazado 399" d="M119.108,19.177h40.356V-38.615h71.767V-73.947H159.463v-55.786H119.108l0,55.781H48.227l.046,35.337h70.835Z" transform="translate(-48.227 129.732)" fill="none" clip-rule="evenodd"/>
    </clipPath>
    <clipPath id="clip-path-2">
      <path id="Trazado_398" data-name="Trazado 398" d="M-84,1028.273H2126.471V-551H-84Z" transform="translate(84 551)" fill="none"/>
    </clipPath>
    <clipPath id="clip-path-3">
      <path id="Trazado_402" data-name="Trazado 402" d="M238.305-47.261h3.6v-7.991l237.688-1.505v-1.359L241.906-59.349v-7.595h-3.6v7.595L.3-58.117v1.359l238.005,1.505Z" transform="translate(-0.3 66.943)" fill="none" clip-rule="evenodd"/>
    </clipPath>
    <clipPath id="clip-path-5">
      <path id="Trazado_405" data-name="Trazado 405" d="M85.191-15.705H76.809l-38.6-61.584V18.873H.347V-129.786H46.726L80.9-72l34.839-57.784h44.818v50.1H122.7" transform="translate(-0.347 129.786)" fill="none" clip-rule="evenodd"/>
    </clipPath>
    <clipPath id="clip-path-7">
      <path id="Trazado_408" data-name="Trazado 408" d="M48.227-91.817v51.653c12.583-.043,25.276,0,37.859-.023v-51.63Z" transform="translate(-48.227 91.817)" fill="none" clip-rule="evenodd"/>
    </clipPath>
    <clipPath id="clip-path-9">
      <path id="Trazado_410" data-name="Trazado 410" d="M94.036-54.085h65.941V-82.632H94.036Z" transform="translate(-94.036 82.632)" fill="none"/>
    </clipPath>
    <clipPath id="clip-path-10">
      <path id="Trazado_412" data-name="Trazado 412" d="M94.036-100.989h65.941V-129.6H94.036Z" transform="translate(-94.036 129.598)" fill="none"/>
    </clipPath>
    <clipPath id="clip-path-11">
      <path id="Trazado_415" data-name="Trazado 415" d="M203.365-9.3c26.544-3.9,30.068-26.794,30.068-49.9,0-20.615-6.895-39.763-30.068-42.564a52.631,52.631,0,0,0-5.926-.342H173.3V-8.7h21.568A58,58,0,0,0,203.365-9.3Zm0-120.485c38.659.061,70.29,31.079,70.29,68.9v10.664c0,37.8-31.632,68.772-70.29,68.88H132.676V-129.785h70.689Z" transform="translate(-132.676 129.785)" fill="none" clip-rule="evenodd"/>
    </clipPath>
    <clipPath id="clip-path-13">
      <path id="Trazado_418" data-name="Trazado 418" d="M457.312,7.727l7.93-.751A3.744,3.744,0,0,0,466.6,8.964a4.213,4.213,0,0,0,2.371.6,4.077,4.077,0,0,0,2.484-.664,1.573,1.573,0,0,0,.677-1.28,1.4,1.4,0,0,0-.879-1.28,16.969,16.969,0,0,0-3.458-.818,33.569,33.569,0,0,1-5.76-1.3A6.026,6.026,0,0,1,459.3,2.161a5.131,5.131,0,0,1-1.107-3.289,5.371,5.371,0,0,1,1.2-3.468,7.029,7.029,0,0,1,3.276-2.164,17.887,17.887,0,0,1,5.645-.728,20.819,20.819,0,0,1,5.512.552,7.2,7.2,0,0,1,2.959,1.743,9.061,9.061,0,0,1,1.988,3.161l-7.59.728a2.4,2.4,0,0,0-.994-1.436,3.905,3.905,0,0,0-2.259-.618,3.41,3.41,0,0,0-1.988.465,1.408,1.408,0,0,0-.608,1.147,1.2,1.2,0,0,0,.79,1.124,12.965,12.965,0,0,0,3.412.708,21.241,21.241,0,0,1,5.918,1.237,6.282,6.282,0,0,1,2.98,2.231,5.486,5.486,0,0,1,1.04,3.2,6.065,6.065,0,0,1-1.107,3.424,7.47,7.47,0,0,1-3.435,2.673,16.7,16.7,0,0,1-6.371.971c-3.815,0-6.527-.529-8.152-1.569A7.245,7.245,0,0,1,457.312,7.727Zm-11.2-4.063A34.311,34.311,0,0,1,442.674,4.7,8.262,8.262,0,0,0,439.6,5.941a1.925,1.925,0,0,0-.677,1.434,1.992,1.992,0,0,0,.657,1.523,2.931,2.931,0,0,0,1.942.578,5.348,5.348,0,0,0,2.484-.621,3.881,3.881,0,0,0,1.625-1.546,5.213,5.213,0,0,0,.475-2.384ZM439.2-.42l-7.633-.8A7.843,7.843,0,0,1,432.8-4.286a6.432,6.432,0,0,1,2.349-1.945,10.63,10.63,0,0,1,3.005-.948,27.169,27.169,0,0,1,4.178-.309,36.622,36.622,0,0,1,5.76.373,8,8,0,0,1,3.636,1.658,5.66,5.66,0,0,1,1.6,2.451A8.808,8.808,0,0,1,453.923.02V9.01a11.745,11.745,0,0,0,.181,2.274,12.329,12.329,0,0,0,.813,2.075h-7.5a7.15,7.15,0,0,1-.562-1.214,8.091,8.091,0,0,1-.3-1.28,9.952,9.952,0,0,1-3.115,2.1,12.983,12.983,0,0,1-4.924.861,8.4,8.4,0,0,1-5.668-1.7,5.314,5.314,0,0,1-1.922-4.153,5.306,5.306,0,0,1,1.377-3.82c.951-.994,2.645-1.745,5.149-2.231,3.005-.6,4.95-1.017,5.829-1.239.882-.243,1.83-.552,2.824-.925a2.75,2.75,0,0,0-.588-2.011,3.074,3.074,0,0,0-2.167-.6,5.7,5.7,0,0,0-2.936.621A3.365,3.365,0,0,0,439.2-.42ZM420.631,5.386l7.59.864a10.344,10.344,0,0,1-2.055,4.017,9.393,9.393,0,0,1-3.662,2.627,14.711,14.711,0,0,1-5.668.93,21.527,21.527,0,0,1-5.512-.6,9.6,9.6,0,0,1-3.792-1.942,9.967,9.967,0,0,1-2.51-3.2,11.081,11.081,0,0,1-.9-4.837,11.418,11.418,0,0,1,1.107-5.236,9.47,9.47,0,0,1,2.213-2.737,10.179,10.179,0,0,1,2.847-1.832,16.462,16.462,0,0,1,5.985-.928q5.113,0,7.792,1.789a9.223,9.223,0,0,1,3.751,5.211l-7.5.994A3.526,3.526,0,0,0,419-1.483a4.208,4.208,0,0,0-2.507-.659,4.105,4.105,0,0,0-3.207,1.39,6.268,6.268,0,0,0-1.219,4.217,5.524,5.524,0,0,0,1.219,3.843,4.076,4.076,0,0,0,3.095,1.283,4.271,4.271,0,0,0,2.645-.8A4.4,4.4,0,0,0,420.631,5.386Zm-28.642,7.976h8V-7.023h-8Zm0-22.841h8v-5.3h-8ZM378.823,3.112a5.243,5.243,0,0,0-1.04-3.578,3.328,3.328,0,0,0-2.619-1.193,2.934,2.934,0,0,0-2.351,1.147,5.95,5.95,0,0,0-.925,3.8,5.56,5.56,0,0,0,.971,3.642,2.972,2.972,0,0,0,2.394,1.15,3.249,3.249,0,0,0,2.553-1.15A5.813,5.813,0,0,0,378.823,3.112Zm8.016-17.888V13.359h-7.475V10.336a10.292,10.292,0,0,1-2.87,2.6,8.545,8.545,0,0,1-3.864.884,7.539,7.539,0,0,1-6.5-3.161,13.109,13.109,0,0,1-2.236-7.728c0-3.355.813-5.941,2.484-7.728a8.2,8.2,0,0,1,6.3-2.7,8.732,8.732,0,0,1,3.389.618,7.352,7.352,0,0,1,2.688,1.832v-9.739Zm-37.969-.486h6.867L349.413-9.52h-3.838ZM353.1,1.369a5.278,5.278,0,0,0-1.242-3.248,3.628,3.628,0,0,0-2.665-.992,3.706,3.706,0,0,0-3.049,1.48,5.524,5.524,0,0,0-.928,2.76ZM361.226,5.1H345.191a5.065,5.065,0,0,0,1.038,2.8,3.826,3.826,0,0,0,3.026,1.326,4.566,4.566,0,0,0,2.259-.575,5.452,5.452,0,0,0,1.38-1.28l7.881.708a11.535,11.535,0,0,1-4.36,4.416,16.551,16.551,0,0,1-7.316,1.326,15.467,15.467,0,0,1-6.529-1.147,9.565,9.565,0,0,1-3.93-3.624A10.884,10.884,0,0,1,337.08,3.2a10.161,10.161,0,0,1,3.118-7.73c2.1-1.965,4.97-2.959,8.653-2.959a15.7,15.7,0,0,1,7.068,1.324,9.023,9.023,0,0,1,3.953,3.843,13.671,13.671,0,0,1,1.354,6.537ZM300.58-14.776h11.7l4.5,17.116,4.518-17.116h11.632V13.359h-7.25V-8.107L320.05,13.359h-6.6l-5.6-21.466V13.359H300.58Zm-39.822,22.5,7.927-.751a3.917,3.917,0,0,0,1.38,1.988,4.988,4.988,0,0,0,4.855-.066,1.566,1.566,0,0,0,.677-1.28,1.4,1.4,0,0,0-.9-1.28,17.026,17.026,0,0,0-3.435-.818,33.937,33.937,0,0,1-5.78-1.3,6.142,6.142,0,0,1-2.734-2.055,5.131,5.131,0,0,1-1.107-3.289,5.372,5.372,0,0,1,1.2-3.468,6.987,6.987,0,0,1,3.3-2.164,17.691,17.691,0,0,1,5.645-.728,20.833,20.833,0,0,1,5.512.552,6.955,6.955,0,0,1,2.936,1.743,8.445,8.445,0,0,1,1.988,3.161L274.65-1.3a2.5,2.5,0,0,0-.994-1.436,3.975,3.975,0,0,0-2.282-.618,3.28,3.28,0,0,0-1.965.465,1.415,1.415,0,0,0-.608,1.147,1.175,1.175,0,0,0,.767,1.124A13.239,13.239,0,0,0,273,.086a21.394,21.394,0,0,1,5.918,1.237A6.508,6.508,0,0,1,281.9,3.554a5.445,5.445,0,0,1,1.017,3.2,6.193,6.193,0,0,1-1.084,3.424,7.47,7.47,0,0,1-3.435,2.673,16.9,16.9,0,0,1-6.391.971c-3.818,0-6.506-.529-8.131-1.569A7.19,7.19,0,0,1,260.759,7.727Zm-11.2-4.063A32.153,32.153,0,0,1,246.144,4.7a8.224,8.224,0,0,0-3.092,1.239,1.893,1.893,0,0,0-.657,1.434,1.916,1.916,0,0,0,.657,1.523,2.827,2.827,0,0,0,1.919.578,5.448,5.448,0,0,0,2.507-.621A4.158,4.158,0,0,0,249.1,7.308a5.23,5.23,0,0,0,.452-2.384ZM242.646-.42l-7.636-.8a7.842,7.842,0,0,1,1.242-3.069A6.639,6.639,0,0,1,238.6-6.231a10.522,10.522,0,0,1,3.026-.948,26.861,26.861,0,0,1,4.155-.309,36.393,36.393,0,0,1,5.76.373,7.879,7.879,0,0,1,3.636,1.658,5.931,5.931,0,0,1,1.628,2.451A8.872,8.872,0,0,1,257.37.02V9.01a9.937,9.937,0,0,0,.2,2.274,10.609,10.609,0,0,0,.813,2.075h-7.5a7.542,7.542,0,0,1-.588-1.214,8.746,8.746,0,0,1-.271-1.28,10.04,10.04,0,0,1-3.141,2.1,12.943,12.943,0,0,1-4.9.861,8.5,8.5,0,0,1-5.691-1.7,5.386,5.386,0,0,1-1.919-4.153,5.309,5.309,0,0,1,1.4-3.82c.925-.994,2.642-1.745,5.126-2.231,3.005-.6,4.945-1.017,5.849-1.239.882-.243,1.83-.552,2.8-.925a2.663,2.663,0,0,0-.588-2.011,3.046,3.046,0,0,0-2.144-.6,5.7,5.7,0,0,0-2.936.621A3.37,3.37,0,0,0,242.646-.42ZM222.271,13.362h8V-7.023h-8Zm0-22.841h8v-5.3h-8ZM210.707,5.386l7.587.864a10.344,10.344,0,0,1-2.055,4.017,9.384,9.384,0,0,1-3.659,2.627,14.791,14.791,0,0,1-5.668.93,21.39,21.39,0,0,1-5.512-.6,9.311,9.311,0,0,1-3.795-1.942,9.4,9.4,0,0,1-2.507-3.2,11.044,11.044,0,0,1-.9-4.837A11.131,11.131,0,0,1,195.3-1.992a9.73,9.73,0,0,1,2.19-2.737,10.266,10.266,0,0,1,2.867-1.832,16.4,16.4,0,0,1,5.985-.928c3.412,0,6.01.6,7.771,1.789a9.139,9.139,0,0,1,3.772,5.211l-7.521.994A3.479,3.479,0,0,0,209.1-1.483a4.339,4.339,0,0,0-2.53-.659,4.105,4.105,0,0,0-3.207,1.39,6.268,6.268,0,0,0-1.219,4.217,5.524,5.524,0,0,0,1.219,3.843,4.092,4.092,0,0,0,3.118,1.283,4.287,4.287,0,0,0,2.619-.8A4.512,4.512,0,0,0,210.707,5.386ZM168.333-7.023h7.454v3.309a11.149,11.149,0,0,1,3.389-2.913,9.372,9.372,0,0,1,4.155-.861,6.964,6.964,0,0,1,5.2,1.945c1.242,1.257,1.85,3.245,1.85,5.939V13.359H182.36V2.138a3.836,3.836,0,0,0-.723-2.691,2.559,2.559,0,0,0-2.032-.82A2.947,2.947,0,0,0,177.231-.29a6.29,6.29,0,0,0-.879,3.866v9.782h-8.019Zm-18.542-8h5.668l4.36,5.5H154.94l-2.394-2.936L150.151-9.52h-4.878Zm6.775,16.388A5.279,5.279,0,0,0,155.3-1.879a3.61,3.61,0,0,0-2.642-.992,3.646,3.646,0,0,0-3.049,1.48,5.288,5.288,0,0,0-.925,2.76ZM164.673,5.1H148.658a4.916,4.916,0,0,0,1.04,2.8,3.827,3.827,0,0,0,3.028,1.326,4.428,4.428,0,0,0,2.236-.575,5.091,5.091,0,0,0,1.377-1.28l7.884.708a11.261,11.261,0,0,1-4.36,4.416,16.5,16.5,0,0,1-7.319,1.326,15.432,15.432,0,0,1-6.506-1.147,9.619,9.619,0,0,1-3.953-3.624A10.883,10.883,0,0,1,140.529,3.2a10.176,10.176,0,0,1,3.138-7.73c2.078-1.965,4.968-2.959,8.65-2.959a15.77,15.77,0,0,1,7.071,1.324,8.97,8.97,0,0,1,3.93,3.843,13.64,13.64,0,0,1,1.354,6.537Zm-42.96-2.251a4.828,4.828,0,0,0,.948,3.289A3.3,3.3,0,0,0,125.215,7.2a3.25,3.25,0,0,0,2.484-1.1,4.786,4.786,0,0,0,1.017-3.335,5.093,5.093,0,0,0-1.061-3.424,3.37,3.37,0,0,0-2.6-1.17,3.009,3.009,0,0,0-2.44,1.084A5.748,5.748,0,0,0,121.714,2.849Zm7.5-9.872h7.5V12.212l.023.9a8.636,8.636,0,0,1-.836,3.667,7.63,7.63,0,0,1-2.236,2.806,8.329,8.329,0,0,1-3.5,1.566,23.082,23.082,0,0,1-4.878.465c-4.178,0-7.068-.621-8.627-1.835a5.97,5.97,0,0,1-2.348-4.924c0-.266.023-.618.043-1.038l7.748.861a2.474,2.474,0,0,0,.9,1.457,4.133,4.133,0,0,0,2.236.575,3.328,3.328,0,0,0,2.55-.884,4.513,4.513,0,0,0,.859-3.156V9.605A8.372,8.372,0,0,1,126.3,11.57a8.44,8.44,0,0,1-3.974.974,7.957,7.957,0,0,1-6.754-3.58,11.215,11.215,0,0,1-1.83-6.693c0-3.2.79-5.607,2.348-7.265a8.114,8.114,0,0,1,6.166-2.494,8.652,8.652,0,0,1,4.02.815,8.566,8.566,0,0,1,2.936,2.65Zm-33.247,0h7.475v3.332a8.2,8.2,0,0,1,2.236-2.982,4.681,4.681,0,0,1,2.824-.815A8.6,8.6,0,0,1,112.363-6.4L109.9-.862a7.186,7.186,0,0,0-2.236-.575,2.754,2.754,0,0,0-2.438,1.28c-.815,1.193-1.245,3.4-1.245,6.67v6.846H95.965ZM84.085,1.369A5.131,5.131,0,0,0,82.84-1.879a3.624,3.624,0,0,0-2.665-.992,3.709,3.709,0,0,0-3.049,1.48,5.339,5.339,0,0,0-.9,2.76ZM92.213,5.1H76.2a4.9,4.9,0,0,0,1.04,2.8A3.822,3.822,0,0,0,80.267,9.23a4.4,4.4,0,0,0,2.213-.575,5.134,5.134,0,0,0,1.4-1.28l7.884.708A11.535,11.535,0,0,1,87.4,12.5a16.494,16.494,0,0,1-7.319,1.326,15.527,15.527,0,0,1-6.527-1.147,9.549,9.549,0,0,1-3.93-3.624A10.862,10.862,0,0,1,68.069,3.2a10.152,10.152,0,0,1,3.118-7.73c2.1-1.965,4.968-2.959,8.65-2.959a15.684,15.684,0,0,1,7.068,1.324,9,9,0,0,1,3.953,3.843,13.641,13.641,0,0,1,1.354,6.537ZM28.925-7.023h7.454v2.959a11.005,11.005,0,0,1,3.253-2.65,9.265,9.265,0,0,1,3.953-.774,7.713,7.713,0,0,1,3.951.861A6.607,6.607,0,0,1,49.91-4.064a11.741,11.741,0,0,1,3.455-2.7,8.81,8.81,0,0,1,3.815-.728,7.037,7.037,0,0,1,5.241,1.945C63.664-4.243,64.3-2.211,64.3.549V13.359H56.279V1.742a3.266,3.266,0,0,0-.542-2.055,2.423,2.423,0,0,0-1.988-1.061,2.916,2.916,0,0,0-2.279,1,4.859,4.859,0,0,0-.882,3.225V13.359h-8V2.12A6.47,6.47,0,0,0,42.433.308a2.624,2.624,0,0,0-.882-1.239,2.446,2.446,0,0,0-1.49-.483A2.877,2.877,0,0,0,37.826-.4a5.149,5.149,0,0,0-.9,3.335V13.359h-8ZM.352-14.776h23.83v6.008H9.253v4.482H23.1V1.433H9.253V6.976H24.611v6.384H.352Z" transform="translate(-0.352 15.262)" fill="none" clip-rule="evenodd"/>
    </clipPath>
    <clipPath id="clip-path-15">
      <path id="Trazado_421" data-name="Trazado 421" d="M417.488-4.225l5.66-16.672c1.439-4.722,3.55-12.343,5.167-17.4h.314c1.618,5.055,3.708,12.478,5.323,17.4l5.481,16.672Zm29.735-50.44H410.877l-33.241,83.85h29l6.849-19.531h29l7.347,19.531h29.656Zm-105.936,0-11.9,35.051a289.361,289.361,0,0,0-8.637,29.153h-.5c-2.425-10.066-5.533-19.731-8.773-29.153l-11.9-34.918H267.963L302.99,29.183h33.08l36.165-83.845Zm-79.5,67.692H220.056v-67.7h-28.69V29.2h70.421ZM123.832-4.225l5.66-16.672c1.439-4.722,3.55-12.343,5.167-17.4H135c1.595,5.055,3.685,12.478,5.3,17.4l5.5,16.672Zm29.222-50.5H116.68L83.367,29.244h29.066l6.856-19.559h29.043l7.334,19.559h29.7ZM72.465-50.905c-5.867-1.9-14.909-3.58-26.641-3.58-28.363,0-44.22,10.871-44.22,24.67C1.6-20.089,11.6-12.088,30.936-6.18,43.619-2.362,49.154.355,49.154,5.335c0,4.853-5.691,8.216-17.423,8.216A89.286,89.286,0,0,1,5.088,9.327L.347,24.938c5.711,2.113,17.906,4.224,30.257,4.224,29.643,0,46.627-10.544,46.627-25.422C77.231-6.4,69.135-14.4,49.64-20.2c-14.909-4.549-19.981-6.752-19.981-11.3,0-4.01,5.249-7.5,16.01-7.5a66.932,66.932,0,0,1,21.548,3.406Z" transform="translate(-0.347 54.723)" fill="none" clip-rule="evenodd"/>
    </clipPath>
    <clipPath id="clip-logo">
      <rect width="512" height="512"/>
    </clipPath>
  </defs>
  <g id="logo" clip-path="url(#clip-logo)">
    <g id="Grupo_86" data-name="Grupo 86" transform="translate(15.7 220.656)">
      <g id="Grupo_71" data-name="Grupo 71" transform="translate(122.775 -129.649)" clip-path="url(#clip-path)">
        <g id="Grupo_70" data-name="Grupo 70" transform="translate(-337.9 -1076.532)" clip-path="url(#clip-path-2)">
          <path id="Trazado_397" data-name="Trazado 397" d="M43.227-134.732H251.785V39.731H43.227Z" transform="translate(281.896 1198.487)" fill="#c1292b"/>
        </g>
      </g>
      <g id="Grupo_73" data-name="Grupo 73" transform="translate(0.3 30.805)" clip-path="url(#clip-path-3)">
        <g id="Grupo_72" data-name="Grupo 72" transform="translate(-215.425 -1236.986)" clip-path="url(#clip-path-2)">
          <path id="Trazado_400" data-name="Trazado 400" d="M-4.7-71.943H500.149v45.237H-4.7Z" transform="translate(207.348 1296.152)" fill="#c5322f"/>
        </g>
      </g>
      <g id="Grupo_75" data-name="Grupo 75" transform="translate(0.421 -129.786)" clip-path="url(#clip-path-5)">
        <g id="Grupo_74" data-name="Grupo 74" transform="translate(-215.546 -1076.395)" clip-path="url(#clip-path-2)">
          <path id="Trazado_403" data-name="Trazado 403" d="M-4.653-134.786H181.114V39.427H-4.653Z" transform="translate(207.421 1198.404)" fill="#2c2f66"/>
        </g>
      </g>
      <g id="Grupo_77" data-name="Grupo 77" transform="translate(122.774 -32.757)" clip-path="url(#clip-path-7)">
        <g id="Grupo_76" data-name="Grupo 76" transform="translate(-337.9 -1173.424)" clip-path="url(#clip-path-2)">
          <path id="Trazado_406" data-name="Trazado 406" d="M43.227-96.817H106.64v77.208H43.227Z" transform="translate(281.896 1257.463)" fill="#2c2f66"/>
        </g>
      </g>
      <g id="Grupo_78" data-name="Grupo 78" transform="translate(239.838 -9.287)" clip-path="url(#clip-path-9)">
        <path id="Trazado_409" data-name="Trazado 409" d="M89.036-87.632h91.5v54.1h-91.5Z" transform="translate(-101.813 74.855)" fill="#2c2f66"/>
      </g>
      <g id="Grupo_79" data-name="Grupo 79" transform="translate(239.839 -129.305)" clip-path="url(#clip-path-10)">
        <path id="Trazado_411" data-name="Trazado 411" d="M89.036-134.6h91.5v54.163h-91.5Z" transform="translate(-101.813 121.82)" fill="#2c2f66"/>
      </g>
      <g id="Grupo_81" data-name="Grupo 81" transform="translate(338.582 -129.784)" clip-path="url(#clip-path-11)">
        <g id="Grupo_80" data-name="Grupo 80" transform="translate(-553.707 -1076.397)" clip-path="url(#clip-path-2)">
          <path id="Trazado_413" data-name="Trazado 413" d="M127.676-134.785H294.21v174H127.676Z" transform="translate(413.254 1198.405)" fill="#2c2f66"/>
        </g>
      </g>
      <g id="Grupo_83" data-name="Grupo 83" transform="translate(0.434 162.875)" clip-path="url(#clip-path-13)">
        <g id="Grupo_82" data-name="Grupo 82" transform="translate(-215.559 -1369.056)" clip-path="url(#clip-path-2)">
          <path id="Trazado_416" data-name="Trazado 416" d="M-4.648-20.262H500.025V42.176H-4.648Z" transform="translate(207.429 1376.541)" fill="#2c2f66"/>
        </g>
      </g>
      <g id="Grupo_85" data-name="Grupo 85" transform="translate(0.421 62.034)" clip-path="url(#clip-path-15)">
        <g id="Grupo_84" data-name="Grupo 84" transform="translate(-215.546 -1268.214)" clip-path="url(#clip-path-2)">
          <path id="Trazado_419" data-name="Trazado 419" d="M-4.653-59.723h504.7V49.8H-4.653Z" transform="translate(207.422 1315.16)" fill="#2c2f66"/>
        </g>
      </g>
    </g>
  </g>
</svg>
